  0
SECTION
  2
HEADER
  9
$ACADVER
  1
AC1027
  9
$ACADMAINTVER
 70
   125
  9
$DWGCODEPAGE
  3
ANSI_1252
  9
$REQUIREDVERSIONS
160
                 0
  9
$INSBASE
 10
0.0
 20
0.0
 30
0.0
  9
$EXTMIN
 10
1.000000000000000E+20
 20
1.000000000000000E+20
 30
1.000000000000000E+20
  9
$EXTMAX
 10
-1.000000000000000E+20
 20
-1.000000000000000E+20
 30
-1.000000000000000E+20
  9
$LIMMIN
 10
0.0
 20
0.0
  9
$LIMMAX
 10
12.0
 20
9.0
  9
$ORTHOMODE
 70
     0
  9
$REGENMODE
 70
     1
  9
$FILLMODE
 70
     1
  9
$QTEXTMODE
 70
     0
  9
$MIRRTEXT
 70
     0
  9
$LTSCALE
 40
1.0
  9
$ATTMODE
 70
     1
  9
$TEXTSIZE
 40
0.2
  9
$TRACEWID
 40
0.05
  9
$TEXTSTYLE
  7
Standard
  9
$CLAYER
  8
0
  9
$CELTYPE
  6
ByLayer
  9
$CECOLOR
 62
   256
  9
$CELTSCALE
 40
1.0
  9
$DISPSILH
 70
     0
  9
$DIMSCALE
 40
1.0
  9
$DIMASZ
 40
0.18
  9
$DIMEXO
 40
0.0625
  9
$DIMDLI
 40
0.38
  9
$DIMRND
 40
0.0
  9
$DIMDLE
 40
0.0
  9
$DIMEXE
 40
0.18
  9
$DIMTP
 40
0.0
  9
$DIMTM
 40
0.0
  9
$DIMTXT
 40
0.18
  9
$DIMCEN
 40
0.09
  9
$DIMTSZ
 40
0.0
  9
$DIMTOL
 70
     0
  9
$DIMLIM
 70
     0
  9
$DIMTIH
 70
     1
  9
$DIMTOH
 70
     1
  9
$DIMSE1
 70
     0
  9
$DIMSE2
 70
     0
  9
$DIMTAD
 70
     0
  9
$DIMZIN
 70
     0
  9
$DIMBLK
  1

  9
$DIMASO
 70
     1
  9
$DIMSHO
 70
     1
  9
$DIMPOST
  1

  9
$DIMAPOST
  1

  9
$DIMALT
 70
     0
  9
$DIMALTD
 70
     2
  9
$DIMALTF
 40
25.4
  9
$DIMLFAC
 40
1.0
  9
$DIMTOFL
 70
     0
  9
$DIMTVP
 40
0.0
  9
$DIMTIX
 70
     0
  9
$DIMSOXD
 70
     0
  9
$DIMSAH
 70
     0
  9
$DIMBLK1
  1

  9
$DIMBLK2
  1

  9
$DIMSTYLE
  2
Standard
  9
$DIMCLRD
 70
     0
  9
$DIMCLRE
 70
     0
  9
$DIMCLRT
 70
     0
  9
$DIMTFAC
 40
1.0
  9
$DIMGAP
 40
0.09
  9
$DIMJUST
 70
     0
  9
$DIMSD1
 70
     0
  9
$DIMSD2
 70
     0
  9
$DIMTOLJ
 70
     1
  9
$DIMTZIN
 70
     0
  9
$DIMALTZ
 70
     0
  9
$DIMALTTZ
 70
     0
  9
$DIMUPT
 70
     0
  9
$DIMDEC
 70
     4
  9
$DIMTDEC
 70
     4
  9
$DIMALTU
 70
     2
  9
$DIMALTTD
 70
     2
  9
$DIMTXSTY
  7
Standard
  9
$DIMAUNIT
 70
     0
  9
$DIMADEC
 70
     0
  9
$DIMALTRND
 40
0.0
  9
$DIMAZIN
 70
     0
  9
$DIMDSEP
 70
    46
  9
$DIMATFIT
 70
     3
  9
$DIMFRAC
 70
     0
  9
$DIMLDRBLK
  1

  9
$DIMLUNIT
 70
     2
  9
$DIMLWD
 70
    -2
  9
$DIMLWE
 70
    -2
  9
$DIMTMOVE
 70
     0
  9
$DIMFXL
 40
1.0
  9
$DIMFXLON
 70
     0
  9
$DIMJOGANG
 40
0.7853981633974483
  9
$DIMTFILL
 70
     0
  9
$DIMTFILLCLR
 70
     0
  9
$DIMARCSYM
 70
     0
  9
$DIMLTYPE
  6

  9
$DIMLTEX1
  6

  9
$DIMLTEX2
  6

  9
$DIMTXTDIRECTION
 70
     0
  9
$LUNITS
 70
     2
  9
$LUPREC
 70
     4
  9
$SKETCHINC
 40
0.1
  9
$FILLETRAD
 40
0.0
  9
$AUNITS
 70
     0
  9
$AUPREC
 70
     0
  9
$MENU
  1
.
  9
$ELEVATION
 40
0.0
  9
$PELEVATION
 40
0.0
  9
$THICKNESS
 40
0.0
  9
$LIMCHECK
 70
     0
  9
$CHAMFERA
 40
0.0
  9
$CHAMFERB
 40
0.0
  9
$CHAMFERC
 40
0.0
  9
$CHAMFERD
 40
0.0
  9
$SKPOLY
 70
     0
  9
$TDCREATE
 40
2459584.483356481
  9
$TDUCREATE
 40
2459584.483356481
  9
$TDUPDATE
 40
2459584.483356481
  9
$TDUUPDATE
 40
2459584.483356481
  9
$TDINDWG
 40
0.0000000000
  9
$TDUSRTIMER
 40
0.0000000000
  9
$USRTIMER
 70
     1
  9
$ANGBASE
 50
0.0
  9
$ANGDIR
 70
     0
  9
$PDMODE
 70
     0
  9
$PDSIZE
 40
0.0
  9
$PLINEWID
 40
0.0
  9
$SPLFRAME
 70
     0
  9
$SPLINETYPE
 70
     6
  9
$SPLINESEGS
 70
     8
  9
$HANDSEED
  5
32E
  9
$SURFTAB1
 70
     6
  9
$SURFTAB2
 70
     6
  9
$SURFTYPE
 70
     6
  9
$SURFU
 70
     6
  9
$SURFV
 70
     6
  9
$UCSBASE
  2

  9
$UCSNAME
  2

  9
$UCSORG
 10
0.0
 20
0.0
 30
0.0
  9
$UCSXDIR
 10
1.0
 20
0.0
 30
0.0
  9
$UCSYDIR
 10
0.0
 20
1.0
 30
0.0
  9
$UCSORTHOREF
  2

  9
$UCSORTHOVIEW
 70
     0
  9
$UCSORGTOP
 10
0.0
 20
0.0
 30
0.0
  9
$UCSORGBOTTOM
 10
0.0
 20
0.0
 30
0.0
  9
$UCSORGLEFT
 10
0.0
 20
0.0
 30
0.0
  9
$UCSORGRIGHT
 10
0.0
 20
0.0
 30
0.0
  9
$UCSORGFRONT
 10
0.0
 20
0.0
 30
0.0
  9
$UCSORGBACK
 10
0.0
 20
0.0
 30
0.0
  9
$PUCSBASE
  2

  9
$PUCSNAME
  2

  9
$PUCSORG
 10
0.0
 20
0.0
 30
0.0
  9
$PUCSXDIR
 10
1.0
 20
0.0
 30
0.0
  9
$PUCSYDIR
 10
0.0
 20
1.0
 30
0.0
  9
$PUCSORTHOREF
  2

  9
$PUCSORTHOVIEW
 70
     0
  9
$PUCSORGTOP
 10
0.0
 20
0.0
 30
0.0
  9
$PUCSORGBOTTOM
 10
0.0
 20
0.0
 30
0.0
  9
$PUCSORGLEFT
 10
0.0
 20
0.0
 30
0.0
  9
$PUCSORGRIGHT
 10
0.0
 20
0.0
 30
0.0
  9
$PUCSORGFRONT
 10
0.0
 20
0.0
 30
0.0
  9
$PUCSORGBACK
 10
0.0
 20
0.0
 30
0.0
  9
$USERI1
 70
     0
  9
$USERI2
 70
     0
  9
$USERI3
 70
     0
  9
$USERI4
 70
     0
  9
$USERI5
 70
     0
  9
$USERR1
 40
0.0
  9
$USERR2
 40
0.0
  9
$USERR3
 40
0.0
  9
$USERR4
 40
0.0
  9
$USERR5
 40
0.0
  9
$WORLDVIEW
 70
     1
  9
$SHADEDGE
 70
     3
  9
$SHADEDIF
 70
    70
  9
$TILEMODE
 70
     1
  9
$MAXACTVP
 70
    64
  9
$PINSBASE
 10
0.0
 20
0.0
 30
0.0
  9
$PLIMCHECK
 70
     0
  9
$PEXTMIN
 10
1.000000000000000E+20
 20
1.000000000000000E+20
 30
1.000000000000000E+20
  9
$PEXTMAX
 10
-1.000000000000000E+20
 20
-1.000000000000000E+20
 30
-1.000000000000000E+20
  9
$PLIMMIN
 10
0.0
 20
0.0
  9
$PLIMMAX
 10
12.0
 20
9.0
  9
$UNITMODE
 70
     0
  9
$VISRETAIN
 70
     1
  9
$PLINEGEN
 70
     0
  9
$PSLTSCALE
 70
     1
  9
$TREEDEPTH
 70
  3020
  9
$CMLSTYLE
  2
Standard
  9
$CMLJUST
 70
     0
  9
$CMLSCALE
 40
1.0
  9
$PROXYGRAPHICS
 70
     1
  9
$MEASUREMENT
 70
     0
  9
$CELWEIGHT
370
    -1
  9
$ENDCAPS
280
     0
  9
$JOINSTYLE
280
     0
  9
$LWDISPLAY
290
     0
  9
$INSUNITS
 70
     5
  9
$HYPERLINKBASE
  1

  9
$STYLESHEET
  1

  9
$XEDIT
290
     1
  9
$CEPSNTYPE
380
     0
  9
$PSTYLEMODE
290
     1
  9
$FINGERPRINTGUID
  2
{1F4F17E2-E702-5147-88F4-A7AE19C72816}
  9
$VERSIONGUID
  2
{C71E005F-CCCF-3141-9586-D1A88E0F4F81}
  9
$EXTNAMES
290
     1
  9
$PSVPSCALE
 40
0.0
  9
$OLESTARTUP
290
     0
  9
$SORTENTS
280
   127
  9
$INDEXCTL
280
     0
  9
$HIDETEXT
280
     1
  9
$XCLIPFRAME
280
     2
  9
$HALOGAP
280
     0
  9
$OBSCOLOR
 70
   257
  9
$OBSLTYPE
280
     0
  9
$INTERSECTIONDISPLAY
280
     0
  9
$INTERSECTIONCOLOR
 70
   257
  9
$DIMASSOC
280
     2
  9
$PROJECTNAME
  1

  9
$CAMERADISPLAY
290
     0
  9
$LENSLENGTH
 40
50.0
  9
$CAMERAHEIGHT
 40
0.0
  9
$STEPSPERSEC
 40
2.0
  9
$STEPSIZE
 40
6.0
  9
$3DDWFPREC
 40
2.0
  9
$PSOLWIDTH
 40
0.25
  9
$PSOLHEIGHT
 40
4.0
  9
$LOFTANG1
 40
1.570796326794896
  9
$LOFTANG2
 40
1.570796326794896
  9
$LOFTMAG1
 40
0.0
  9
$LOFTMAG2
 40
0.0
  9
$LOFTPARAM
 70
     7
  9
$LOFTNORMALS
280
     1
  9
$LATITUDE
 40
37.795
  9
$LONGITUDE
 40
-122.394
  9
$NORTHDIRECTION
 40
0.0
  9
$TIMEZONE
 70
 -8000
  9
$LIGHTGLYPHDISPLAY
280
     1
  9
$TILEMODELIGHTSYNCH
280
     1
  9
$CMATERIAL
347
11
  9
$SOLIDHIST
280
     0
  9
$SHOWHIST
280
     1
  9
$DWFFRAME
280
     2
  9
$DGNFRAME
280
     0
  9
$REALWORLDSCALE
290
     1
  9
$INTERFERECOLOR
 62
     1
  9
$INTERFEREOBJVS
345
33
  9
$INTERFEREVPVS
346
30
  9
$CSHADOW
280
     0
  9
$SHADOWPLANELOCATION
 40
0.0
  0
ENDSEC
  0
SECTION
  2
CLASSES
  0
CLASS
  1
ACDBDICTIONARYWDFLT
  2
AcDbDictionaryWithDefault
  3
ObjectDBX Classes
 90
        0
 91
        1
280
     0
281
     0
  0
CLASS
  1
MATERIAL
  2
AcDbMaterial
  3
ObjectDBX Classes
 90
     1153
 91
        3
280
     0
281
     0
  0
CLASS
  1
VISUALSTYLE
  2
AcDbVisualStyle
  3
ObjectDBX Classes
 90
     4095
 91
       24
280
     0
281
     0
  0
CLASS
  1
SCALE
  2
AcDbScale
  3
ObjectDBX Classes
 90
     1153
 91
       17
280
     0
281
     0
  0
CLASS
  1
TABLESTYLE
  2
AcDbTableStyle
  3
ObjectDBX Classes
 90
     4095
 91
        1
280
     0
281
     0
  0
CLASS
  1
MLEADERSTYLE
  2
AcDbMLeaderStyle
  3
ACDB_MLEADERSTYLE_CLASS
 90
     4095
 91
        1
280
     0
281
     0
  0
CLASS
  1
ACDBSECTIONVIEWSTYLE
  2
AcDbSectionViewStyle
  3
ObjectDBX Classes
 90
     1025
 91
        1
280
     0
281
     0
  0
CLASS
  1
ACDBDETAILVIEWSTYLE
  2
AcDbDetailViewStyle
  3
ObjectDBX Classes
 90
     1025
 91
        1
280
     0
281
     0
  0
CLASS
  1
DICTIONARYVAR
  2
AcDbDictionaryVar
  3
ObjectDBX Classes
 90
        0
 91
        5
280
     0
281
     0
  0
CLASS
  1
CELLSTYLEMAP
  2
AcDbCellStyleMap
  3
ObjectDBX Classes
 90
     1152
 91
        1
280
     0
281
     0
  0
ENDSEC
  0
SECTION
  2
TABLES
  0
TABLE
  2
VPORT
  5
8
330
0
100
AcDbSymbolTable
 70
     1
1001
ACAD
1000
DbSaveVer
1071
      247
  0
VPORT
  5
57
330
8
100
AcDbSymbolTableRecord
100
AcDbViewportTableRecord
  2
*Active
 70
     0
 10
0.0
 20
0.0
 11
1.0
 21
1.0
 12
500.0
 22
500.0
 13
0.0
 23
0.0
 14
1.0
 24
1.0
 15
0.0
 25
0.0
 16
0.0
 26
0.0
 36
1.0
 17
0.0
 27
0.0
 37
0.0
 40
12.0
 41
1.0
 42
50.0
 43
0.0
 44
0.0
 50
0.0
 51
0.0
 71
     0
 72
   100
 73
     1
 74
     1
 75
     0
 76
     0
 77
     0
 78
     0
281
     0
 65
     1
110
0.0
120
0.0
130
0.0
111
1.0
121
0.0
131
0.0
112
0.0
122
1.0
132
0.0
 79
     0
146
0.0
 60
     3
 61
     5
292
     1
282
     1
141
0.0
142
0.0
 63
   250
421
  3355443
  0
ENDTAB
  0
TABLE
  2
LTYPE
  5
5
330
0
100
AcDbSymbolTable
 70
     1
  0
LTYPE
  5
5B
330
5
100
AcDbSymbolTableRecord
100
AcDbLinetypeTableRecord
  2
ByBlock
 70
     0
  3

 72
    65
 73
     0
 40
0.0
  0
LTYPE
  5
5C
330
5
100
AcDbSymbolTableRecord
100
AcDbLinetypeTableRecord
  2
ByLayer
 70
     0
  3

 72
    65
 73
     0
 40
0.0
  0
LTYPE
  5
5D
330
5
100
AcDbSymbolTableRecord
100
AcDbLinetypeTableRecord
  2
Continuous
 70
     0
  3
Solid line
 72
    65
 73
     0
 40
0.0
  0
ENDTAB
  0
TABLE
  2
LAYER
  5
2
330
0
100
AcDbSymbolTable
 70
     2
  0
LAYER
  5
54
330
2
100
AcDbSymbolTableRecord
100
AcDbLayerTableRecord
  2
0
 70
     0
 62
     7
  6
Continuous
370
    -3
390
F
347
21
348
0
  0
LAYER
  5
7A
330
2
100
AcDbSymbolTableRecord
100
AcDbLayerTableRecord
  2
bakeneko-65-plate v4_VISIBLE
 70
     0
 62
     7
  6
Continuous
370
    -3
390
F
347
21
348
0
1001
NFusion_SketchTransform
1000
1.000000;0.000000;0.000000;0.000000;0.000000;1.000000;0.000000;0.000000;0.000000;0.000000;1.000000;0.000000;0.000000;0.000000;0.000000;1.000000
  0
ENDTAB
  0
TABLE
  2
STYLE
  5
3
330
0
100
AcDbSymbolTable
 70
     2
  0
STYLE
  5
55
330
3
100
AcDbSymbolTableRecord
100
AcDbTextStyleTableRecord
  2
Standard
 70
     0
 40
0.0
 41
1.0
 50
0.0
 71
     0
 42
0.2
  3
txt
  4

  0
STYLE
  5
5A
330
3
100
AcDbSymbolTableRecord
100
AcDbTextStyleTableRecord
  2
Annotative
 70
     0
 40
0.0
 41
1.0
 50
0.0
 71
     0
 42
0.2
  3
txt
  4

1001
AcadAnnotative
1000
AnnotativeData
1002
{
1070
     1
1070
     1
1002
}
  0
ENDTAB
  0
TABLE
  2
VIEW
  5
6
330
0
100
AcDbSymbolTable
 70
     0
  0
ENDTAB
  0
TABLE
  2
UCS
  5
7
330
0
100
AcDbSymbolTable
 70
     0
  0
ENDTAB
  0
TABLE
  2
APPID
  5
9
330
0
100
AcDbSymbolTable
 70
     4
  0
APPID
  5
56
330
9
100
AcDbSymbolTableRecord
100
AcDbRegAppTableRecord
  2
ACAD
 70
     0
  0
APPID
  5
5E
330
9
100
AcDbSymbolTableRecord
100
AcDbRegAppTableRecord
  2
AcadAnnotative
 70
     0
  0
APPID
  5
78
330
9
100
AcDbSymbolTableRecord
100
AcDbRegAppTableRecord
  2
EDIT_IN_FUSION_ACAD_ADDIN
 70
     0
  0
APPID
  5
79
330
9
100
AcDbSymbolTableRecord
100
AcDbRegAppTableRecord
  2
NFusion_SketchTransform
 70
     0
  0
ENDTAB
  0
TABLE
  2
DIMSTYLE
  5
A
330
0
100
AcDbSymbolTable
 70
     2
100
AcDbDimStyleTable
 71
     0
  0
DIMSTYLE
105
58
330
A
100
AcDbSymbolTableRecord
100
AcDbDimStyleTableRecord
  2
Standard
 70
     0
340
55
  0
DIMSTYLE
105
59
330
A
100
AcDbSymbolTableRecord
100
AcDbDimStyleTableRecord
  2
Annotative
 70
     0
340
55
1001
AcadAnnotative
1000
AnnotativeData
1002
{
1070
     1
1070
     1
1002
}
  0
ENDTAB
  0
TABLE
  2
BLOCK_RECORD
  5
1
330
0
100
AcDbSymbolTable
 70
     1
  0
BLOCK_RECORD
  5
70
330
1
100
AcDbSymbolTableRecord
100
AcDbBlockTableRecord
  2
*Model_Space
340
73
 70
     0
280
     1
281
     0
  0
BLOCK_RECORD
  5
6C
330
1
100
AcDbSymbolTableRecord
100
AcDbBlockTableRecord
  2
*Paper_Space
340
6F
 70
     0
280
     1
281
     0
  0
BLOCK_RECORD
  5
74
330
1
100
AcDbSymbolTableRecord
100
AcDbBlockTableRecord
  2
*Paper_Space0
340
77
 70
     0
280
     1
281
     0
  0
ENDTAB
  0
ENDSEC
  0
SECTION
  2
BLOCKS
  0
BLOCK
  5
71
330
70
100
AcDbEntity
  8
0
100
AcDbBlockBegin
  2
*Model_Space
 70
     0
 10
0.0
 20
0.0
 30
0.0
  3
*Model_Space
  1

  0
ENDBLK
  5
72
330
70
100
AcDbEntity
  8
0
100
AcDbBlockEnd
  0
BLOCK
  5
6D
330
6C
100
AcDbEntity
 67
     1
  8
0
100
AcDbBlockBegin
  2
*Paper_Space
 70
     0
 10
0.0
 20
0.0
 30
0.0
  3
*Paper_Space
  1

  0
ENDBLK
  5
6E
330
6C
100
AcDbEntity
 67
     1
  8
0
100
AcDbBlockEnd
  0
BLOCK
  5
75
330
74
100
AcDbEntity
 67
     1
  8
0
100
AcDbBlockBegin
  2
*Paper_Space0
 70
     0
 10
0.0
 20
0.0
 30
0.0
  3
*Paper_Space0
  1

  0
ENDBLK
  5
76
330
74
100
AcDbEntity
 67
     1
  8
0
100
AcDbBlockEnd
  0
ENDSEC
  0
SECTION
  2
ENTITIES
  0
POINT
  5
7B
330
70
100
AcDbEntity
  8
bakeneko-65-plate v4_VISIBLE
100
AcDbPoint
 10
30.5962273587511
 20
11.10180569306099
 30
0.0
  0
LINE
  5
7C
330
70
100
AcDbEntity
  8
bakeneko-65-plate v4_VISIBLE
100
AcDbLine
 10
25.9337273587511
 20
18.34180569306099
 30
0.0
 11
27.2337273587511
 21
18.34180569306099
 31
0.0
  0
LINE
  5
7D
330
70
100
AcDbEntity
  8
bakeneko-65-plate v4_VISIBLE
100
AcDbLine
 10
29.69372735875112
 20
18.29180569306099
 30
0.0
 11
29.69372735875112
 21
16.99180569306099
 31
0.0
  0
ARC
  5
7E
330
70
100
AcDbEntity
  8
bakeneko-65-plate v4_VISIBLE
100
AcDbCircle
 10
19.61372735875111
 20
16.99180569306099
 30
0.0
 40
0.0500000000000007
100
AcDbArc
 50
270.0
 51
0.0
  0
ARC
  5
7F
330
70
100
AcDbEntity
  8
bakeneko-65-plate v4_VISIBLE
100
AcDbCircle
 10
18.31372735875111
 20
18.29180569306099
 30
0.0
 40
0.0500000000000007
100
AcDbArc
 50
90.0
 51
180.0
  0
ARC
  5
80
330
70
100
AcDbEntity
  8
bakeneko-65-plate v4_VISIBLE
100
AcDbCircle
 10
27.2337273587511
 20
18.29180569306099
 30
0.0
 40
0.0500000000000007
100
AcDbArc
 50
0.0
 51
90.0
  0
ARC
  5
81
330
70
100
AcDbEntity
  8
bakeneko-65-plate v4_VISIBLE
100
AcDbCircle
 10
25.9337273587511
 20
18.29180569306099
 30
0.0
 40
0.0500000000000007
100
AcDbArc
 50
90.0
 51
180.0
  0
ARC
  5
82
330
70
100
AcDbEntity
  8
bakeneko-65-plate v4_VISIBLE
100
AcDbCircle
 10
29.74372735875112
 20
16.99180569306099
 30
0.0
 40
0.0500000000000007
100
AcDbArc
 50
180.0
 51
270.0
  0
LINE
  5
83
330
70
100
AcDbEntity
  8
bakeneko-65-plate v4_VISIBLE
100
AcDbLine
 10
27.2837273587511
 20
18.29180569306099
 30
0.0
 11
27.2837273587511
 21
16.99180569306099
 31
0.0
  0
LINE
  5
84
330
70
100
AcDbEntity
  8
bakeneko-65-plate v4_VISIBLE
100
AcDbLine
 10
27.83872735875112
 20
18.34180569306099
 30
0.0
 11
29.13872735875111
 21
18.34180569306099
 31
0.0
  0
LINE
  5
85
330
70
100
AcDbEntity
  8
bakeneko-65-plate v4_VISIBLE
100
AcDbLine
 10
27.83872735875112
 20
16.94180569306099
 30
0.0
 11
29.13872735875111
 21
16.94180569306099
 31
0.0
  0
LINE
  5
86
330
70
100
AcDbEntity
  8
bakeneko-65-plate v4_VISIBLE
100
AcDbLine
 10
25.9337273587511
 20
16.94180569306099
 30
0.0
 11
27.2337273587511
 21
16.94180569306099
 31
0.0
  0
ARC
  5
87
330
70
100
AcDbEntity
  8
bakeneko-65-plate v4_VISIBLE
100
AcDbCircle
 10
25.3287273587511
 20
18.29180569306099
 30
0.0
 40
0.0500000000000007
100
AcDbArc
 50
0.0
 51
90.0
  0
LINE
  5
88
330
70
100
AcDbEntity
  8
bakeneko-65-plate v4_VISIBLE
100
AcDbLine
 10
29.74372735875112
 20
16.94180569306099
 30
0.0
 11
31.04372735875112
 21
16.94180569306099
 31
0.0
  0
ARC
  5
89
330
70
100
AcDbEntity
  8
bakeneko-65-plate v4_VISIBLE
100
AcDbCircle
 10
25.9337273587511
 20
16.99180569306099
 30
0.0
 40
0.0500000000000007
100
AcDbArc
 50
180.0
 51
270.0
  0
LINE
  5
8A
330
70
100
AcDbEntity
  8
bakeneko-65-plate v4_VISIBLE
100
AcDbLine
 10
23.9787273587511
 20
18.29180569306099
 30
0.0
 11
23.9787273587511
 21
16.99180569306099
 31
0.0
  0
LINE
  5
8B
330
70
100
AcDbEntity
  8
bakeneko-65-plate v4_VISIBLE
100
AcDbLine
 10
24.0287273587511
 20
16.94180569306099
 30
0.0
 11
25.3287273587511
 21
16.94180569306099
 31
0.0
  0
ARC
  5
8C
330
70
100
AcDbEntity
  8
bakeneko-65-plate v4_VISIBLE
100
AcDbCircle
 10
25.3287273587511
 20
16.99180569306099
 30
0.0
 40
0.0500000000000007
100
AcDbArc
 50
270.0
 51
0.0
  0
ARC
  5
8D
330
70
100
AcDbEntity
  8
bakeneko-65-plate v4_VISIBLE
100
AcDbCircle
 10
14.5037273587511
 20
18.29180569306099
 30
0.0
 40
0.0500000000000007
100
AcDbArc
 50
90.0
 51
180.0
  0
LINE
  5
8E
330
70
100
AcDbEntity
  8
bakeneko-65-plate v4_VISIBLE
100
AcDbLine
 10
40.2212273587511
 20
20.24680569306099
 30
0.0
 11
41.5212273587511
 21
20.24680569306099
 31
0.0
  0
LINE
  5
8F
330
70
100
AcDbEntity
  8
bakeneko-65-plate v4_VISIBLE
100
AcDbLine
 10
16.3587273587511
 20
18.29180569306099
 30
0.0
 11
16.3587273587511
 21
16.99180569306099
 31
0.0
  0
ARC
  5
90
330
70
100
AcDbEntity
  8
bakeneko-65-plate v4_VISIBLE
100
AcDbCircle
 10
20.2187273587511
 20
18.29180569306099
 30
0.0
 40
0.0500000000000007
100
AcDbArc
 50
90.0
 51
180.0
  0
LINE
  5
91
330
70
100
AcDbEntity
  8
bakeneko-65-plate v4_VISIBLE
100
AcDbLine
 10
17.7587273587511
 20
18.29180569306099
 30
0.0
 11
17.7587273587511
 21
16.99180569306099
 31
0.0
  0
LINE
  5
92
330
70
100
AcDbEntity
  8
bakeneko-65-plate v4_VISIBLE
100
AcDbLine
 10
22.12372735875111
 20
18.34180569306099
 30
0.0
 11
23.42372735875111
 21
18.34180569306099
 31
0.0
  0
ARC
  5
93
330
70
100
AcDbEntity
  8
bakeneko-65-plate v4_VISIBLE
100
AcDbCircle
 10
40.2212273587511
 20
20.19680569306099
 30
0.0
 40
0.0500000000000007
100
AcDbArc
 50
90.0
 51
180.0
  0
LINE
  5
94
330
70
100
AcDbEntity
  8
bakeneko-65-plate v4_VISIBLE
100
AcDbLine
 10
19.66372735875111
 20
18.29180569306099
 30
0.0
 11
19.66372735875111
 21
16.99180569306099
 31
0.0
  0
ARC
  5
95
330
70
100
AcDbEntity
  8
bakeneko-65-plate v4_VISIBLE
100
AcDbCircle
 10
19.61372735875111
 20
18.29180569306099
 30
0.0
 40
0.0500000000000007
100
AcDbArc
 50
0.0
 51
90.0
  0
LINE
  5
96
330
70
100
AcDbEntity
  8
bakeneko-65-plate v4_VISIBLE
100
AcDbLine
 10
14.4537273587511
 20
18.29180569306099
 30
0.0
 11
14.4537273587511
 21
16.99180569306099
 31
0.0
  0
ARC
  5
97
330
70
100
AcDbEntity
  8
bakeneko-65-plate v4_VISIBLE
100
AcDbCircle
 10
17.7087273587511
 20
16.99180569306099
 30
0.0
 40
0.0499999999999972
100
AcDbArc
 50
270.0
 51
0.0
  0
LINE
  5
98
330
70
100
AcDbEntity
  8
bakeneko-65-plate v4_VISIBLE
100
AcDbLine
 10
12.0724773587511
 20
18.29180569306099
 30
0.0
 11
12.0724773587511
 21
16.99180569306099
 31
0.0
  0
ARC
  5
99
330
70
100
AcDbEntity
  8
bakeneko-65-plate v4_VISIBLE
100
AcDbCircle
 10
15.8037273587511
 20
18.29180569306099
 30
0.0
 40
0.0500000000000007
100
AcDbArc
 50
0.0
 51
90.0
  0
ARC
  5
9A
330
70
100
AcDbEntity
  8
bakeneko-65-plate v4_VISIBLE
100
AcDbCircle
 10
23.42372735875111
 20
18.29180569306099
 30
0.0
 40
0.0500000000000007
100
AcDbArc
 50
0.0
 51
90.0
  0
LINE
  5
9B
330
70
100
AcDbEntity
  8
bakeneko-65-plate v4_VISIBLE
100
AcDbLine
 10
14.5037273587511
 20
16.94180569306099
 30
0.0
 11
15.8037273587511
 21
16.94180569306099
 31
0.0
  0
ARC
  5
9C
330
70
100
AcDbEntity
  8
bakeneko-65-plate v4_VISIBLE
100
AcDbCircle
 10
12.1224773587511
 20
18.29180569306099
 30
0.0
 40
0.0500000000000007
100
AcDbArc
 50
90.0
 51
180.0
  0
LINE
  5
9D
330
70
100
AcDbEntity
  8
bakeneko-65-plate v4_VISIBLE
100
AcDbLine
 10
18.31372735875111
 20
16.94180569306099
 30
0.0
 11
19.61372735875111
 21
16.94180569306099
 31
0.0
  0
LINE
  5
9E
330
70
100
AcDbEntity
  8
bakeneko-65-plate v4_VISIBLE
100
AcDbLine
 10
22.07372735875111
 20
18.29180569306099
 30
0.0
 11
22.07372735875111
 21
16.99180569306099
 31
0.0
  0
ARC
  5
9F
330
70
100
AcDbEntity
  8
bakeneko-65-plate v4_VISIBLE
100
AcDbCircle
 10
14.5037273587511
 20
16.99180569306099
 30
0.0
 40
0.0500000000000007
100
AcDbArc
 50
180.0
 51
270.0
  0
ARC
  5
A0
330
70
100
AcDbEntity
  8
bakeneko-65-plate v4_VISIBLE
100
AcDbCircle
 10
24.0287273587511
 20
18.29180569306099
 30
0.0
 40
0.0500000000000007
100
AcDbArc
 50
90.0
 51
180.0
  0
ARC
  5
A1
330
70
100
AcDbEntity
  8
bakeneko-65-plate v4_VISIBLE
100
AcDbCircle
 10
20.2187273587511
 20
16.99180569306099
 30
0.0
 40
0.0500000000000007
100
AcDbArc
 50
180.0
 51
270.0
  0
ARC
  5
A2
330
70
100
AcDbEntity
  8
bakeneko-65-plate v4_VISIBLE
100
AcDbCircle
 10
21.5187273587511
 20
16.99180569306099
 30
0.0
 40
0.0500000000000007
100
AcDbArc
 50
270.0
 51
0.0
  0
ARC
  5
A3
330
70
100
AcDbEntity
  8
bakeneko-65-plate v4_VISIBLE
100
AcDbCircle
 10
21.5187273587511
 20
18.29180569306099
 30
0.0
 40
0.0500000000000007
100
AcDbArc
 50
0.0
 51
90.0
  0
LINE
  5
A4
330
70
100
AcDbEntity
  8
bakeneko-65-plate v4_VISIBLE
100
AcDbLine
 10
20.1687273587511
 20
18.29180569306099
 30
0.0
 11
20.1687273587511
 21
16.99180569306099
 31
0.0
  0
ARC
  5
A5
330
70
100
AcDbEntity
  8
bakeneko-65-plate v4_VISIBLE
100
AcDbCircle
 10
35.80622735875112
 20
18.89680569306099
 30
0.0
 40
0.0500000000000007
100
AcDbArc
 50
270.0
 51
0.0
  0
LINE
  5
A6
330
70
100
AcDbEntity
  8
bakeneko-65-plate v4_VISIBLE
100
AcDbLine
 10
23.47372735875111
 20
18.29180569306099
 30
0.0
 11
23.47372735875111
 21
16.99180569306099
 31
0.0
  0
ARC
  5
A7
330
70
100
AcDbEntity
  8
bakeneko-65-plate v4_VISIBLE
100
AcDbCircle
 10
22.12372735875111
 20
16.99180569306099
 30
0.0
 40
0.0500000000000007
100
AcDbArc
 50
180.0
 51
270.0
  0
LINE
  5
A8
330
70
100
AcDbEntity
  8
bakeneko-65-plate v4_VISIBLE
100
AcDbLine
 10
20.2187273587511
 20
16.94180569306099
 30
0.0
 11
21.5187273587511
 21
16.94180569306099
 31
0.0
  0
ARC
  5
A9
330
70
100
AcDbEntity
  8
bakeneko-65-plate v4_VISIBLE
100
AcDbCircle
 10
34.50622735875111
 20
18.89680569306099
 30
0.0
 40
0.0499999999999972
100
AcDbArc
 50
180.0
 51
270.0
  0
LINE
  5
AA
330
70
100
AcDbEntity
  8
bakeneko-65-plate v4_VISIBLE
100
AcDbLine
 10
21.5687273587511
 20
18.29180569306099
 30
0.0
 11
21.5687273587511
 21
16.99180569306099
 31
0.0
  0
ARC
  5
AB
330
70
100
AcDbEntity
  8
bakeneko-65-plate v4_VISIBLE
100
AcDbCircle
 10
16.4087273587511
 20
18.29180569306099
 30
0.0
 40
0.0500000000000007
100
AcDbArc
 50
90.0
 51
180.0
  0
LINE
  5
AC
330
70
100
AcDbEntity
  8
bakeneko-65-plate v4_VISIBLE
100
AcDbLine
 10
40.1712273587511
 20
20.19680569306099
 30
0.0
 11
40.1712273587511
 21
18.89680569306099
 31
0.0
  0
ARC
  5
AD
330
70
100
AcDbEntity
  8
bakeneko-65-plate v4_VISIBLE
100
AcDbCircle
 10
13.42247735875111
 20
16.99180569306099
 30
0.0
 40
0.0500000000000007
100
AcDbArc
 50
270.0
 51
0.0
  0
LINE
  5
AE
330
70
100
AcDbEntity
  8
bakeneko-65-plate v4_VISIBLE
100
AcDbLine
 10
18.26372735875111
 20
18.29180569306099
 30
0.0
 11
18.26372735875111
 21
16.99180569306099
 31
0.0
  0
LINE
  5
AF
330
70
100
AcDbEntity
  8
bakeneko-65-plate v4_VISIBLE
100
AcDbLine
 10
20.2187273587511
 20
18.34180569306099
 30
0.0
 11
21.5187273587511
 21
18.34180569306099
 31
0.0
  0
LINE
  5
B0
330
70
100
AcDbEntity
  8
bakeneko-65-plate v4_VISIBLE
100
AcDbLine
 10
40.2212273587511
 20
18.84680569306099
 30
0.0
 11
41.5212273587511
 21
18.84680569306099
 31
0.0
  0
ARC
  5
B1
330
70
100
AcDbEntity
  8
bakeneko-65-plate v4_VISIBLE
100
AcDbCircle
 10
12.1224773587511
 20
16.99180569306099
 30
0.0
 40
0.0500000000000007
100
AcDbArc
 50
180.0
 51
270.0
  0
LINE
  5
B2
330
70
100
AcDbEntity
  8
bakeneko-65-plate v4_VISIBLE
100
AcDbLine
 10
14.5037273587511
 20
18.34180569306099
 30
0.0
 11
15.8037273587511
 21
18.34180569306099
 31
0.0
  0
ARC
  5
B3
330
70
100
AcDbEntity
  8
bakeneko-65-plate v4_VISIBLE
100
AcDbCircle
 10
15.8037273587511
 20
16.99180569306099
 30
0.0
 40
0.0500000000000007
100
AcDbArc
 50
270.0
 51
0.0
  0
LINE
  5
B4
330
70
100
AcDbEntity
  8
bakeneko-65-plate v4_VISIBLE
100
AcDbLine
 10
12.1224773587511
 20
18.34180569306099
 30
0.0
 11
13.42247735875111
 21
18.34180569306099
 31
0.0
  0
ARC
  5
B5
330
70
100
AcDbEntity
  8
bakeneko-65-plate v4_VISIBLE
100
AcDbCircle
 10
40.2212273587511
 20
18.89680569306099
 30
0.0
 40
0.0499999999999972
100
AcDbArc
 50
180.0
 51
270.0
  0
LINE
  5
B6
330
70
100
AcDbEntity
  8
bakeneko-65-plate v4_VISIBLE
100
AcDbLine
 10
34.50622735875111
 20
18.84680569306099
 30
0.0
 11
35.80622735875112
 21
18.84680569306099
 31
0.0
  0
LINE
  5
B7
330
70
100
AcDbEntity
  8
bakeneko-65-plate v4_VISIBLE
100
AcDbLine
 10
25.3787273587511
 20
18.29180569306099
 30
0.0
 11
25.3787273587511
 21
16.99180569306099
 31
0.0
  0
LINE
  5
B8
330
70
100
AcDbEntity
  8
bakeneko-65-plate v4_VISIBLE
100
AcDbLine
 10
41.5712273587511
 20
20.19680569306099
 30
0.0
 11
41.5712273587511
 21
18.89680569306099
 31
0.0
  0
ARC
  5
B9
330
70
100
AcDbEntity
  8
bakeneko-65-plate v4_VISIBLE
100
AcDbCircle
 10
13.42247735875111
 20
18.29180569306099
 30
0.0
 40
0.0500000000000007
100
AcDbArc
 50
0.0
 51
90.0
  0
ARC
  5
BA
330
70
100
AcDbEntity
  8
bakeneko-65-plate v4_VISIBLE
100
AcDbCircle
 10
41.5212273587511
 20
20.19680569306099
 30
0.0
 40
0.0499999999999972
100
AcDbArc
 50
0.0
 51
90.0
  0
LINE
  5
BB
330
70
100
AcDbEntity
  8
bakeneko-65-plate v4_VISIBLE
100
AcDbLine
 10
34.45622735875112
 20
20.19680569306099
 30
0.0
 11
34.45622735875112
 21
18.89680569306099
 31
0.0
  0
ARC
  5
BC
330
70
100
AcDbEntity
  8
bakeneko-65-plate v4_VISIBLE
100
AcDbCircle
 10
22.12372735875111
 20
18.29180569306099
 30
0.0
 40
0.0500000000000007
100
AcDbArc
 50
90.0
 51
180.0
  0
LINE
  5
BD
330
70
100
AcDbEntity
  8
bakeneko-65-plate v4_VISIBLE
100
AcDbLine
 10
12.1224773587511
 20
16.94180569306099
 30
0.0
 11
13.42247735875111
 21
16.94180569306099
 31
0.0
  0
LINE
  5
BE
330
70
100
AcDbEntity
  8
bakeneko-65-plate v4_VISIBLE
100
AcDbLine
 10
18.31372735875111
 20
18.34180569306099
 30
0.0
 11
19.61372735875111
 21
18.34180569306099
 31
0.0
  0
LINE
  5
BF
330
70
100
AcDbEntity
  8
bakeneko-65-plate v4_VISIBLE
100
AcDbLine
 10
13.47247735875111
 20
18.29180569306099
 30
0.0
 11
13.47247735875111
 21
16.99180569306099
 31
0.0
  0
LINE
  5
C0
330
70
100
AcDbEntity
  8
bakeneko-65-plate v4_VISIBLE
100
AcDbLine
 10
16.4087273587511
 20
18.34180569306099
 30
0.0
 11
17.7087273587511
 21
18.34180569306099
 31
0.0
  0
LINE
  5
C1
330
70
100
AcDbEntity
  8
bakeneko-65-plate v4_VISIBLE
100
AcDbLine
 10
24.9812273587511
 20
20.24680569306099
 30
0.0
 11
26.28122735875111
 21
20.24680569306099
 31
0.0
  0
ARC
  5
C2
330
70
100
AcDbEntity
  8
bakeneko-65-plate v4_VISIBLE
100
AcDbCircle
 10
22.4712273587511
 20
18.89680569306099
 30
0.0
 40
0.0500000000000007
100
AcDbArc
 50
270.0
 51
0.0
  0
ARC
  5
C3
330
70
100
AcDbEntity
  8
bakeneko-65-plate v4_VISIBLE
100
AcDbCircle
 10
28.7912273587511
 20
18.89680569306099
 30
0.0
 40
0.0500000000000007
100
AcDbArc
 50
180.0
 51
270.0
  0
ARC
  5
C4
330
70
100
AcDbEntity
  8
bakeneko-65-plate v4_VISIBLE
100
AcDbCircle
 10
30.0912273587511
 20
18.89680569306099
 30
0.0
 40
0.0500000000000007
100
AcDbArc
 50
270.0
 51
0.0
  0
ARC
  5
C5
330
70
100
AcDbEntity
  8
bakeneko-65-plate v4_VISIBLE
100
AcDbCircle
 10
28.1862273587511
 20
20.19680569306099
 30
0.0
 40
0.0500000000000007
100
AcDbArc
 50
0.0
 51
90.0
  0
ARC
  5
C6
330
70
100
AcDbEntity
  8
bakeneko-65-plate v4_VISIBLE
100
AcDbCircle
 10
28.7912273587511
 20
20.19680569306099
 30
0.0
 40
0.0500000000000007
100
AcDbArc
 50
90.0
 51
180.0
  0
ARC
  5
C7
330
70
100
AcDbEntity
  8
bakeneko-65-plate v4_VISIBLE
100
AcDbCircle
 10
17.7087273587511
 20
18.29180569306099
 30
0.0
 40
0.0499999999999972
100
AcDbArc
 50
0.0
 51
90.0
  0
LINE
  5
C8
330
70
100
AcDbEntity
  8
bakeneko-65-plate v4_VISIBLE
100
AcDbLine
 10
15.8537273587511
 20
18.29180569306099
 30
0.0
 11
15.8537273587511
 21
16.99180569306099
 31
0.0
  0
LINE
  5
C9
330
70
100
AcDbEntity
  8
bakeneko-65-plate v4_VISIBLE
100
AcDbLine
 10
22.12372735875111
 20
16.94180569306099
 30
0.0
 11
23.42372735875111
 21
16.94180569306099
 31
0.0
  0
LINE
  5
CA
330
70
100
AcDbEntity
  8
bakeneko-65-plate v4_VISIBLE
100
AcDbLine
 10
24.0287273587511
 20
18.34180569306099
 30
0.0
 11
25.3287273587511
 21
18.34180569306099
 31
0.0
  0
ARC
  5
CB
330
70
100
AcDbEntity
  8
bakeneko-65-plate v4_VISIBLE
100
AcDbCircle
 10
41.5212273587511
 20
18.89680569306099
 30
0.0
 40
0.0500000000000007
100
AcDbArc
 50
270.0
 51
0.0
  0
ARC
  5
CC
330
70
100
AcDbEntity
  8
bakeneko-65-plate v4_VISIBLE
100
AcDbCircle
 10
24.37622735875111
 20
20.19680569306099
 30
0.0
 40
0.0500000000000007
100
AcDbArc
 50
0.0
 51
90.0
  0
ARC
  5
CD
330
70
100
AcDbEntity
  8
bakeneko-65-plate v4_VISIBLE
100
AcDbCircle
 10
20.5662273587511
 20
18.89680569306099
 30
0.0
 40
0.0500000000000007
100
AcDbArc
 50
270.0
 51
0.0
  0
ARC
  5
CE
330
70
100
AcDbEntity
  8
bakeneko-65-plate v4_VISIBLE
100
AcDbCircle
 10
32.60122735875111
 20
18.89680569306099
 30
0.0
 40
0.0499999999999972
100
AcDbArc
 50
180.0
 51
270.0
  0
LINE
  5
CF
330
70
100
AcDbEntity
  8
bakeneko-65-plate v4_VISIBLE
100
AcDbLine
 10
32.55122735875112
 20
20.19680569306099
 30
0.0
 11
32.55122735875112
 21
18.89680569306099
 31
0.0
  0
LINE
  5
D0
330
70
100
AcDbEntity
  8
bakeneko-65-plate v4_VISIBLE
100
AcDbLine
 10
35.85622735875111
 20
20.19680569306099
 30
0.0
 11
35.85622735875111
 21
18.89680569306099
 31
0.0
  0
LINE
  5
D1
330
70
100
AcDbEntity
  8
bakeneko-65-plate v4_VISIBLE
100
AcDbLine
 10
28.7912273587511
 20
18.84680569306099
 30
0.0
 11
30.0912273587511
 21
18.84680569306099
 31
0.0
  0
LINE
  5
D2
330
70
100
AcDbEntity
  8
bakeneko-65-plate v4_VISIBLE
100
AcDbLine
 10
26.8362273587511
 20
20.19680569306099
 30
0.0
 11
26.8362273587511
 21
18.89680569306099
 31
0.0
  0
ARC
  5
D3
330
70
100
AcDbEntity
  8
bakeneko-65-plate v4_VISIBLE
100
AcDbCircle
 10
24.9812273587511
 20
18.89680569306099
 30
0.0
 40
0.0500000000000007
100
AcDbArc
 50
180.0
 51
270.0
  0
LINE
  5
D4
330
70
100
AcDbEntity
  8
bakeneko-65-plate v4_VISIBLE
100
AcDbLine
 10
23.07622735875111
 20
20.24680569306099
 30
0.0
 11
24.37622735875111
 21
20.24680569306099
 31
0.0
  0
ARC
  5
D5
330
70
100
AcDbEntity
  8
bakeneko-65-plate v4_VISIBLE
100
AcDbCircle
 10
21.1712273587511
 20
18.89680569306099
 30
0.0
 40
0.0500000000000007
100
AcDbArc
 50
180.0
 51
270.0
  0
LINE
  5
D6
330
70
100
AcDbEntity
  8
bakeneko-65-plate v4_VISIBLE
100
AcDbLine
 10
30.6962273587511
 20
18.84680569306099
 30
0.0
 11
31.9962273587511
 21
18.84680569306099
 31
0.0
  0
ARC
  5
D7
330
70
100
AcDbEntity
  8
bakeneko-65-plate v4_VISIBLE
100
AcDbCircle
 10
30.6962273587511
 20
20.19680569306099
 30
0.0
 40
0.0500000000000007
100
AcDbArc
 50
90.0
 51
180.0
  0
LINE
  5
D8
330
70
100
AcDbEntity
  8
bakeneko-65-plate v4_VISIBLE
100
AcDbLine
 10
33.95122735875111
 20
20.19680569306099
 30
0.0
 11
33.95122735875111
 21
18.89680569306099
 31
0.0
  0
ARC
  5
D9
330
70
100
AcDbEntity
  8
bakeneko-65-plate v4_VISIBLE
100
AcDbCircle
 10
32.60122735875111
 20
20.19680569306099
 30
0.0
 40
0.0500000000000007
100
AcDbArc
 50
90.0
 51
180.0
  0
ARC
  5
DA
330
70
100
AcDbEntity
  8
bakeneko-65-plate v4_VISIBLE
100
AcDbCircle
 10
30.0912273587511
 20
20.19680569306099
 30
0.0
 40
0.0500000000000007
100
AcDbArc
 50
0.0
 51
90.0
  0
ARC
  5
DB
330
70
100
AcDbEntity
  8
bakeneko-65-plate v4_VISIBLE
100
AcDbCircle
 10
28.1862273587511
 20
18.89680569306099
 30
0.0
 40
0.0500000000000007
100
AcDbArc
 50
270.0
 51
0.0
  0
ARC
  5
DC
330
70
100
AcDbEntity
  8
bakeneko-65-plate v4_VISIBLE
100
AcDbCircle
 10
33.90122735875112
 20
20.19680569306099
 30
0.0
 40
0.0499999999999972
100
AcDbArc
 50
0.0
 51
90.0
  0
ARC
  5
DD
330
70
100
AcDbEntity
  8
bakeneko-65-plate v4_VISIBLE
100
AcDbCircle
 10
31.9962273587511
 20
18.89680569306099
 30
0.0
 40
0.0500000000000007
100
AcDbArc
 50
270.0
 51
0.0
  0
LINE
  5
DE
330
70
100
AcDbEntity
  8
bakeneko-65-plate v4_VISIBLE
100
AcDbLine
 10
30.6462273587511
 20
20.19680569306099
 30
0.0
 11
30.6462273587511
 21
18.89680569306099
 31
0.0
  0
ARC
  5
DF
330
70
100
AcDbEntity
  8
bakeneko-65-plate v4_VISIBLE
100
AcDbCircle
 10
33.90122735875112
 20
18.89680569306099
 30
0.0
 40
0.0500000000000007
100
AcDbArc
 50
270.0
 51
0.0
  0
ARC
  5
E0
330
70
100
AcDbEntity
  8
bakeneko-65-plate v4_VISIBLE
100
AcDbCircle
 10
31.9962273587511
 20
20.19680569306099
 30
0.0
 40
0.0499999999999972
100
AcDbArc
 50
0.0
 51
90.0
  0
ARC
  5
E1
330
70
100
AcDbEntity
  8
bakeneko-65-plate v4_VISIBLE
100
AcDbCircle
 10
26.8862273587511
 20
18.89680569306099
 30
0.0
 40
0.0500000000000007
100
AcDbArc
 50
180.0
 51
270.0
  0
LINE
  5
E2
330
70
100
AcDbEntity
  8
bakeneko-65-plate v4_VISIBLE
100
AcDbLine
 10
34.50622735875111
 20
20.24680569306099
 30
0.0
 11
35.80622735875112
 21
20.24680569306099
 31
0.0
  0
ARC
  5
E3
330
70
100
AcDbEntity
  8
bakeneko-65-plate v4_VISIBLE
100
AcDbCircle
 10
34.50622735875111
 20
20.19680569306099
 30
0.0
 40
0.0500000000000007
100
AcDbArc
 50
90.0
 51
180.0
  0
ARC
  5
E4
330
70
100
AcDbEntity
  8
bakeneko-65-plate v4_VISIBLE
100
AcDbCircle
 10
30.6962273587511
 20
18.89680569306099
 30
0.0
 40
0.0500000000000007
100
AcDbArc
 50
180.0
 51
270.0
  0
ARC
  5
E5
330
70
100
AcDbEntity
  8
bakeneko-65-plate v4_VISIBLE
100
AcDbCircle
 10
21.1712273587511
 20
20.19680569306099
 30
0.0
 40
0.0500000000000007
100
AcDbArc
 50
90.0
 51
180.0
  0
LINE
  5
E6
330
70
100
AcDbEntity
  8
bakeneko-65-plate v4_VISIBLE
100
AcDbLine
 10
22.5212273587511
 20
20.19680569306099
 30
0.0
 11
22.5212273587511
 21
18.89680569306099
 31
0.0
  0
LINE
  5
E7
330
70
100
AcDbEntity
  8
bakeneko-65-plate v4_VISIBLE
100
AcDbLine
 10
28.7912273587511
 20
20.24680569306099
 30
0.0
 11
30.0912273587511
 21
20.24680569306099
 31
0.0
  0
LINE
  5
E8
330
70
100
AcDbEntity
  8
bakeneko-65-plate v4_VISIBLE
100
AcDbLine
 10
32.0462273587511
 20
20.19680569306099
 30
0.0
 11
32.0462273587511
 21
18.89680569306099
 31
0.0
  0
LINE
  5
E9
330
70
100
AcDbEntity
  8
bakeneko-65-plate v4_VISIBLE
100
AcDbLine
 10
24.9312273587511
 20
20.19680569306099
 30
0.0
 11
24.9312273587511
 21
18.89680569306099
 31
0.0
  0
LINE
  5
EA
330
70
100
AcDbEntity
  8
bakeneko-65-plate v4_VISIBLE
100
AcDbLine
 10
19.2662273587511
 20
18.84680569306099
 30
0.0
 11
20.5662273587511
 21
18.84680569306099
 31
0.0
  0
ARC
  5
EB
330
70
100
AcDbEntity
  8
bakeneko-65-plate v4_VISIBLE
100
AcDbCircle
 10
19.2662273587511
 20
18.89680569306099
 30
0.0
 40
0.0500000000000007
100
AcDbArc
 50
180.0
 51
270.0
  0
LINE
  5
EC
330
70
100
AcDbEntity
  8
bakeneko-65-plate v4_VISIBLE
100
AcDbLine
 10
24.42622735875111
 20
20.19680569306099
 30
0.0
 11
24.42622735875111
 21
18.89680569306099
 31
0.0
  0
LINE
  5
ED
330
70
100
AcDbEntity
  8
bakeneko-65-plate v4_VISIBLE
100
AcDbLine
 10
32.60122735875111
 20
20.24680569306099
 30
0.0
 11
33.90122735875112
 21
20.24680569306099
 31
0.0
  0
ARC
  5
EE
330
70
100
AcDbEntity
  8
bakeneko-65-plate v4_VISIBLE
100
AcDbCircle
 10
22.4712273587511
 20
20.19680569306099
 30
0.0
 40
0.0500000000000007
100
AcDbArc
 50
0.0
 51
90.0
  0
LINE
  5
EF
330
70
100
AcDbEntity
  8
bakeneko-65-plate v4_VISIBLE
100
AcDbLine
 10
23.02622735875111
 20
20.19680569306099
 30
0.0
 11
23.02622735875111
 21
18.89680569306099
 31
0.0
  0
LINE
  5
F0
330
70
100
AcDbEntity
  8
bakeneko-65-plate v4_VISIBLE
100
AcDbLine
 10
28.2362273587511
 20
20.19680569306099
 30
0.0
 11
28.2362273587511
 21
18.89680569306099
 31
0.0
  0
LINE
  5
F1
330
70
100
AcDbEntity
  8
bakeneko-65-plate v4_VISIBLE
100
AcDbLine
 10
21.1212273587511
 20
20.19680569306099
 30
0.0
 11
21.1212273587511
 21
18.89680569306099
 31
0.0
  0
ARC
  5
F2
330
70
100
AcDbEntity
  8
bakeneko-65-plate v4_VISIBLE
100
AcDbCircle
 10
35.80622735875112
 20
20.19680569306099
 30
0.0
 40
0.0499999999999972
100
AcDbArc
 50
0.0
 51
90.0
  0
LINE
  5
F3
330
70
100
AcDbEntity
  8
bakeneko-65-plate v4_VISIBLE
100
AcDbLine
 10
26.8862273587511
 20
18.84680569306099
 30
0.0
 11
28.1862273587511
 21
18.84680569306099
 31
0.0
  0
LINE
  5
F4
330
70
100
AcDbEntity
  8
bakeneko-65-plate v4_VISIBLE
100
AcDbLine
 10
26.8862273587511
 20
20.24680569306099
 30
0.0
 11
28.1862273587511
 21
20.24680569306099
 31
0.0
  0
LINE
  5
F5
330
70
100
AcDbEntity
  8
bakeneko-65-plate v4_VISIBLE
100
AcDbLine
 10
28.7412273587511
 20
20.19680569306099
 30
0.0
 11
28.7412273587511
 21
18.89680569306099
 31
0.0
  0
LINE
  5
F6
330
70
100
AcDbEntity
  8
bakeneko-65-plate v4_VISIBLE
100
AcDbLine
 10
23.07622735875111
 20
18.84680569306099
 30
0.0
 11
24.37622735875111
 21
18.84680569306099
 31
0.0
  0
LINE
  5
F7
330
70
100
AcDbEntity
  8
bakeneko-65-plate v4_VISIBLE
100
AcDbLine
 10
19.2162273587511
 20
20.19680569306099
 30
0.0
 11
19.2162273587511
 21
18.89680569306099
 31
0.0
  0
LINE
  5
F8
330
70
100
AcDbEntity
  8
bakeneko-65-plate v4_VISIBLE
100
AcDbLine
 10
26.33122735875112
 20
20.19680569306099
 30
0.0
 11
26.33122735875112
 21
18.89680569306099
 31
0.0
  0
ARC
  5
F9
330
70
100
AcDbEntity
  8
bakeneko-65-plate v4_VISIBLE
100
AcDbCircle
 10
26.28122735875111
 20
20.19680569306099
 30
0.0
 40
0.0500000000000007
100
AcDbArc
 50
0.0
 51
90.0
  0
LINE
  5
FA
330
70
100
AcDbEntity
  8
bakeneko-65-plate v4_VISIBLE
100
AcDbLine
 10
30.1412273587511
 20
20.19680569306099
 30
0.0
 11
30.1412273587511
 21
18.89680569306099
 31
0.0
  0
LINE
  5
FB
330
70
100
AcDbEntity
  8
bakeneko-65-plate v4_VISIBLE
100
AcDbLine
 10
32.60122735875111
 20
18.84680569306099
 30
0.0
 11
33.90122735875112
 21
18.84680569306099
 31
0.0
  0
LINE
  5
FC
330
70
100
AcDbEntity
  8
bakeneko-65-plate v4_VISIBLE
100
AcDbLine
 10
30.6962273587511
 20
20.24680569306099
 30
0.0
 11
31.9962273587511
 21
20.24680569306099
 31
0.0
  0
LINE
  5
FD
330
70
100
AcDbEntity
  8
bakeneko-65-plate v4_VISIBLE
100
AcDbLine
 10
20.6162273587511
 20
20.19680569306099
 30
0.0
 11
20.6162273587511
 21
18.89680569306099
 31
0.0
  0
LINE
  5
FE
330
70
100
AcDbEntity
  8
bakeneko-65-plate v4_VISIBLE
100
AcDbLine
 10
17.3112273587511
 20
20.19680569306099
 30
0.0
 11
17.3112273587511
 21
18.89680569306099
 31
0.0
  0
ARC
  5
FF
330
70
100
AcDbEntity
  8
bakeneko-65-plate v4_VISIBLE
100
AcDbCircle
 10
19.2662273587511
 20
20.19680569306099
 30
0.0
 40
0.0500000000000007
100
AcDbArc
 50
90.0
 51
180.0
  0
LINE
  5
100
330
70
100
AcDbEntity
  8
bakeneko-65-plate v4_VISIBLE
100
AcDbLine
 10
13.55122735875111
 20
20.24680569306099
 30
0.0
 11
14.85122735875111
 21
20.24680569306099
 31
0.0
  0
LINE
  5
101
330
70
100
AcDbEntity
  8
bakeneko-65-plate v4_VISIBLE
100
AcDbLine
 10
15.4562273587511
 20
18.84680569306099
 30
0.0
 11
16.7562273587511
 21
18.84680569306099
 31
0.0
  0
ARC
  5
102
330
70
100
AcDbEntity
  8
bakeneko-65-plate v4_VISIBLE
100
AcDbCircle
 10
16.7562273587511
 20
18.89680569306099
 30
0.0
 40
0.0500000000000007
100
AcDbArc
 50
270.0
 51
0.0
  0
ARC
  5
103
330
70
100
AcDbEntity
  8
bakeneko-65-plate v4_VISIBLE
100
AcDbCircle
 10
14.85122735875111
 20
20.19680569306099
 30
0.0
 40
0.0500000000000007
100
AcDbArc
 50
0.0
 51
90.0
  0
LINE
  5
104
330
70
100
AcDbEntity
  8
bakeneko-65-plate v4_VISIBLE
100
AcDbLine
 10
11.5962273587511
 20
20.19680569306099
 30
0.0
 11
11.5962273587511
 21
18.89680569306099
 31
0.0
  0
ARC
  5
105
330
70
100
AcDbEntity
  8
bakeneko-65-plate v4_VISIBLE
100
AcDbCircle
 10
15.4562273587511
 20
20.19680569306099
 30
0.0
 40
0.0500000000000007
100
AcDbArc
 50
90.0
 51
180.0
  0
ARC
  5
106
330
70
100
AcDbEntity
  8
bakeneko-65-plate v4_VISIBLE
100
AcDbCircle
 10
26.8862273587511
 20
20.19680569306099
 30
0.0
 40
0.0500000000000007
100
AcDbArc
 50
90.0
 51
180.0
  0
ARC
  5
107
330
70
100
AcDbEntity
  8
bakeneko-65-plate v4_VISIBLE
100
AcDbCircle
 10
11.6462273587511
 20
18.89680569306099
 30
0.0
 40
0.0500000000000007
100
AcDbArc
 50
180.0
 51
270.0
  0
ARC
  5
108
330
70
100
AcDbEntity
  8
bakeneko-65-plate v4_VISIBLE
100
AcDbCircle
 10
24.37622735875111
 20
18.89680569306099
 30
0.0
 40
0.0500000000000007
100
AcDbArc
 50
270.0
 51
0.0
  0
LINE
  5
109
330
70
100
AcDbEntity
  8
bakeneko-65-plate v4_VISIBLE
100
AcDbLine
 10
21.1712273587511
 20
20.24680569306099
 30
0.0
 11
22.4712273587511
 21
20.24680569306099
 31
0.0
  0
ARC
  5
10A
330
70
100
AcDbEntity
  8
bakeneko-65-plate v4_VISIBLE
100
AcDbCircle
 10
13.55122735875111
 20
20.19680569306099
 30
0.0
 40
0.0500000000000007
100
AcDbArc
 50
90.0
 51
180.0
  0
LINE
  5
10B
330
70
100
AcDbEntity
  8
bakeneko-65-plate v4_VISIBLE
100
AcDbLine
 10
17.36122735875111
 20
18.84680569306099
 30
0.0
 11
18.6612273587511
 21
18.84680569306099
 31
0.0
  0
ARC
  5
10C
330
70
100
AcDbEntity
  8
bakeneko-65-plate v4_VISIBLE
100
AcDbCircle
 10
13.55122735875111
 20
18.89680569306099
 30
0.0
 40
0.0500000000000007
100
AcDbArc
 50
180.0
 51
270.0
  0
ARC
  5
10D
330
70
100
AcDbEntity
  8
bakeneko-65-plate v4_VISIBLE
100
AcDbCircle
 10
14.85122735875111
 20
18.89680569306099
 30
0.0
 40
0.0500000000000007
100
AcDbArc
 50
270.0
 51
0.0
  0
ARC
  5
10E
330
70
100
AcDbEntity
  8
bakeneko-65-plate v4_VISIBLE
100
AcDbCircle
 10
17.36122735875111
 20
18.89680569306099
 30
0.0
 40
0.0500000000000007
100
AcDbArc
 50
180.0
 51
270.0
  0
LINE
  5
10F
330
70
100
AcDbEntity
  8
bakeneko-65-plate v4_VISIBLE
100
AcDbLine
 10
13.55122735875111
 20
18.84680569306099
 30
0.0
 11
14.85122735875111
 21
18.84680569306099
 31
0.0
  0
ARC
  5
110
330
70
100
AcDbEntity
  8
bakeneko-65-plate v4_VISIBLE
100
AcDbCircle
 10
18.6612273587511
 20
18.89680569306099
 30
0.0
 40
0.0500000000000007
100
AcDbArc
 50
270.0
 51
0.0
  0
LINE
  5
111
330
70
100
AcDbEntity
  8
bakeneko-65-plate v4_VISIBLE
100
AcDbLine
 10
11.6462273587511
 20
18.84680569306099
 30
0.0
 11
12.9462273587511
 21
18.84680569306099
 31
0.0
  0
ARC
  5
112
330
70
100
AcDbEntity
  8
bakeneko-65-plate v4_VISIBLE
100
AcDbCircle
 10
23.07622735875111
 20
20.19680569306099
 30
0.0
 40
0.0500000000000007
100
AcDbArc
 50
90.0
 51
180.0
  0
ARC
  5
113
330
70
100
AcDbEntity
  8
bakeneko-65-plate v4_VISIBLE
100
AcDbCircle
 10
17.36122735875111
 20
20.19680569306099
 30
0.0
 40
0.0500000000000007
100
AcDbArc
 50
90.0
 51
180.0
  0
ARC
  5
114
330
70
100
AcDbEntity
  8
bakeneko-65-plate v4_VISIBLE
100
AcDbCircle
 10
16.7562273587511
 20
20.19680569306099
 30
0.0
 40
0.0500000000000007
100
AcDbArc
 50
0.0
 51
90.0
  0
ARC
  5
115
330
70
100
AcDbEntity
  8
bakeneko-65-plate v4_VISIBLE
100
AcDbCircle
 10
12.9462273587511
 20
18.89680569306099
 30
0.0
 40
0.0500000000000007
100
AcDbArc
 50
270.0
 51
0.0
  0
LINE
  5
116
330
70
100
AcDbEntity
  8
bakeneko-65-plate v4_VISIBLE
100
AcDbLine
 10
16.8062273587511
 20
20.19680569306099
 30
0.0
 11
16.8062273587511
 21
18.89680569306099
 31
0.0
  0
LINE
  5
117
330
70
100
AcDbEntity
  8
bakeneko-65-plate v4_VISIBLE
100
AcDbLine
 10
17.36122735875111
 20
20.24680569306099
 30
0.0
 11
18.6612273587511
 21
20.24680569306099
 31
0.0
  0
LINE
  5
118
330
70
100
AcDbEntity
  8
bakeneko-65-plate v4_VISIBLE
100
AcDbLine
 10
15.4062273587511
 20
20.19680569306099
 30
0.0
 11
15.4062273587511
 21
18.89680569306099
 31
0.0
  0
ARC
  5
119
330
70
100
AcDbEntity
  8
bakeneko-65-plate v4_VISIBLE
100
AcDbCircle
 10
18.6612273587511
 20
20.19680569306099
 30
0.0
 40
0.0500000000000007
100
AcDbArc
 50
0.0
 51
90.0
  0
LINE
  5
11A
330
70
100
AcDbEntity
  8
bakeneko-65-plate v4_VISIBLE
100
AcDbLine
 10
24.9812273587511
 20
18.84680569306099
 30
0.0
 11
26.28122735875111
 21
18.84680569306099
 31
0.0
  0
ARC
  5
11B
330
70
100
AcDbEntity
  8
bakeneko-65-plate v4_VISIBLE
100
AcDbCircle
 10
20.5662273587511
 20
20.19680569306099
 30
0.0
 40
0.0500000000000007
100
AcDbArc
 50
0.0
 51
90.0
  0
ARC
  5
11C
330
70
100
AcDbEntity
  8
bakeneko-65-plate v4_VISIBLE
100
AcDbCircle
 10
23.07622735875111
 20
18.89680569306099
 30
0.0
 40
0.0500000000000007
100
AcDbArc
 50
180.0
 51
270.0
  0
LINE
  5
11D
330
70
100
AcDbEntity
  8
bakeneko-65-plate v4_VISIBLE
100
AcDbLine
 10
15.4562273587511
 20
20.24680569306099
 30
0.0
 11
16.7562273587511
 21
20.24680569306099
 31
0.0
  0
LINE
  5
11E
330
70
100
AcDbEntity
  8
bakeneko-65-plate v4_VISIBLE
100
AcDbLine
 10
19.2662273587511
 20
20.24680569306099
 30
0.0
 11
20.5662273587511
 21
20.24680569306099
 31
0.0
  0
LINE
  5
11F
330
70
100
AcDbEntity
  8
bakeneko-65-plate v4_VISIBLE
100
AcDbLine
 10
13.50122735875111
 20
20.19680569306099
 30
0.0
 11
13.50122735875111
 21
18.89680569306099
 31
0.0
  0
LINE
  5
120
330
70
100
AcDbEntity
  8
bakeneko-65-plate v4_VISIBLE
100
AcDbLine
 10
21.1712273587511
 20
18.84680569306099
 30
0.0
 11
22.4712273587511
 21
18.84680569306099
 31
0.0
  0
LINE
  5
121
330
70
100
AcDbEntity
  8
bakeneko-65-plate v4_VISIBLE
100
AcDbLine
 10
16.2037273587511
 20
20.49930569306099
 30
0.0
 11
31.26372735875112
 21
20.49930569306099
 31
0.0
  0
LINE
  5
122
330
70
100
AcDbEntity
  8
bakeneko-65-plate v4_VISIBLE
100
AcDbLine
 10
18.7112273587511
 20
20.19680569306099
 30
0.0
 11
18.7112273587511
 21
18.89680569306099
 31
0.0
  0
LINE
  5
123
330
70
100
AcDbEntity
  8
bakeneko-65-plate v4_VISIBLE
100
AcDbLine
 10
33.36372735875112
 20
20.49930569306099
 30
0.0
 11
36.01992735875112
 21
20.49930569306099
 31
0.0
  0
ARC
  5
124
330
70
100
AcDbEntity
  8
bakeneko-65-plate v4_VISIBLE
100
AcDbCircle
 10
15.4562273587511
 20
18.89680569306099
 30
0.0
 40
0.0500000000000007
100
AcDbArc
 50
180.0
 51
270.0
  0
ARC
  5
125
330
70
100
AcDbEntity
  8
bakeneko-65-plate v4_VISIBLE
100
AcDbCircle
 10
12.9462273587511
 20
20.19680569306099
 30
0.0
 40
0.0500000000000007
100
AcDbArc
 50
0.0
 51
90.0
  0
ARC
  5
126
330
70
100
AcDbEntity
  8
bakeneko-65-plate v4_VISIBLE
100
AcDbCircle
 10
11.6462273587511
 20
20.19680569306099
 30
0.0
 40
0.0500000000000007
100
AcDbArc
 50
90.0
 51
180.0
  0
LINE
  5
127
330
70
100
AcDbEntity
  8
bakeneko-65-plate v4_VISIBLE
100
AcDbLine
 10
12.9962273587511
 20
20.19680569306099
 30
0.0
 11
12.9962273587511
 21
18.89680569306099
 31
0.0
  0
LINE
  5
128
330
70
100
AcDbEntity
  8
bakeneko-65-plate v4_VISIBLE
100
AcDbLine
 10
11.6462273587511
 20
20.24680569306099
 30
0.0
 11
12.9462273587511
 21
20.24680569306099
 31
0.0
  0
ARC
  5
129
330
70
100
AcDbEntity
  8
bakeneko-65-plate v4_VISIBLE
100
AcDbCircle
 10
26.28122735875111
 20
18.89680569306099
 30
0.0
 40
0.0500000000000007
100
AcDbArc
 50
270.0
 51
0.0
  0
ARC
  5
12A
330
70
100
AcDbEntity
  8
bakeneko-65-plate v4_VISIBLE
100
AcDbCircle
 10
24.9812273587511
 20
20.19680569306099
 30
0.0
 40
0.0500000000000007
100
AcDbArc
 50
90.0
 51
180.0
  0
ARC
  5
12B
330
70
100
AcDbEntity
  8
bakeneko-65-plate v4_VISIBLE
100
AcDbCircle
 10
33.36372735875112
 20
20.44930569306099
 30
0.0
 40
0.0499999999999972
100
AcDbArc
 50
90.0
 51
180.0
  0
ARC
  5
12C
330
70
100
AcDbEntity
  8
bakeneko-65-plate v4_VISIBLE
100
AcDbCircle
 10
33.06372735875111
 20
20.42430569306099
 30
0.0
 40
0.0499999999999972
100
AcDbArc
 50
180.0
 51
270.0
  0
ARC
  5
12D
330
70
100
AcDbEntity
  8
bakeneko-65-plate v4_VISIBLE
100
AcDbCircle
 10
33.26372735875111
 20
20.42430569306099
 30
0.0
 40
0.0500000000000007
100
AcDbArc
 50
270.0
 51
0.0
  0
ARC
  5
12E
330
70
100
AcDbEntity
  8
bakeneko-65-plate v4_VISIBLE
100
AcDbCircle
 10
36.3337273587511
 20
11.19930569306099
 30
0.0
 40
0.2250000000000014
100
AcDbArc
 50
180.0
 51
270.0
  0
ARC
  5
12F
330
70
100
AcDbEntity
  8
bakeneko-65-plate v4_VISIBLE
100
AcDbCircle
 10
35.28122735875112
 20
12.75430569306099
 30
0.0
 40
0.125
100
AcDbArc
 50
90.0
 51
180.0
  0
ARC
  5
130
330
70
100
AcDbEntity
  8
bakeneko-65-plate v4_VISIBLE
100
AcDbCircle
 10
35.9837273587511
 20
12.75430569306099
 30
0.0
 40
0.125
100
AcDbArc
 50
0.0
 51
90.0
  0
LINE
  5
131
330
70
100
AcDbEntity
  8
bakeneko-65-plate v4_VISIBLE
100
AcDbLine
 10
11.3437273587511
 20
20.27430569306099
 30
0.0
 11
11.3437273587511
 21
11.19930569306099
 31
0.0
  0
ARC
  5
132
330
70
100
AcDbEntity
  8
bakeneko-65-plate v4_VISIBLE
100
AcDbCircle
 10
32.96372735875112
 20
20.42430569306099
 30
0.0
 40
0.0499999999999972
100
AcDbArc
 50
0.0
 51
90.0
  0
LINE
  5
133
330
70
100
AcDbEntity
  8
bakeneko-65-plate v4_VISIBLE
100
AcDbLine
 10
14.1537273587511
 20
20.44930569306099
 30
0.0
 11
14.1537273587511
 21
20.42430569306099
 31
0.0
  0
ARC
  5
134
330
70
100
AcDbEntity
  8
bakeneko-65-plate v4_VISIBLE
100
AcDbCircle
 10
14.2037273587511
 20
20.42430569306099
 30
0.0
 40
0.0500000000000007
100
AcDbArc
 50
180.0
 51
270.0
  0
LINE
  5
135
330
70
100
AcDbEntity
  8
bakeneko-65-plate v4_VISIBLE
100
AcDbLine
 10
36.10872735875111
 20
12.75430569306099
 30
0.0
 11
36.10872735875111
 21
11.19930569306099
 31
0.0
  0
LINE
  5
136
330
70
100
AcDbEntity
  8
bakeneko-65-plate v4_VISIBLE
100
AcDbLine
 10
14.90122735875111
 20
20.19680569306099
 30
0.0
 11
14.90122735875111
 21
18.89680569306099
 31
0.0
  0
ARC
  5
137
330
70
100
AcDbEntity
  8
bakeneko-65-plate v4_VISIBLE
100
AcDbCircle
 10
36.01992735875112
 20
20.44930569306099
 30
0.0
 40
0.0499999999999972
100
AcDbArc
 50
359.9999999999919
 51
90.0
  0
LINE
  5
138
330
70
100
AcDbEntity
  8
bakeneko-65-plate v4_VISIBLE
100
AcDbLine
 10
36.11992735875111
 20
20.32180569306099
 30
0.0
 11
36.31122735875111
 21
20.32180569306099
 31
0.0
  0
ARC
  5
139
330
70
100
AcDbEntity
  8
bakeneko-65-plate v4_VISIBLE
100
AcDbCircle
 10
36.11992735875111
 20
20.37180569306099
 30
0.0
 40
0.0499999999999972
100
AcDbArc
 50
180.0
 51
270.0
  0
LINE
  5
13A
330
70
100
AcDbEntity
  8
bakeneko-65-plate v4_VISIBLE
100
AcDbLine
 10
31.66372735875111
 20
20.47430569306099
 30
0.0
 11
32.96372735875112
 21
20.47430569306099
 31
0.0
  0
LINE
  5
13B
330
70
100
AcDbEntity
  8
bakeneko-65-plate v4_VISIBLE
100
AcDbLine
 10
30.20000045001507
 20
11.10180569306099
 30
0.0
 11
30.20000045001507
 21
11.02430569306099
 31
0.0
  0
ARC
  5
13C
330
70
100
AcDbEntity
  8
bakeneko-65-plate v4_VISIBLE
100
AcDbCircle
 10
31.66372735875111
 20
20.42430569306099
 30
0.0
 40
0.0500000000000007
100
AcDbArc
 50
90.0
 51
180.0
  0
LINE
  5
13D
330
70
100
AcDbEntity
  8
bakeneko-65-plate v4_VISIBLE
100
AcDbLine
 10
36.06992735875112
 20
20.44930569306099
 30
0.0
 11
36.06992735875112
 21
20.37180569306099
 31
0.0
  0
ARC
  5
13E
330
70
100
AcDbEntity
  8
bakeneko-65-plate v4_VISIBLE
100
AcDbCircle
 10
40.00752735875109
 20
20.44997913927211
 30
0.0
 40
0.0499999999999935
100
AcDbArc
 50
89.97575045253922
 51
180.0000000000081
  0
LINE
  5
13F
330
70
100
AcDbEntity
  8
bakeneko-65-plate v4_VISIBLE
100
AcDbLine
 10
31.36372735875112
 20
20.37430569306099
 30
0.0
 11
31.56372735875111
 21
20.37430569306099
 31
0.0
  0
LINE
  5
140
330
70
100
AcDbEntity
  8
bakeneko-65-plate v4_VISIBLE
100
AcDbLine
 10
40.00754852047272
 20
20.49997913479391
 30
0.0
 11
41.5987273587511
 21
20.49930569306099
 31
0.0
  0
LINE
  5
141
330
70
100
AcDbEntity
  8
bakeneko-65-plate v4_VISIBLE
100
AcDbLine
 10
39.9575273587511
 20
20.37180569306112
 30
0.0
 11
39.9575273587511
 21
20.4499791392721
 31
0.0
  0
LINE
  5
142
330
70
100
AcDbEntity
  8
bakeneko-65-plate v4_VISIBLE
100
AcDbLine
 10
28.69060235875112
 20
11.10180569306099
 30
0.0
 11
28.69060235875112
 21
11.02430569306099
 31
0.0
  0
ARC
  5
143
330
70
100
AcDbEntity
  8
bakeneko-65-plate v4_VISIBLE
100
AcDbCircle
 10
28.74060235875111
 20
11.10180569306099
 30
0.0
 40
0.0499999999999989
100
AcDbArc
 50
89.99999999999593
 51
180.0
  0
ARC
  5
144
330
70
100
AcDbEntity
  8
bakeneko-65-plate v4_VISIBLE
100
AcDbCircle
 10
30.25000045001507
 20
11.02430569306099
 30
0.0
 40
0.0500000000000007
100
AcDbArc
 50
180.0
 51
270.0
  0
LINE
  5
145
330
70
100
AcDbEntity
  8
bakeneko-65-plate v4_VISIBLE
100
AcDbLine
 10
30.15000045001507
 20
11.15180569306099
 30
0.0
 11
28.74060235875112
 21
11.15180569306099
 31
0.0
  0
ARC
  5
146
330
70
100
AcDbEntity
  8
bakeneko-65-plate v4_VISIBLE
100
AcDbCircle
 10
30.15000045001507
 20
11.10180569306099
 30
0.0
 40
0.0500000000000007
100
AcDbArc
 50
0.0
 51
90.0
  0
LINE
  5
147
330
70
100
AcDbEntity
  8
bakeneko-65-plate v4_VISIBLE
100
AcDbLine
 10
20.7162273587511
 20
10.97430569306099
 30
0.0
 11
26.80000039935112
 21
10.97430569306099
 31
0.0
  0
LINE
  5
148
330
70
100
AcDbEntity
  8
bakeneko-65-plate v4_VISIBLE
100
AcDbLine
 10
18.6906023587511
 20
11.10180569306099
 30
0.0
 11
18.6906023587511
 21
11.02430569306099
 31
0.0
  0
LINE
  5
149
330
70
100
AcDbEntity
  8
bakeneko-65-plate v4_VISIBLE
100
AcDbLine
 10
20.6662273587511
 20
11.10180569306099
 30
0.0
 11
20.6662273587511
 21
11.02430569306099
 31
0.0
  0
LINE
  5
14A
330
70
100
AcDbEntity
  8
bakeneko-65-plate v4_VISIBLE
100
AcDbLine
 10
28.64060235875112
 20
10.97430569306099
 30
0.0
 11
26.80000039935112
 21
10.97430569306099
 31
0.0
  0
ARC
  5
14B
330
70
100
AcDbEntity
  8
bakeneko-65-plate v4_VISIBLE
100
AcDbCircle
 10
28.64060235875112
 20
11.02430569306099
 30
0.0
 40
0.0500000000000007
100
AcDbArc
 50
270.0
 51
0.0
  0
ARC
  5
14C
330
70
100
AcDbEntity
  8
bakeneko-65-plate v4_VISIBLE
100
AcDbCircle
 10
20.7162273587511
 20
11.02430569306099
 30
0.0
 40
0.0500000000000007
100
AcDbArc
 50
180.000000000002
 51
270.0
  0
LINE
  5
14D
330
70
100
AcDbEntity
  8
bakeneko-65-plate v4_VISIBLE
100
AcDbLine
 10
30.5962273587511
 20
11.10180569306099
 30
0.0
 11
30.5962273587511
 21
11.02430569306099
 31
0.0
  0
ARC
  5
14E
330
70
100
AcDbEntity
  8
bakeneko-65-plate v4_VISIBLE
100
AcDbCircle
 10
32.14622735875109
 20
11.02430569306098
 30
0.0
 40
0.0499999999999972
100
AcDbArc
 50
179.9999999999918
 51
270.0
  0
ARC
  5
14F
330
70
100
AcDbEntity
  8
bakeneko-65-plate v4_VISIBLE
100
AcDbCircle
 10
18.7406023587511
 20
11.10180569306099
 30
0.0
 40
0.0500000000000033
100
AcDbArc
 50
89.99525571150774
 51
180.0
  0
ARC
  5
150
330
70
100
AcDbEntity
  8
bakeneko-65-plate v4_VISIBLE
100
AcDbCircle
 10
20.6162273587511
 20
11.10180569306099
 30
0.0
 40
0.0500000000000007
100
AcDbArc
 50
0.0
 51
90.00000000520694
  0
LINE
  5
151
330
70
100
AcDbEntity
  8
bakeneko-65-plate v4_VISIBLE
100
AcDbLine
 10
34.93122735875112
 20
10.97430569306099
 30
0.0
 11
32.14622735875109
 21
10.97430569306099
 31
0.0
  0
ARC
  5
152
330
70
100
AcDbEntity
  8
bakeneko-65-plate v4_VISIBLE
100
AcDbCircle
 10
18.6406023587511
 20
11.02430569306099
 30
0.0
 40
0.0500000000000007
100
AcDbArc
 50
270.0
 51
0.0
  0
LINE
  5
153
330
70
100
AcDbEntity
  8
bakeneko-65-plate v4_VISIBLE
100
AcDbLine
 10
11.5687273587511
 20
10.97430569306099
 30
0.0
 11
18.6406023587511
 21
10.97430569306099
 31
0.0
  0
LINE
  5
154
330
70
100
AcDbEntity
  8
bakeneko-65-plate v4_VISIBLE
100
AcDbLine
 10
32.0962273587511
 20
11.10180569306099
 30
0.0
 11
32.0962273587511
 21
11.02430569306099
 31
0.0
  0
ARC
  5
155
330
70
100
AcDbEntity
  8
bakeneko-65-plate v4_VISIBLE
100
AcDbCircle
 10
30.5462273587511
 20
11.02430569306099
 30
0.0
 40
0.0500000000000007
100
AcDbArc
 50
270.0
 51
0.0
  0
LINE
  5
156
330
70
100
AcDbEntity
  8
bakeneko-65-plate v4_VISIBLE
100
AcDbLine
 10
30.6462273587511
 20
11.15180569306099
 30
0.0
 11
32.0462273587511
 21
11.15180569306099
 31
0.0
  0
ARC
  5
157
330
70
100
AcDbEntity
  8
bakeneko-65-plate v4_VISIBLE
100
AcDbCircle
 10
30.6462273587511
 20
11.10180569306099
 30
0.0
 40
0.0499999999999972
100
AcDbArc
 50
89.99999999999593
 51
180.000000000004
  0
LINE
  5
158
330
70
100
AcDbEntity
  8
bakeneko-65-plate v4_VISIBLE
100
AcDbLine
 10
18.74060649892384
 20
11.15180569288958
 30
0.0
 11
20.61622735874655
 21
11.15180569306099
 31
0.0
  0
ARC
  5
159
330
70
100
AcDbEntity
  8
bakeneko-65-plate v4_VISIBLE
100
AcDbCircle
 10
30.93435235875111
 20
11.27680569306099
 30
0.0
 40
0.0499999999999972
100
AcDbArc
 50
179.9999999999979
 51
270.0
  0
ARC
  5
15A
330
70
100
AcDbEntity
  8
bakeneko-65-plate v4_VISIBLE
100
AcDbCircle
 10
32.0462273587511
 20
11.101805693061
 30
0.0
 40
0.0499999999999972
100
AcDbArc
 50
359.9999999999919
 51
90.0
  0
ARC
  5
15B
330
70
100
AcDbEntity
  8
bakeneko-65-plate v4_VISIBLE
100
AcDbCircle
 10
36.3112273587511
 20
20.271805693061
 30
0.0
 40
0.0499999999999972
100
AcDbArc
 50
0.0
 51
89.99999999999186
  0
LINE
  5
15C
330
70
100
AcDbEntity
  8
bakeneko-65-plate v4_VISIBLE
100
AcDbLine
 10
32.23435235875112
 20
11.22680569306099
 30
0.0
 11
30.93435235875111
 21
11.22680569306099
 31
0.0
  0
LINE
  5
15D
330
70
100
AcDbEntity
  8
bakeneko-65-plate v4_VISIBLE
100
AcDbLine
 10
39.71622735875105
 20
20.32180569306112
 30
0.0
 11
39.9075273587511
 21
20.32180569306113
 31
0.0
  0
ARC
  5
15E
330
70
100
AcDbEntity
  8
bakeneko-65-plate v4_VISIBLE
100
AcDbCircle
 10
39.9075273587511
 20
20.37180569306112
 30
0.0
 40
0.0499999999999936
100
AcDbArc
 50
270.0
 51
0.0000000000040711
  0
ARC
  5
15F
330
70
100
AcDbEntity
  8
bakeneko-65-plate v4_VISIBLE
100
AcDbCircle
 10
39.71622735875103
 20
20.27180569306113
 30
0.0
 40
0.0499999999999865
100
AcDbArc
 50
89.99999999998371
 51
180.0000000000162
  0
LINE
  5
160
330
70
100
AcDbEntity
  8
bakeneko-65-plate v4_VISIBLE
100
AcDbLine
 10
38.66940235875111
 20
14.83680569306099
 30
0.0
 11
39.2694023587511
 21
14.83680569306099
 31
0.0
  0
LINE
  5
161
330
70
100
AcDbEntity
  8
bakeneko-65-plate v4_VISIBLE
100
AcDbLine
 10
21.09247735875111
 20
14.48180569306099
 30
0.0
 11
21.09247735875111
 21
13.18180569306099
 31
0.0
  0
LINE
  5
162
330
70
100
AcDbEntity
  8
bakeneko-65-plate v4_VISIBLE
100
AcDbLine
 10
14.3306523587511
 20
13.08180569306099
 30
0.0
 11
14.3306523587511
 21
12.98180569306099
 31
0.0
  0
LINE
  5
163
330
70
100
AcDbEntity
  8
bakeneko-65-plate v4_VISIBLE
100
AcDbLine
 10
19.1874773587511
 20
14.48180569306099
 30
0.0
 11
19.1874773587511
 21
13.18180569306099
 31
0.0
  0
LINE
  5
164
330
70
100
AcDbEntity
  8
bakeneko-65-plate v4_VISIBLE
100
AcDbLine
 10
41.5712273587511
 20
16.38680569306099
 30
0.0
 11
41.5712273587511
 21
15.08680569306099
 31
0.0
  0
LINE
  5
165
330
70
100
AcDbEntity
  8
bakeneko-65-plate v4_VISIBLE
100
AcDbLine
 10
14.3806523587511
 20
12.93180569306099
 30
0.0
 11
14.9806523587511
 21
12.93180569306099
 31
0.0
  0
LINE
  5
166
330
70
100
AcDbEntity
  8
bakeneko-65-plate v4_VISIBLE
100
AcDbLine
 10
17.8374773587511
 20
13.13180569306099
 30
0.0
 11
19.1374773587511
 21
13.13180569306099
 31
0.0
  0
ARC
  5
167
330
70
100
AcDbEntity
  8
bakeneko-65-plate v4_VISIBLE
100
AcDbCircle
 10
35.3299773587511
 20
16.38680569306099
 30
0.0
 40
0.0500000000000043
100
AcDbArc
 50
0.0
 51
90.0
  0
ARC
  5
168
330
70
100
AcDbEntity
  8
bakeneko-65-plate v4_VISIBLE
100
AcDbCircle
 10
15.93247735875111
 20
13.18180569306099
 30
0.0
 40
0.0500000000000007
100
AcDbArc
 50
180.0
 51
270.0
  0
LINE
  5
169
330
70
100
AcDbEntity
  8
bakeneko-65-plate v4_VISIBLE
100
AcDbLine
 10
11.99305235875111
 20
12.93180569306099
 30
0.0
 11
12.59305235875111
 21
12.93180569306099
 31
0.0
  0
LINE
  5
16A
330
70
100
AcDbEntity
  8
bakeneko-65-plate v4_VISIBLE
100
AcDbLine
 10
40.2212273587511
 20
16.43680569306099
 30
0.0
 11
41.5212273587511
 21
16.43680569306099
 31
0.0
  0
LINE
  5
16B
330
70
100
AcDbEntity
  8
bakeneko-65-plate v4_VISIBLE
100
AcDbLine
 10
32.07497735875111
 20
16.38680569306099
 30
0.0
 11
32.07497735875111
 21
15.08680569306099
 31
0.0
  0
LINE
  5
16C
330
70
100
AcDbEntity
  8
bakeneko-65-plate v4_VISIBLE
100
AcDbLine
 10
35.37997735875111
 20
16.38680569306099
 30
0.0
 11
35.3799773587511
 21
15.08680569306099
 31
0.0
  0
ARC
  5
16D
330
70
100
AcDbEntity
  8
bakeneko-65-plate v4_VISIBLE
100
AcDbCircle
 10
32.12497735875112
 20
15.08680569306099
 30
0.0
 40
0.0499999999999972
100
AcDbArc
 50
180.0
 51
270.0
  0
LINE
  5
16E
330
70
100
AcDbEntity
  8
bakeneko-65-plate v4_VISIBLE
100
AcDbLine
 10
40.2212273587511
 20
15.03680569306099
 30
0.0
 11
41.5212273587511
 21
15.03680569306099
 31
0.0
  0
ARC
  5
16F
330
70
100
AcDbEntity
  8
bakeneko-65-plate v4_VISIBLE
100
AcDbCircle
 10
12.69305235875111
 20
13.08180569306099
 30
0.0
 40
0.0500000000000007
100
AcDbArc
 50
90.0
 51
180.0
  0
LINE
  5
170
330
70
100
AcDbEntity
  8
bakeneko-65-plate v4_VISIBLE
100
AcDbLine
 10
36.9818023587511
 20
15.03680569306099
 30
0.0
 11
38.5694023587511
 21
15.03680569306099
 31
0.0
  0
LINE
  5
171
330
70
100
AcDbEntity
  8
bakeneko-65-plate v4_VISIBLE
100
AcDbLine
 10
36.2818023587511
 20
14.83680569306099
 30
0.0
 11
36.88180235875111
 21
14.83680569306099
 31
0.0
  0
LINE
  5
172
330
70
100
AcDbEntity
  8
bakeneko-65-plate v4_VISIBLE
100
AcDbLine
 10
36.23180235875111
 20
16.58680569306099
 30
0.0
 11
36.23180235875111
 21
14.88680569306099
 31
0.0
  0
ARC
  5
173
330
70
100
AcDbEntity
  8
bakeneko-65-plate v4_VISIBLE
100
AcDbCircle
 10
36.2818023587511
 20
14.88680569306099
 30
0.0
 40
0.0499999999999972
100
AcDbArc
 50
180.0
 51
270.0
  0
LINE
  5
174
330
70
100
AcDbEntity
  8
bakeneko-65-plate v4_VISIBLE
100
AcDbLine
 10
39.2694023587511
 20
16.63680569306099
 30
0.0
 11
38.66940235875111
 21
16.63680569306099
 31
0.0
  0
ARC
  5
175
330
70
100
AcDbEntity
  8
bakeneko-65-plate v4_VISIBLE
100
AcDbCircle
 10
41.5212273587511
 20
16.38680569306099
 30
0.0
 40
0.0499999999999972
100
AcDbArc
 50
0.0
 51
90.0
  0
ARC
  5
176
330
70
100
AcDbEntity
  8
bakeneko-65-plate v4_VISIBLE
100
AcDbCircle
 10
36.2818023587511
 20
16.58680569306099
 30
0.0
 40
0.0499999999999972
100
AcDbArc
 50
90.0
 51
180.0
  0
LINE
  5
177
330
70
100
AcDbEntity
  8
bakeneko-65-plate v4_VISIBLE
100
AcDbLine
 10
32.12497735875112
 20
16.43680569306099
 30
0.0
 11
33.42497735875112
 21
16.43680569306099
 31
0.0
  0
LINE
  5
178
330
70
100
AcDbEntity
  8
bakeneko-65-plate v4_VISIBLE
100
AcDbLine
 10
28.3149773587511
 20
15.03680569306099
 30
0.0
 11
29.6149773587511
 21
15.03680569306099
 31
0.0
  0
ARC
  5
179
330
70
100
AcDbEntity
  8
bakeneko-65-plate v4_VISIBLE
100
AcDbCircle
 10
29.6149773587511
 20
15.08680569306099
 30
0.0
 40
0.0500000000000007
100
AcDbArc
 50
270.0
 51
0.0
  0
LINE
  5
17A
330
70
100
AcDbEntity
  8
bakeneko-65-plate v4_VISIBLE
100
AcDbLine
 10
38.61940235875112
 20
14.98680569306099
 30
0.0
 11
38.61940235875112
 21
14.88680569306099
 31
0.0
  0
LINE
  5
17B
330
70
100
AcDbEntity
  8
bakeneko-65-plate v4_VISIBLE
100
AcDbLine
 10
36.9318023587511
 20
16.48680569306099
 30
0.0
 11
36.9318023587511
 21
16.58680569306099
 31
0.0
  0
ARC
  5
17C
330
70
100
AcDbEntity
  8
bakeneko-65-plate v4_VISIBLE
100
AcDbCircle
 10
35.3299773587511
 20
15.08680569306099
 30
0.0
 40
0.0500000000000007
100
AcDbArc
 50
270.0
 51
0.0
  0
LINE
  5
17D
330
70
100
AcDbEntity
  8
bakeneko-65-plate v4_VISIBLE
100
AcDbLine
 10
30.21997735875111
 20
15.03680569306099
 30
0.0
 11
31.51997735875112
 21
15.03680569306099
 31
0.0
  0
ARC
  5
17E
330
70
100
AcDbEntity
  8
bakeneko-65-plate v4_VISIBLE
100
AcDbCircle
 10
31.51997735875112
 20
15.08680569306099
 30
0.0
 40
0.0500000000000007
100
AcDbArc
 50
270.0
 51
0.0
  0
LINE
  5
17F
330
70
100
AcDbEntity
  8
bakeneko-65-plate v4_VISIBLE
100
AcDbLine
 10
36.93180235875111
 20
14.98680569306099
 30
0.0
 11
36.9318023587511
 21
14.88680569306099
 31
0.0
  0
ARC
  5
180
330
70
100
AcDbEntity
  8
bakeneko-65-plate v4_VISIBLE
100
AcDbCircle
 10
36.9818023587511
 20
16.48680569306099
 30
0.0
 40
0.0499999999999972
100
AcDbArc
 50
180.0
 51
270.0
  0
ARC
  5
181
330
70
100
AcDbEntity
  8
bakeneko-65-plate v4_VISIBLE
100
AcDbCircle
 10
30.21997735875111
 20
15.08680569306099
 30
0.0
 40
0.0500000000000007
100
AcDbArc
 50
180.0
 51
270.0
  0
LINE
  5
182
330
70
100
AcDbEntity
  8
bakeneko-65-plate v4_VISIBLE
100
AcDbLine
 10
36.9818023587511
 20
16.43680569306099
 30
0.0
 11
38.5694023587511
 21
16.43680569306099
 31
0.0
  0
ARC
  5
183
330
70
100
AcDbEntity
  8
bakeneko-65-plate v4_VISIBLE
100
AcDbCircle
 10
34.0299773587511
 20
16.38680569306099
 30
0.0
 40
0.0500000000000007
100
AcDbArc
 50
90.0
 51
180.0
  0
LINE
  5
184
330
70
100
AcDbEntity
  8
bakeneko-65-plate v4_VISIBLE
100
AcDbLine
 10
27.7599773587511
 20
16.38680569306099
 30
0.0
 11
27.7599773587511
 21
15.08680569306099
 31
0.0
  0
LINE
  5
185
330
70
100
AcDbEntity
  8
bakeneko-65-plate v4_VISIBLE
100
AcDbLine
 10
28.2649773587511
 20
16.38680569306099
 30
0.0
 11
28.2649773587511
 21
15.08680569306099
 31
0.0
  0
LINE
  5
186
330
70
100
AcDbEntity
  8
bakeneko-65-plate v4_VISIBLE
100
AcDbLine
 10
38.61940235875112
 20
16.48680569306099
 30
0.0
 11
38.61940235875112
 21
16.58680569306099
 31
0.0
  0
ARC
  5
187
330
70
100
AcDbEntity
  8
bakeneko-65-plate v4_VISIBLE
100
AcDbCircle
 10
12.59305235875111
 20
12.98180569306099
 30
0.0
 40
0.0500000000000007
100
AcDbArc
 50
270.0
 51
0.0
  0
LINE
  5
188
330
70
100
AcDbEntity
  8
bakeneko-65-plate v4_VISIBLE
100
AcDbLine
 10
33.47497735875111
 20
16.38680569306099
 30
0.0
 11
33.47497735875111
 21
15.08680569306099
 31
0.0
  0
ARC
  5
189
330
70
100
AcDbEntity
  8
bakeneko-65-plate v4_VISIBLE
100
AcDbCircle
 10
38.5694023587511
 20
14.98680569306099
 30
0.0
 40
0.0499999999999972
100
AcDbArc
 50
0.0
 51
90.0
  0
LINE
  5
18A
330
70
100
AcDbEntity
  8
bakeneko-65-plate v4_VISIBLE
100
AcDbLine
 10
31.56997735875112
 20
16.38680569306099
 30
0.0
 11
31.56997735875112
 21
15.08680569306099
 31
0.0
  0
ARC
  5
18B
330
70
100
AcDbEntity
  8
bakeneko-65-plate v4_VISIBLE
100
AcDbCircle
 10
41.5212273587511
 20
15.08680569306099
 30
0.0
 40
0.0500000000000007
100
AcDbArc
 50
270.0
 51
0.0
  0
LINE
  5
18C
330
70
100
AcDbEntity
  8
bakeneko-65-plate v4_VISIBLE
100
AcDbLine
 10
30.21997735875111
 20
16.43680569306099
 30
0.0
 11
31.51997735875112
 21
16.43680569306099
 31
0.0
  0
ARC
  5
18D
330
70
100
AcDbEntity
  8
bakeneko-65-plate v4_VISIBLE
100
AcDbCircle
 10
28.3149773587511
 20
15.08680569306099
 30
0.0
 40
0.0500000000000007
100
AcDbArc
 50
180.0
 51
270.0
  0
ARC
  5
18E
330
70
100
AcDbEntity
  8
bakeneko-65-plate v4_VISIBLE
100
AcDbCircle
 10
18.1849773587511
 20
16.38680569306099
 30
0.0
 40
0.0500000000000007
100
AcDbArc
 50
0.0
 51
90.0
  0
LINE
  5
18F
330
70
100
AcDbEntity
  8
bakeneko-65-plate v4_VISIBLE
100
AcDbLine
 10
34.0299773587511
 20
15.03680569306099
 30
0.0
 11
35.3299773587511
 21
15.03680569306099
 31
0.0
  0
LINE
  5
190
330
70
100
AcDbEntity
  8
bakeneko-65-plate v4_VISIBLE
100
AcDbLine
 10
14.9299773587511
 20
16.38680569306099
 30
0.0
 11
14.9299773587511
 21
15.08680569306099
 31
0.0
  0
LINE
  5
191
330
70
100
AcDbEntity
  8
bakeneko-65-plate v4_VISIBLE
100
AcDbLine
 10
20.1399773587511
 20
16.38680569306099
 30
0.0
 11
20.1399773587511
 21
15.08680569306099
 31
0.0
  0
ARC
  5
192
330
70
100
AcDbEntity
  8
bakeneko-65-plate v4_VISIBLE
100
AcDbCircle
 10
31.51997735875112
 20
16.38680569306099
 30
0.0
 40
0.0500000000000007
100
AcDbArc
 50
0.0
 51
90.0
  0
ARC
  5
193
330
70
100
AcDbEntity
  8
bakeneko-65-plate v4_VISIBLE
100
AcDbCircle
 10
21.99497735875111
 20
15.08680569306099
 30
0.0
 40
0.0500000000000007
100
AcDbArc
 50
270.0
 51
0.0
  0
LINE
  5
194
330
70
100
AcDbEntity
  8
bakeneko-65-plate v4_VISIBLE
100
AcDbLine
 10
14.9799773587511
 20
16.43680569306099
 30
0.0
 11
16.2799773587511
 21
16.43680569306099
 31
0.0
  0
ARC
  5
195
330
70
100
AcDbEntity
  8
bakeneko-65-plate v4_VISIBLE
100
AcDbCircle
 10
14.9799773587511
 20
16.38680569306099
 30
0.0
 40
0.0500000000000007
100
AcDbArc
 50
90.0
 51
180.0
  0
ARC
  5
196
330
70
100
AcDbEntity
  8
bakeneko-65-plate v4_VISIBLE
100
AcDbCircle
 10
41.5212273587511
 20
16.99180569306099
 30
0.0
 40
0.0500000000000007
100
AcDbArc
 50
270.0
 51
0.0
  0
ARC
  5
197
330
70
100
AcDbEntity
  8
bakeneko-65-plate v4_VISIBLE
100
AcDbCircle
 10
30.21997735875111
 20
16.38680569306099
 30
0.0
 40
0.0500000000000007
100
AcDbArc
 50
90.0
 51
180.0
  0
LINE
  5
198
330
70
100
AcDbEntity
  8
bakeneko-65-plate v4_VISIBLE
100
AcDbLine
 10
26.4099773587511
 20
16.43680569306099
 30
0.0
 11
27.7099773587511
 21
16.43680569306099
 31
0.0
  0
LINE
  5
199
330
70
100
AcDbEntity
  8
bakeneko-65-plate v4_VISIBLE
100
AcDbLine
 10
28.3149773587511
 20
16.43680569306099
 30
0.0
 11
29.6149773587511
 21
16.43680569306099
 31
0.0
  0
LINE
  5
19A
330
70
100
AcDbEntity
  8
bakeneko-65-plate v4_VISIBLE
100
AcDbLine
 10
18.7399773587511
 20
16.38680569306099
 30
0.0
 11
18.7399773587511
 21
15.08680569306099
 31
0.0
  0
ARC
  5
19B
330
70
100
AcDbEntity
  8
bakeneko-65-plate v4_VISIBLE
100
AcDbCircle
 10
23.8999773587511
 20
16.38680569306099
 30
0.0
 40
0.0500000000000007
100
AcDbArc
 50
0.0
 51
90.0
  0
LINE
  5
19C
330
70
100
AcDbEntity
  8
bakeneko-65-plate v4_VISIBLE
100
AcDbLine
 10
29.6649773587511
 20
16.38680569306099
 30
0.0
 11
29.6649773587511
 21
15.08680569306099
 31
0.0
  0
ARC
  5
19D
330
70
100
AcDbEntity
  8
bakeneko-65-plate v4_VISIBLE
100
AcDbCircle
 10
25.8049773587511
 20
16.38680569306099
 30
0.0
 40
0.0500000000000007
100
AcDbArc
 50
0.0
 51
90.0
  0
ARC
  5
19E
330
70
100
AcDbEntity
  8
bakeneko-65-plate v4_VISIBLE
100
AcDbCircle
 10
22.5999773587511
 20
16.38680569306099
 30
0.0
 40
0.0500000000000007
100
AcDbArc
 50
90.0
 51
180.0
  0
ARC
  5
19F
330
70
100
AcDbEntity
  8
bakeneko-65-plate v4_VISIBLE
100
AcDbCircle
 10
20.69497735875111
 20
15.08680569306099
 30
0.0
 40
0.0500000000000007
100
AcDbArc
 50
180.0
 51
270.0
  0
ARC
  5
1A0
330
70
100
AcDbEntity
  8
bakeneko-65-plate v4_VISIBLE
100
AcDbCircle
 10
24.50497735875111
 20
15.08680569306099
 30
0.0
 40
0.0500000000000007
100
AcDbArc
 50
180.0
 51
270.0
  0
ARC
  5
1A1
330
70
100
AcDbEntity
  8
bakeneko-65-plate v4_VISIBLE
100
AcDbCircle
 10
32.12497735875112
 20
16.38680569306099
 30
0.0
 40
0.0500000000000007
100
AcDbArc
 50
90.0
 51
180.0
  0
LINE
  5
1A2
330
70
100
AcDbEntity
  8
bakeneko-65-plate v4_VISIBLE
100
AcDbLine
 10
26.4099773587511
 20
15.03680569306099
 30
0.0
 11
27.7099773587511
 21
15.03680569306099
 31
0.0
  0
LINE
  5
1A3
330
70
100
AcDbEntity
  8
bakeneko-65-plate v4_VISIBLE
100
AcDbLine
 10
32.12497735875112
 20
15.03680569306099
 30
0.0
 11
33.42497735875112
 21
15.03680569306099
 31
0.0
  0
LINE
  5
1A4
330
70
100
AcDbEntity
  8
bakeneko-65-plate v4_VISIBLE
100
AcDbLine
 10
34.0299773587511
 20
16.43680569306099
 30
0.0
 11
35.3299773587511
 21
16.43680569306099
 31
0.0
  0
LINE
  5
1A5
330
70
100
AcDbEntity
  8
bakeneko-65-plate v4_VISIBLE
100
AcDbLine
 10
25.8549773587511
 20
16.38680569306099
 30
0.0
 11
25.8549773587511
 21
15.08680569306099
 31
0.0
  0
ARC
  5
1A6
330
70
100
AcDbEntity
  8
bakeneko-65-plate v4_VISIBLE
100
AcDbCircle
 10
14.9799773587511
 20
15.08680569306099
 30
0.0
 40
0.0500000000000007
100
AcDbArc
 50
180.0
 51
270.0
  0
LINE
  5
1A7
330
70
100
AcDbEntity
  8
bakeneko-65-plate v4_VISIBLE
100
AcDbLine
 10
40.2212273587511
 20
16.94180569306099
 30
0.0
 11
41.5212273587511
 21
16.94180569306099
 31
0.0
  0
LINE
  5
1A8
330
70
100
AcDbEntity
  8
bakeneko-65-plate v4_VISIBLE
100
AcDbLine
 10
26.3599773587511
 20
16.38680569306099
 30
0.0
 11
26.3599773587511
 21
15.08680569306099
 31
0.0
  0
LINE
  5
1A9
330
70
100
AcDbEntity
  8
bakeneko-65-plate v4_VISIBLE
100
AcDbLine
 10
18.2349773587511
 20
16.38680569306099
 30
0.0
 11
18.2349773587511
 21
15.08680569306099
 31
0.0
  0
ARC
  5
1AA
330
70
100
AcDbEntity
  8
bakeneko-65-plate v4_VISIBLE
100
AcDbCircle
 10
38.5694023587511
 20
16.48680569306099
 30
0.0
 40
0.0500000000000007
100
AcDbArc
 50
270.0
 51
0.0
  0
LINE
  5
1AB
330
70
100
AcDbEntity
  8
bakeneko-65-plate v4_VISIBLE
100
AcDbLine
 10
20.69497735875111
 20
15.03680569306099
 30
0.0
 11
21.99497735875111
 21
15.03680569306099
 31
0.0
  0
ARC
  5
1AC
330
70
100
AcDbEntity
  8
bakeneko-65-plate v4_VISIBLE
100
AcDbCircle
 10
25.8049773587511
 20
15.08680569306099
 30
0.0
 40
0.0500000000000007
100
AcDbArc
 50
270.0
 51
0.0
  0
ARC
  5
1AD
330
70
100
AcDbEntity
  8
bakeneko-65-plate v4_VISIBLE
100
AcDbCircle
 10
16.2799773587511
 20
15.08680569306099
 30
0.0
 40
0.0499999999999989
100
AcDbArc
 50
270.0
 51
0.0
  0
LINE
  5
1AE
330
70
100
AcDbEntity
  8
bakeneko-65-plate v4_VISIBLE
100
AcDbLine
 10
16.8349773587511
 20
16.38680569306099
 30
0.0
 11
16.8349773587511
 21
15.08680569306099
 31
0.0
  0
LINE
  5
1AF
330
70
100
AcDbEntity
  8
bakeneko-65-plate v4_VISIBLE
100
AcDbLine
 10
18.7899773587511
 20
15.03680569306099
 30
0.0
 11
20.0899773587511
 21
15.03680569306099
 31
0.0
  0
LINE
  5
1B0
330
70
100
AcDbEntity
  8
bakeneko-65-plate v4_VISIBLE
100
AcDbLine
 10
22.5999773587511
 20
16.43680569306099
 30
0.0
 11
23.8999773587511
 21
16.43680569306099
 31
0.0
  0
ARC
  5
1B1
330
70
100
AcDbEntity
  8
bakeneko-65-plate v4_VISIBLE
100
AcDbCircle
 10
40.2212273587511
 20
16.99180569306099
 30
0.0
 40
0.0499999999999972
100
AcDbArc
 50
180.0
 51
270.0
  0
ARC
  5
1B2
330
70
100
AcDbEntity
  8
bakeneko-65-plate v4_VISIBLE
100
AcDbCircle
 10
20.0899773587511
 20
16.38680569306099
 30
0.0
 40
0.0500000000000007
100
AcDbArc
 50
0.0
 51
90.0
  0
LINE
  5
1B3
330
70
100
AcDbEntity
  8
bakeneko-65-plate v4_VISIBLE
100
AcDbLine
 10
24.50497735875111
 20
15.03680569306099
 30
0.0
 11
25.8049773587511
 21
15.03680569306099
 31
0.0
  0
LINE
  5
1B4
330
70
100
AcDbEntity
  8
bakeneko-65-plate v4_VISIBLE
100
AcDbLine
 10
22.5999773587511
 20
15.03680569306099
 30
0.0
 11
23.8999773587511
 21
15.03680569306099
 31
0.0
  0
ARC
  5
1B5
330
70
100
AcDbEntity
  8
bakeneko-65-plate v4_VISIBLE
100
AcDbCircle
 10
27.7099773587511
 20
15.08680569306099
 30
0.0
 40
0.0500000000000007
100
AcDbArc
 50
270.0
 51
0.0
  0
LINE
  5
1B6
330
70
100
AcDbEntity
  8
bakeneko-65-plate v4_VISIBLE
100
AcDbLine
 10
30.16997735875111
 20
16.38680569306099
 30
0.0
 11
30.16997735875111
 21
15.08680569306099
 31
0.0
  0
ARC
  5
1B7
330
70
100
AcDbEntity
  8
bakeneko-65-plate v4_VISIBLE
100
AcDbCircle
 10
29.6149773587511
 20
16.38680569306099
 30
0.0
 40
0.0500000000000007
100
AcDbArc
 50
0.0
 51
90.0
  0
ARC
  5
1B8
330
70
100
AcDbEntity
  8
bakeneko-65-plate v4_VISIBLE
100
AcDbCircle
 10
34.0299773587511
 20
15.08680569306099
 30
0.0
 40
0.0499999999999972
100
AcDbArc
 50
180.0
 51
270.0
  0
ARC
  5
1B9
330
70
100
AcDbEntity
  8
bakeneko-65-plate v4_VISIBLE
100
AcDbCircle
 10
24.50497735875111
 20
16.38680569306099
 30
0.0
 40
0.0500000000000007
100
AcDbArc
 50
90.0
 51
180.0
  0
LINE
  5
1BA
330
70
100
AcDbEntity
  8
bakeneko-65-plate v4_VISIBLE
100
AcDbLine
 10
24.45497735875111
 20
16.38680569306099
 30
0.0
 11
24.45497735875111
 21
15.08680569306099
 31
0.0
  0
LINE
  5
1BB
330
70
100
AcDbEntity
  8
bakeneko-65-plate v4_VISIBLE
100
AcDbLine
 10
18.7899773587511
 20
16.43680569306099
 30
0.0
 11
20.0899773587511
 21
16.43680569306099
 31
0.0
  0
LINE
  5
1BC
330
70
100
AcDbEntity
  8
bakeneko-65-plate v4_VISIBLE
100
AcDbLine
 10
22.5499773587511
 20
16.38680569306099
 30
0.0
 11
22.5499773587511
 21
15.08680569306099
 31
0.0
  0
ARC
  5
1BD
330
70
100
AcDbEntity
  8
bakeneko-65-plate v4_VISIBLE
100
AcDbCircle
 10
33.42497735875112
 20
16.38680569306099
 30
0.0
 40
0.0499999999999972
100
AcDbArc
 50
0.0
 51
90.0
  0
LINE
  5
1BE
330
70
100
AcDbEntity
  8
bakeneko-65-plate v4_VISIBLE
100
AcDbLine
 10
33.9799773587511
 20
16.38680569306099
 30
0.0
 11
33.9799773587511
 21
15.08680569306099
 31
0.0
  0
ARC
  5
1BF
330
70
100
AcDbEntity
  8
bakeneko-65-plate v4_VISIBLE
100
AcDbCircle
 10
33.42497735875112
 20
15.08680569306099
 30
0.0
 40
0.0500000000000007
100
AcDbArc
 50
270.0
 51
0.0
  0
ARC
  5
1C0
330
70
100
AcDbEntity
  8
bakeneko-65-plate v4_VISIBLE
100
AcDbCircle
 10
22.5999773587511
 20
15.08680569306099
 30
0.0
 40
0.0500000000000007
100
AcDbArc
 50
180.0
 51
270.0
  0
LINE
  5
1C1
330
70
100
AcDbEntity
  8
bakeneko-65-plate v4_VISIBLE
100
AcDbLine
 10
24.50497735875111
 20
16.43680569306099
 30
0.0
 11
25.8049773587511
 21
16.43680569306099
 31
0.0
  0
ARC
  5
1C2
330
70
100
AcDbEntity
  8
bakeneko-65-plate v4_VISIBLE
100
AcDbCircle
 10
26.4099773587511
 20
15.08680569306099
 30
0.0
 40
0.0500000000000007
100
AcDbArc
 50
180.0
 51
270.0
  0
LINE
  5
1C3
330
70
100
AcDbEntity
  8
bakeneko-65-plate v4_VISIBLE
100
AcDbLine
 10
20.64497735875111
 20
16.38680569306099
 30
0.0
 11
20.64497735875111
 21
15.08680569306099
 31
0.0
  0
ARC
  5
1C4
330
70
100
AcDbEntity
  8
bakeneko-65-plate v4_VISIBLE
100
AcDbCircle
 10
23.8999773587511
 20
15.08680569306099
 30
0.0
 40
0.0500000000000007
100
AcDbArc
 50
270.0
 51
0.0
  0
ARC
  5
1C5
330
70
100
AcDbEntity
  8
bakeneko-65-plate v4_VISIBLE
100
AcDbCircle
 10
28.3149773587511
 20
16.38680569306099
 30
0.0
 40
0.0500000000000007
100
AcDbArc
 50
90.0
 51
180.0
  0
ARC
  5
1C6
330
70
100
AcDbEntity
  8
bakeneko-65-plate v4_VISIBLE
100
AcDbCircle
 10
16.8849773587511
 20
15.08680569306099
 30
0.0
 40
0.0500000000000007
100
AcDbArc
 50
180.0
 51
270.0
  0
ARC
  5
1C7
330
70
100
AcDbEntity
  8
bakeneko-65-plate v4_VISIBLE
100
AcDbCircle
 10
27.7099773587511
 20
16.38680569306099
 30
0.0
 40
0.0500000000000007
100
AcDbArc
 50
0.0
 51
90.0
  0
ARC
  5
1C8
330
70
100
AcDbEntity
  8
bakeneko-65-plate v4_VISIBLE
100
AcDbCircle
 10
18.7899773587511
 20
16.38680569306099
 30
0.0
 40
0.0500000000000007
100
AcDbArc
 50
90.0
 51
180.0
  0
ARC
  5
1C9
330
70
100
AcDbEntity
  8
bakeneko-65-plate v4_VISIBLE
100
AcDbCircle
 10
26.4099773587511
 20
16.38680569306099
 30
0.0
 40
0.0500000000000007
100
AcDbArc
 50
90.0
 51
180.0
  0
LINE
  5
1CA
330
70
100
AcDbEntity
  8
bakeneko-65-plate v4_VISIBLE
100
AcDbLine
 10
14.9799773587511
 20
15.03680569306099
 30
0.0
 11
16.2799773587511
 21
15.03680569306099
 31
0.0
  0
ARC
  5
1CB
330
70
100
AcDbEntity
  8
bakeneko-65-plate v4_VISIBLE
100
AcDbCircle
 10
32.9487273587511
 20
16.99180569306099
 30
0.0
 40
0.0500000000000007
100
AcDbArc
 50
270.0
 51
0.0
  0
LINE
  5
1CC
330
70
100
AcDbEntity
  8
bakeneko-65-plate v4_VISIBLE
100
AcDbLine
 10
37.8399773587511
 20
18.34180569306099
 30
0.0
 11
39.1399773587511
 21
18.34180569306099
 31
0.0
  0
LINE
  5
1CD
330
70
100
AcDbEntity
  8
bakeneko-65-plate v4_VISIBLE
100
AcDbLine
 10
16.8849773587511
 20
16.43680569306099
 30
0.0
 11
18.1849773587511
 21
16.43680569306099
 31
0.0
  0
ARC
  5
1CE
330
70
100
AcDbEntity
  8
bakeneko-65-plate v4_VISIBLE
100
AcDbCircle
 10
35.4587273587511
 20
16.99180569306099
 30
0.0
 40
0.0499999999999972
100
AcDbArc
 50
180.0
 51
270.0
  0
LINE
  5
1CF
330
70
100
AcDbEntity
  8
bakeneko-65-plate v4_VISIBLE
100
AcDbLine
 10
20.69497735875111
 20
16.43680569306099
 30
0.0
 11
21.99497735875111
 21
16.43680569306099
 31
0.0
  0
LINE
  5
1D0
330
70
100
AcDbEntity
  8
bakeneko-65-plate v4_VISIBLE
100
AcDbLine
 10
35.4587273587511
 20
18.34180569306099
 30
0.0
 11
36.7587273587511
 21
18.34180569306099
 31
0.0
  0
LINE
  5
1D1
330
70
100
AcDbEntity
  8
bakeneko-65-plate v4_VISIBLE
100
AcDbLine
 10
35.4587273587511
 20
16.94180569306099
 30
0.0
 11
36.7587273587511
 21
16.94180569306099
 31
0.0
  0
LINE
  5
1D2
330
70
100
AcDbEntity
  8
bakeneko-65-plate v4_VISIBLE
100
AcDbLine
 10
41.5712273587511
 20
18.29180569306099
 30
0.0
 11
41.5712273587511
 21
16.99180569306099
 31
0.0
  0
LINE
  5
1D3
330
70
100
AcDbEntity
  8
bakeneko-65-plate v4_VISIBLE
100
AcDbLine
 10
23.9499773587511
 20
16.38680569306099
 30
0.0
 11
23.9499773587511
 21
15.08680569306099
 31
0.0
  0
LINE
  5
1D4
330
70
100
AcDbEntity
  8
bakeneko-65-plate v4_VISIBLE
100
AcDbLine
 10
34.9037273587511
 20
18.29180569306099
 30
0.0
 11
34.90372735875111
 21
16.99180569306099
 31
0.0
  0
LINE
  5
1D5
330
70
100
AcDbEntity
  8
bakeneko-65-plate v4_VISIBLE
100
AcDbLine
 10
33.5537273587511
 20
16.94180569306099
 30
0.0
 11
34.8537273587511
 21
16.94180569306099
 31
0.0
  0
LINE
  5
1D6
330
70
100
AcDbEntity
  8
bakeneko-65-plate v4_VISIBLE
100
AcDbLine
 10
33.5537273587511
 20
18.34180569306099
 30
0.0
 11
34.8537273587511
 21
18.34180569306099
 31
0.0
  0
LINE
  5
1D7
330
70
100
AcDbEntity
  8
bakeneko-65-plate v4_VISIBLE
100
AcDbLine
 10
37.8399773587511
 20
16.94180569306099
 30
0.0
 11
39.1399773587511
 21
16.94180569306099
 31
0.0
  0
ARC
  5
1D8
330
70
100
AcDbEntity
  8
bakeneko-65-plate v4_VISIBLE
100
AcDbCircle
 10
34.8537273587511
 20
16.99180569306099
 30
0.0
 40
0.0500000000000007
100
AcDbArc
 50
270.0
 51
0.0
  0
ARC
  5
1D9
330
70
100
AcDbEntity
  8
bakeneko-65-plate v4_VISIBLE
100
AcDbCircle
 10
18.7899773587511
 20
15.08680569306099
 30
0.0
 40
0.0500000000000007
100
AcDbArc
 50
180.0
 51
270.0
  0
ARC
  5
1DA
330
70
100
AcDbEntity
  8
bakeneko-65-plate v4_VISIBLE
100
AcDbCircle
 10
20.0899773587511
 20
15.08680569306099
 30
0.0
 40
0.0500000000000007
100
AcDbArc
 50
270.0
 51
0.0
  0
LINE
  5
1DB
330
70
100
AcDbEntity
  8
bakeneko-65-plate v4_VISIBLE
100
AcDbLine
 10
31.5987273587511
 20
18.29180569306099
 30
0.0
 11
31.5987273587511
 21
16.99180569306099
 31
0.0
  0
ARC
  5
1DC
330
70
100
AcDbEntity
  8
bakeneko-65-plate v4_VISIBLE
100
AcDbCircle
 10
33.5537273587511
 20
16.99180569306099
 30
0.0
 40
0.0499999999999972
100
AcDbArc
 50
180.0
 51
270.0
  0
ARC
  5
1DD
330
70
100
AcDbEntity
  8
bakeneko-65-plate v4_VISIBLE
100
AcDbCircle
 10
40.2212273587511
 20
18.29180569306099
 30
0.0
 40
0.0500000000000007
100
AcDbArc
 50
90.0
 51
180.0
  0
LINE
  5
1DE
330
70
100
AcDbEntity
  8
bakeneko-65-plate v4_VISIBLE
100
AcDbLine
 10
16.3299773587511
 20
16.38680569306099
 30
0.0
 11
16.32997735875109
 21
15.08680569306099
 31
0.0
  0
LINE
  5
1DF
330
70
100
AcDbEntity
  8
bakeneko-65-plate v4_VISIBLE
100
AcDbLine
 10
39.1899773587511
 20
18.29180569306099
 30
0.0
 11
39.1899773587511
 21
16.99180569306099
 31
0.0
  0
ARC
  5
1E0
330
70
100
AcDbEntity
  8
bakeneko-65-plate v4_VISIBLE
100
AcDbCircle
 10
27.2337273587511
 20
16.99180569306099
 30
0.0
 40
0.0500000000000007
100
AcDbArc
 50
270.0
 51
0.0
  0
LINE
  5
1E1
330
70
100
AcDbEntity
  8
bakeneko-65-plate v4_VISIBLE
100
AcDbLine
 10
31.6487273587511
 20
16.94180569306099
 30
0.0
 11
32.9487273587511
 21
16.94180569306099
 31
0.0
  0
LINE
  5
1E2
330
70
100
AcDbEntity
  8
bakeneko-65-plate v4_VISIBLE
100
AcDbLine
 10
27.78872735875112
 20
18.29180569306099
 30
0.0
 11
27.78872735875112
 21
16.99180569306099
 31
0.0
  0
LINE
  5
1E3
330
70
100
AcDbEntity
  8
bakeneko-65-plate v4_VISIBLE
100
AcDbLine
 10
29.18872735875111
 20
18.29180569306099
 30
0.0
 11
29.18872735875111
 21
16.99180569306099
 31
0.0
  0
ARC
  5
1E4
330
70
100
AcDbEntity
  8
bakeneko-65-plate v4_VISIBLE
100
AcDbCircle
 10
36.7587273587511
 20
16.99180569306099
 30
0.0
 40
0.0500000000000007
100
AcDbArc
 50
270.0
 51
0.0
  0
ARC
  5
1E5
330
70
100
AcDbEntity
  8
bakeneko-65-plate v4_VISIBLE
100
AcDbCircle
 10
39.1399773587511
 20
16.99180569306099
 30
0.0
 40
0.0500000000000007
100
AcDbArc
 50
270.0
 51
0.0
  0
ARC
  5
1E6
330
70
100
AcDbEntity
  8
bakeneko-65-plate v4_VISIBLE
100
AcDbCircle
 10
37.8399773587511
 20
16.99180569306099
 30
0.0
 40
0.0499999999999972
100
AcDbArc
 50
180.0
 51
270.0
  0
ARC
  5
1E7
330
70
100
AcDbEntity
  8
bakeneko-65-plate v4_VISIBLE
100
AcDbCircle
 10
37.8399773587511
 20
18.29180569306099
 30
0.0
 40
0.0500000000000007
100
AcDbArc
 50
90.0
 51
180.0
  0
ARC
  5
1E8
330
70
100
AcDbEntity
  8
bakeneko-65-plate v4_VISIBLE
100
AcDbCircle
 10
27.83872735875112
 20
18.29180569306099
 30
0.0
 40
0.0500000000000007
100
AcDbArc
 50
90.0
 51
180.0
  0
ARC
  5
1E9
330
70
100
AcDbEntity
  8
bakeneko-65-plate v4_VISIBLE
100
AcDbCircle
 10
29.13872735875111
 20
18.29180569306099
 30
0.0
 40
0.0500000000000007
100
AcDbArc
 50
0.0
 51
90.0
  0
LINE
  5
1EA
330
70
100
AcDbEntity
  8
bakeneko-65-plate v4_VISIBLE
100
AcDbLine
 10
40.2212273587511
 20
18.34180569306099
 30
0.0
 11
41.5212273587511
 21
18.34180569306099
 31
0.0
  0
LINE
  5
1EB
330
70
100
AcDbEntity
  8
bakeneko-65-plate v4_VISIBLE
100
AcDbLine
 10
40.1712273587511
 20
18.29180569306099
 30
0.0
 11
40.1712273587511
 21
16.99180569306099
 31
0.0
  0
LINE
  5
1EC
330
70
100
AcDbEntity
  8
bakeneko-65-plate v4_VISIBLE
100
AcDbLine
 10
16.8849773587511
 20
15.03680569306099
 30
0.0
 11
18.1849773587511
 21
15.03680569306099
 31
0.0
  0
ARC
  5
1ED
330
70
100
AcDbEntity
  8
bakeneko-65-plate v4_VISIBLE
100
AcDbCircle
 10
34.8537273587511
 20
18.29180569306099
 30
0.0
 40
0.0500000000000043
100
AcDbArc
 50
0.0
 51
90.0
  0
ARC
  5
1EE
330
70
100
AcDbEntity
  8
bakeneko-65-plate v4_VISIBLE
100
AcDbCircle
 10
16.8849773587511
 20
16.38680569306099
 30
0.0
 40
0.0500000000000007
100
AcDbArc
 50
90.0
 51
180.0
  0
ARC
  5
1EF
330
70
100
AcDbEntity
  8
bakeneko-65-plate v4_VISIBLE
100
AcDbCircle
 10
31.6487273587511
 20
16.99180569306099
 30
0.0
 40
0.0500000000000007
100
AcDbArc
 50
180.0
 51
270.0
  0
LINE
  5
1F0
330
70
100
AcDbEntity
  8
bakeneko-65-plate v4_VISIBLE
100
AcDbLine
 10
33.5037273587511
 20
18.29180569306099
 30
0.0
 11
33.5037273587511
 21
16.99180569306099
 31
0.0
  0
ARC
  5
1F1
330
70
100
AcDbEntity
  8
bakeneko-65-plate v4_VISIBLE
100
AcDbCircle
 10
21.99497735875111
 20
16.38680569306099
 30
0.0
 40
0.0500000000000007
100
AcDbArc
 50
0.0
 51
90.0
  0
ARC
  5
1F2
330
70
100
AcDbEntity
  8
bakeneko-65-plate v4_VISIBLE
100
AcDbCircle
 10
20.69497735875111
 20
16.38680569306099
 30
0.0
 40
0.0500000000000007
100
AcDbArc
 50
90.0
 51
180.0
  0
ARC
  5
1F3
330
70
100
AcDbEntity
  8
bakeneko-65-plate v4_VISIBLE
100
AcDbCircle
 10
33.5537273587511
 20
18.29180569306099
 30
0.0
 40
0.0500000000000007
100
AcDbArc
 50
90.0
 51
180.0
  0
ARC
  5
1F4
330
70
100
AcDbEntity
  8
bakeneko-65-plate v4_VISIBLE
100
AcDbCircle
 10
39.1399773587511
 20
18.29180569306099
 30
0.0
 40
0.0499999999999972
100
AcDbArc
 50
0.0
 51
90.0
  0
ARC
  5
1F5
330
70
100
AcDbEntity
  8
bakeneko-65-plate v4_VISIBLE
100
AcDbCircle
 10
18.1849773587511
 20
15.08680569306099
 30
0.0
 40
0.0500000000000007
100
AcDbArc
 50
270.0
 51
0.0
  0
LINE
  5
1F6
330
70
100
AcDbEntity
  8
bakeneko-65-plate v4_VISIBLE
100
AcDbLine
 10
37.78997735875111
 20
18.29180569306099
 30
0.0
 11
37.78997735875111
 21
16.99180569306099
 31
0.0
  0
ARC
  5
1F7
330
70
100
AcDbEntity
  8
bakeneko-65-plate v4_VISIBLE
100
AcDbCircle
 10
35.4587273587511
 20
18.29180569306099
 30
0.0
 40
0.0499999999999972
100
AcDbArc
 50
90.0
 51
180.0
  0
LINE
  5
1F8
330
70
100
AcDbEntity
  8
bakeneko-65-plate v4_VISIBLE
100
AcDbLine
 10
22.04497735875111
 20
16.38680569306099
 30
0.0
 11
22.04497735875111
 21
15.08680569306099
 31
0.0
  0
ARC
  5
1F9
330
70
100
AcDbEntity
  8
bakeneko-65-plate v4_VISIBLE
100
AcDbCircle
 10
16.4087273587511
 20
16.99180569306099
 30
0.0
 40
0.0500000000000007
100
AcDbArc
 50
180.0
 51
270.0
  0
ARC
  5
1FA
330
70
100
AcDbEntity
  8
bakeneko-65-plate v4_VISIBLE
100
AcDbCircle
 10
18.31372735875111
 20
16.99180569306099
 30
0.0
 40
0.0500000000000007
100
AcDbArc
 50
180.0
 51
270.0
  0
ARC
  5
1FB
330
70
100
AcDbEntity
  8
bakeneko-65-plate v4_VISIBLE
100
AcDbCircle
 10
36.7587273587511
 20
18.29180569306099
 30
0.0
 40
0.0499999999999972
100
AcDbArc
 50
0.0
 51
90.0
  0
LINE
  5
1FC
330
70
100
AcDbEntity
  8
bakeneko-65-plate v4_VISIBLE
100
AcDbLine
 10
31.09372735875111
 20
18.29180569306099
 30
0.0
 11
31.09372735875111
 21
16.99180569306099
 31
0.0
  0
ARC
  5
1FD
330
70
100
AcDbEntity
  8
bakeneko-65-plate v4_VISIBLE
100
AcDbCircle
 10
23.42372735875111
 20
16.99180569306099
 30
0.0
 40
0.0500000000000007
100
AcDbArc
 50
270.0
 51
0.0
  0
LINE
  5
1FE
330
70
100
AcDbEntity
  8
bakeneko-65-plate v4_VISIBLE
100
AcDbLine
 10
35.4087273587511
 20
18.29180569306099
 30
0.0
 11
35.4087273587511
 21
16.99180569306099
 31
0.0
  0
LINE
  5
1FF
330
70
100
AcDbEntity
  8
bakeneko-65-plate v4_VISIBLE
100
AcDbLine
 10
32.9987273587511
 20
18.29180569306099
 30
0.0
 11
32.9987273587511
 21
16.99180569306099
 31
0.0
  0
LINE
  5
200
330
70
100
AcDbEntity
  8
bakeneko-65-plate v4_VISIBLE
100
AcDbLine
 10
25.8837273587511
 20
18.29180569306099
 30
0.0
 11
25.8837273587511
 21
16.99180569306099
 31
0.0
  0
ARC
  5
201
330
70
100
AcDbEntity
  8
bakeneko-65-plate v4_VISIBLE
100
AcDbCircle
 10
41.5212273587511
 20
18.29180569306099
 30
0.0
 40
0.0499999999999972
100
AcDbArc
 50
0.0
 51
90.0
  0
ARC
  5
202
330
70
100
AcDbEntity
  8
bakeneko-65-plate v4_VISIBLE
100
AcDbCircle
 10
27.83872735875112
 20
16.99180569306099
 30
0.0
 40
0.0500000000000007
100
AcDbArc
 50
180.0
 51
270.0
  0
LINE
  5
203
330
70
100
AcDbEntity
  8
bakeneko-65-plate v4_VISIBLE
100
AcDbLine
 10
36.8087273587511
 20
18.29180569306099
 30
0.0
 11
36.8087273587511
 21
16.99180569306099
 31
0.0
  0
ARC
  5
204
330
70
100
AcDbEntity
  8
bakeneko-65-plate v4_VISIBLE
100
AcDbCircle
 10
16.2799773587511
 20
16.38680569306099
 30
0.0
 40
0.0499999999999972
100
AcDbArc
 50
0.0
 51
90.0
  0
ARC
  5
205
330
70
100
AcDbEntity
  8
bakeneko-65-plate v4_VISIBLE
100
AcDbCircle
 10
29.74372735875112
 20
18.29180569306099
 30
0.0
 40
0.0500000000000007
100
AcDbArc
 50
90.0
 51
180.0
  0
ARC
  5
206
330
70
100
AcDbEntity
  8
bakeneko-65-plate v4_VISIBLE
100
AcDbCircle
 10
29.13872735875111
 20
16.99180569306099
 30
0.0
 40
0.0500000000000007
100
AcDbArc
 50
270.0
 51
0.0
  0
LINE
  5
207
330
70
100
AcDbEntity
  8
bakeneko-65-plate v4_VISIBLE
100
AcDbLine
 10
16.4087273587511
 20
16.94180569306099
 30
0.0
 11
17.7087273587511
 21
16.94180569306099
 31
0.0
  0
LINE
  5
208
330
70
100
AcDbEntity
  8
bakeneko-65-plate v4_VISIBLE
100
AcDbLine
 10
31.6487273587511
 20
18.34180569306099
 30
0.0
 11
32.9487273587511
 21
18.34180569306099
 31
0.0
  0
ARC
  5
209
330
70
100
AcDbEntity
  8
bakeneko-65-plate v4_VISIBLE
100
AcDbCircle
 10
31.6487273587511
 20
18.29180569306099
 30
0.0
 40
0.0500000000000007
100
AcDbArc
 50
90.0
 51
180.0
  0
ARC
  5
20A
330
70
100
AcDbEntity
  8
bakeneko-65-plate v4_VISIBLE
100
AcDbCircle
 10
31.04372735875112
 20
16.99180569306099
 30
0.0
 40
0.0500000000000007
100
AcDbArc
 50
270.0
 51
0.0
  0
ARC
  5
20B
330
70
100
AcDbEntity
  8
bakeneko-65-plate v4_VISIBLE
100
AcDbCircle
 10
31.04372735875112
 20
18.29180569306099
 30
0.0
 40
0.0500000000000007
100
AcDbArc
 50
0.0
 51
90.0
  0
ARC
  5
20C
330
70
100
AcDbEntity
  8
bakeneko-65-plate v4_VISIBLE
100
AcDbCircle
 10
24.0287273587511
 20
16.99180569306099
 30
0.0
 40
0.0500000000000007
100
AcDbArc
 50
180.0
 51
270.0
  0
ARC
  5
20D
330
70
100
AcDbEntity
  8
bakeneko-65-plate v4_VISIBLE
100
AcDbCircle
 10
32.9487273587511
 20
18.29180569306099
 30
0.0
 40
0.0499999999999972
100
AcDbArc
 50
0.0
 51
90.0
  0
LINE
  5
20E
330
70
100
AcDbEntity
  8
bakeneko-65-plate v4_VISIBLE
100
AcDbLine
 10
29.74372735875112
 20
18.34180569306099
 30
0.0
 11
31.04372735875112
 21
18.34180569306099
 31
0.0
  0
ARC
  5
20F
330
70
100
AcDbEntity
  8
bakeneko-65-plate v4_VISIBLE
100
AcDbCircle
 10
34.61560235875111
 20
12.57680569306099
 30
0.0
 40
0.0499999999999972
100
AcDbArc
 50
0.0
 51
90.0
  0
ARC
  5
210
330
70
100
AcDbEntity
  8
bakeneko-65-plate v4_VISIBLE
100
AcDbCircle
 10
36.4112273587511
 20
11.27680569306099
 30
0.0
 40
0.0499999999999972
100
AcDbArc
 50
180.0
 51
270.0
  0
ARC
  5
211
330
70
100
AcDbEntity
  8
bakeneko-65-plate v4_VISIBLE
100
AcDbCircle
 10
13.66060235875111
 20
16.38680569306099
 30
0.0
 40
0.0500000000000007
100
AcDbArc
 50
0.0
 51
90.0
  0
ARC
  5
212
330
70
100
AcDbEntity
  8
bakeneko-65-plate v4_VISIBLE
100
AcDbCircle
 10
37.7112273587511
 20
11.27680569306099
 30
0.0
 40
0.0500000000000007
100
AcDbArc
 50
270.0
 51
0.0
  0
ARC
  5
213
330
70
100
AcDbEntity
  8
bakeneko-65-plate v4_VISIBLE
100
AcDbCircle
 10
13.66060235875111
 20
15.08680569306099
 30
0.0
 40
0.0500000000000007
100
AcDbArc
 50
270.0
 51
0.0
  0
LINE
  5
214
330
70
100
AcDbEntity
  8
bakeneko-65-plate v4_VISIBLE
100
AcDbLine
 10
31.69622735875111
 20
12.67680569306099
 30
0.0
 11
31.69622735875111
 21
12.77680569306099
 31
0.0
  0
LINE
  5
215
330
70
100
AcDbEntity
  8
bakeneko-65-plate v4_VISIBLE
100
AcDbLine
 10
38.2662273587511
 20
12.57680569306099
 30
0.0
 11
38.2662273587511
 21
11.27680569306099
 31
0.0
  0
ARC
  5
216
330
70
100
AcDbEntity
  8
bakeneko-65-plate v4_VISIBLE
100
AcDbCircle
 10
38.3162273587511
 20
11.27680569306099
 30
0.0
 40
0.0499999999999972
100
AcDbArc
 50
180.0
 51
270.0
  0
ARC
  5
217
330
70
100
AcDbEntity
  8
bakeneko-65-plate v4_VISIBLE
100
AcDbCircle
 10
38.3162273587511
 20
12.57680569306099
 30
0.0
 40
0.0499999999999989
100
AcDbArc
 50
90.0
 51
180.0
  0
ARC
  5
218
330
70
100
AcDbEntity
  8
bakeneko-65-plate v4_VISIBLE
100
AcDbCircle
 10
30.93435235875111
 20
12.57680569306099
 30
0.0
 40
0.0500000000000007
100
AcDbArc
 50
90.0
 51
180.0
  0
ARC
  5
219
330
70
100
AcDbEntity
  8
bakeneko-65-plate v4_VISIBLE
100
AcDbCircle
 10
39.6162273587511
 20
12.57680569306099
 30
0.0
 40
0.0499999999999972
100
AcDbArc
 50
0.0
 51
90.0
  0
LINE
  5
21A
330
70
100
AcDbEntity
  8
bakeneko-65-plate v4_VISIBLE
100
AcDbLine
 10
31.7462273587511
 20
12.62680569306099
 30
0.0
 11
32.23435235875112
 21
12.62680569306099
 31
0.0
  0
ARC
  5
21B
330
70
100
AcDbEntity
  8
bakeneko-65-plate v4_VISIBLE
100
AcDbCircle
 10
30.9462273587511
 20
12.67680569306099
 30
0.0
 40
0.0500000000000007
100
AcDbArc
 50
270.0
 51
0.0
  0
ARC
  5
21C
330
70
100
AcDbEntity
  8
bakeneko-65-plate v4_VISIBLE
100
AcDbCircle
 10
41.5212273587511
 20
11.27680569306099
 30
0.0
 40
0.0500000000000007
100
AcDbArc
 50
270.0
 51
0.0
  0
ARC
  5
21D
330
70
100
AcDbEntity
  8
bakeneko-65-plate v4_VISIBLE
100
AcDbCircle
 10
31.7462273587511
 20
12.67680569306099
 30
0.0
 40
0.0500000000000007
100
AcDbArc
 50
180.0
 51
270.0
  0
ARC
  5
21E
330
70
100
AcDbEntity
  8
bakeneko-65-plate v4_VISIBLE
100
AcDbCircle
 10
31.6462273587511
 20
12.77680569306099
 30
0.0
 40
0.0500000000000007
100
AcDbArc
 50
0.0
 51
90.0
  0
ARC
  5
21F
330
70
100
AcDbEntity
  8
bakeneko-65-plate v4_VISIBLE
100
AcDbCircle
 10
39.6075273587511
 20
18.79680569306099
 30
0.0
 40
0.0500000000000007
100
AcDbArc
 50
90.0
 51
180.0
  0
ARC
  5
220
330
70
100
AcDbEntity
  8
bakeneko-65-plate v4_VISIBLE
100
AcDbCircle
 10
39.6162273587511
 20
11.27680569306099
 30
0.0
 40
0.0500000000000007
100
AcDbArc
 50
270.0
 51
0.0
  0
LINE
  5
221
330
70
100
AcDbEntity
  8
bakeneko-65-plate v4_VISIBLE
100
AcDbLine
 10
13.71060235875111
 20
16.38680569306099
 30
0.0
 11
13.71060235875111
 21
15.08680569306099
 31
0.0
  0
LINE
  5
222
330
70
100
AcDbEntity
  8
bakeneko-65-plate v4_VISIBLE
100
AcDbLine
 10
11.8843523587511
 20
15.03680569306099
 30
0.0
 11
13.66060235875111
 21
15.03680569306099
 31
0.0
  0
LINE
  5
223
330
70
100
AcDbEntity
  8
bakeneko-65-plate v4_VISIBLE
100
AcDbLine
 10
41.5712273587511
 20
12.57680569306099
 30
0.0
 11
41.5712273587511
 21
11.27680569306099
 31
0.0
  0
ARC
  5
224
330
70
100
AcDbEntity
  8
bakeneko-65-plate v4_VISIBLE
100
AcDbCircle
 10
33.07747735875111
 20
11.27680569306099
 30
0.0
 40
0.0499999999999972
100
AcDbArc
 50
180.0
 51
270.0
  0
LINE
  5
225
330
70
100
AcDbEntity
  8
bakeneko-65-plate v4_VISIBLE
100
AcDbLine
 10
39.6662273587511
 20
12.57680569306099
 30
0.0
 11
39.6662273587511
 21
11.27680569306099
 31
0.0
  0
ARC
  5
226
330
70
100
AcDbEntity
  8
bakeneko-65-plate v4_VISIBLE
100
AcDbCircle
 10
40.2212273587511
 20
12.57680569306099
 30
0.0
 40
0.0500000000000007
100
AcDbArc
 50
90.0
 51
180.0
  0
LINE
  5
227
330
70
100
AcDbEntity
  8
bakeneko-65-plate v4_VISIBLE
100
AcDbLine
 10
11.8343523587511
 20
16.38680569306099
 30
0.0
 11
11.8343523587511
 21
15.08680569306099
 31
0.0
  0
ARC
  5
228
330
70
100
AcDbEntity
  8
bakeneko-65-plate v4_VISIBLE
100
AcDbCircle
 10
34.61560235875111
 20
11.27680569306099
 30
0.0
 40
0.0500000000000007
100
AcDbArc
 50
270.0
 51
0.0
  0
LINE
  5
229
330
70
100
AcDbEntity
  8
bakeneko-65-plate v4_VISIBLE
100
AcDbLine
 10
19.0906023587511
 20
11.37680569306099
 30
0.0
 11
19.0906023587511
 21
12.77680569306099
 31
0.0
  0
LINE
  5
22A
330
70
100
AcDbEntity
  8
bakeneko-65-plate v4_VISIBLE
100
AcDbLine
 10
33.02747735875111
 20
12.57680569306099
 30
0.0
 11
33.02747735875111
 21
11.27680569306099
 31
0.0
  0
LINE
  5
22B
330
70
100
AcDbEntity
  8
bakeneko-65-plate v4_VISIBLE
100
AcDbLine
 10
40.2212273587511
 20
12.62680569306099
 30
0.0
 11
41.5212273587511
 21
12.62680569306099
 31
0.0
  0
LINE
  5
22C
330
70
100
AcDbEntity
  8
bakeneko-65-plate v4_VISIBLE
100
AcDbLine
 10
30.88435235875111
 20
12.57680569306099
 30
0.0
 11
30.88435235875112
 21
11.27680569306099
 31
0.0
  0
LINE
  5
22D
330
70
100
AcDbEntity
  8
bakeneko-65-plate v4_VISIBLE
100
AcDbLine
 10
20.2162273587511
 20
11.32680569306099
 30
0.0
 11
19.1406023587511
 21
11.32680569306099
 31
0.0
  0
ARC
  5
22E
330
70
100
AcDbEntity
  8
bakeneko-65-plate v4_VISIBLE
100
AcDbCircle
 10
40.2212273587511
 20
11.27680569306099
 30
0.0
 40
0.0499999999999972
100
AcDbArc
 50
180.0
 51
270.0
  0
LINE
  5
22F
330
70
100
AcDbEntity
  8
bakeneko-65-plate v4_VISIBLE
100
AcDbLine
 10
40.1712273587511
 20
12.57680569306099
 30
0.0
 11
40.1712273587511
 21
11.27680569306099
 31
0.0
  0
ARC
  5
230
330
70
100
AcDbEntity
  8
bakeneko-65-plate v4_VISIBLE
100
AcDbCircle
 10
32.23435235875112
 20
12.57680569306099
 30
0.0
 40
0.0499999999999972
100
AcDbArc
 50
0.0
 51
90.0
  0
LINE
  5
231
330
70
100
AcDbEntity
  8
bakeneko-65-plate v4_VISIBLE
100
AcDbLine
 10
20.2162273587511
 20
12.82680569306099
 30
0.0
 11
19.1406023587511
 21
12.82680569306099
 31
0.0
  0
ARC
  5
232
330
70
100
AcDbEntity
  8
bakeneko-65-plate v4_VISIBLE
100
AcDbCircle
 10
41.5212273587511
 20
12.57680569306099
 30
0.0
 40
0.0499999999999972
100
AcDbArc
 50
0.0
 51
90.0
  0
ARC
  5
233
330
70
100
AcDbEntity
  8
bakeneko-65-plate v4_VISIBLE
100
AcDbCircle
 10
11.8843523587511
 20
16.38680569306099
 30
0.0
 40
0.0500000000000007
100
AcDbArc
 50
90.0
 51
180.0
  0
ARC
  5
234
330
70
100
AcDbEntity
  8
bakeneko-65-plate v4_VISIBLE
100
AcDbCircle
 10
32.23435235875112
 20
11.27680569306099
 30
0.0
 40
0.0500000000000007
100
AcDbArc
 50
270.0
 51
0.0
  0
LINE
  5
235
330
70
100
AcDbEntity
  8
bakeneko-65-plate v4_VISIBLE
100
AcDbLine
 10
11.8843523587511
 20
16.43680569306099
 30
0.0
 11
13.66060235875111
 21
16.43680569306099
 31
0.0
  0
LINE
  5
236
330
70
100
AcDbEntity
  8
bakeneko-65-plate v4_VISIBLE
100
AcDbLine
 10
38.3162273587511
 20
12.62680569306099
 30
0.0
 11
39.6162273587511
 21
12.62680569306099
 31
0.0
  0
LINE
  5
237
330
70
100
AcDbEntity
  8
bakeneko-65-plate v4_VISIBLE
100
AcDbLine
 10
38.3162273587511
 20
11.22680569306099
 30
0.0
 11
39.6162273587511
 21
11.22680569306099
 31
0.0
  0
ARC
  5
238
330
70
100
AcDbEntity
  8
bakeneko-65-plate v4_VISIBLE
100
AcDbCircle
 10
20.2162273587511
 20
11.37680569306099
 30
0.0
 40
0.0500000000000007
100
AcDbArc
 50
270.0
 51
0.0
  0
LINE
  5
239
330
70
100
AcDbEntity
  8
bakeneko-65-plate v4_VISIBLE
100
AcDbLine
 10
31.6462273587511
 20
12.82680569306099
 30
0.0
 11
31.0462273587511
 21
12.82680569306099
 31
0.0
  0
LINE
  5
23A
330
70
100
AcDbEntity
  8
bakeneko-65-plate v4_VISIBLE
100
AcDbLine
 10
36.3612273587511
 20
12.57680569306099
 30
0.0
 11
36.3612273587511
 21
11.27680569306099
 31
0.0
  0
ARC
  5
23B
330
70
100
AcDbEntity
  8
bakeneko-65-plate v4_VISIBLE
100
AcDbCircle
 10
39.50752735875111
 20
18.69680569306099
 30
0.0
 40
0.0500000000000007
100
AcDbArc
 50
270.0
 51
0.0
  0
LINE
  5
23C
330
70
100
AcDbEntity
  8
bakeneko-65-plate v4_VISIBLE
100
AcDbLine
 10
40.2212273587511
 20
11.22680569306099
 30
0.0
 11
41.5212273587511
 21
11.22680569306099
 31
0.0
  0
LINE
  5
23D
330
70
100
AcDbEntity
  8
bakeneko-65-plate v4_VISIBLE
100
AcDbLine
 10
30.93435235875111
 20
12.62680569306099
 30
0.0
 11
30.9462273587511
 21
12.62680569306099
 31
0.0
  0
ARC
  5
23E
330
70
100
AcDbEntity
  8
bakeneko-65-plate v4_VISIBLE
100
AcDbCircle
 10
29.74060235875112
 20
12.77680569306099
 30
0.0
 40
0.0500000000000007
100
AcDbArc
 50
0.0
 51
90.0
  0
ARC
  5
23F
330
70
100
AcDbEntity
  8
bakeneko-65-plate v4_VISIBLE
100
AcDbCircle
 10
29.14060235875112
 20
11.37680569306099
 30
0.0
 40
0.0500000000000007
100
AcDbArc
 50
180.0
 51
270.0
  0
ARC
  5
240
330
70
100
AcDbEntity
  8
bakeneko-65-plate v4_VISIBLE
100
AcDbCircle
 10
36.4112273587511
 20
12.57680569306099
 30
0.0
 40
0.0500000000000007
100
AcDbArc
 50
90.0
 51
180.0
  0
LINE
  5
241
330
70
100
AcDbEntity
  8
bakeneko-65-plate v4_VISIBLE
100
AcDbLine
 10
29.09060235875111
 20
11.37680569306099
 30
0.0
 11
29.09060235875111
 21
12.77680569306099
 31
0.0
  0
LINE
  5
242
330
70
100
AcDbEntity
  8
bakeneko-65-plate v4_VISIBLE
100
AcDbLine
 10
18.2349773587511
 20
12.57680569306099
 30
0.0
 11
18.2349773587511
 21
11.27680569306099
 31
0.0
  0
ARC
  5
243
330
70
100
AcDbEntity
  8
bakeneko-65-plate v4_VISIBLE
100
AcDbCircle
 10
29.74060235875112
 20
11.37680569306099
 30
0.0
 40
0.0500000000000007
100
AcDbArc
 50
270.0
 51
0.0
  0
ARC
  5
244
330
70
100
AcDbEntity
  8
bakeneko-65-plate v4_VISIBLE
100
AcDbCircle
 10
15.8037273587511
 20
12.57680569306099
 30
0.0
 40
0.0500000000000007
100
AcDbArc
 50
0.0
 51
90.0
  0
ARC
  5
245
330
70
100
AcDbEntity
  8
bakeneko-65-plate v4_VISIBLE
100
AcDbCircle
 10
16.6468523587511
 20
11.27680569306099
 30
0.0
 40
0.0500000000000007
100
AcDbArc
 50
180.0
 51
270.0
  0
ARC
  5
246
330
70
100
AcDbEntity
  8
bakeneko-65-plate v4_VISIBLE
100
AcDbCircle
 10
23.7906023587511
 20
12.57680569306099
 30
0.0
 40
0.0500000000000007
100
AcDbArc
 50
90.0
 51
180.0
  0
LINE
  5
247
330
70
100
AcDbEntity
  8
bakeneko-65-plate v4_VISIBLE
100
AcDbLine
 10
36.4112273587511
 20
11.22680569306099
 30
0.0
 11
37.7112273587511
 21
11.22680569306099
 31
0.0
  0
LINE
  5
248
330
70
100
AcDbEntity
  8
bakeneko-65-plate v4_VISIBLE
100
AcDbLine
 10
37.7612273587511
 20
12.57680569306099
 30
0.0
 11
37.7612273587511
 21
11.27680569306099
 31
0.0
  0
LINE
  5
249
330
70
100
AcDbEntity
  8
bakeneko-65-plate v4_VISIBLE
100
AcDbLine
 10
29.74060235875112
 20
12.82680569306099
 30
0.0
 11
29.14060235875112
 21
12.82680569306099
 31
0.0
  0
LINE
  5
24A
330
70
100
AcDbEntity
  8
bakeneko-65-plate v4_VISIBLE
100
AcDbLine
 10
15.8537273587511
 20
12.57680569306099
 30
0.0
 11
15.8537273587511
 21
11.27680569306099
 31
0.0
  0
LINE
  5
24B
330
70
100
AcDbEntity
  8
bakeneko-65-plate v4_VISIBLE
100
AcDbLine
 10
23.7406023587511
 20
12.57680569306099
 30
0.0
 11
23.7406023587511
 21
11.27680569306099
 31
0.0
  0
ARC
  5
24C
330
70
100
AcDbEntity
  8
bakeneko-65-plate v4_VISIBLE
100
AcDbCircle
 10
41.5212273587511
 20
14.48180569306099
 30
0.0
 40
0.0499999999999972
100
AcDbArc
 50
0.0
 51
90.0
  0
ARC
  5
24D
330
70
100
AcDbEntity
  8
bakeneko-65-plate v4_VISIBLE
100
AcDbCircle
 10
36.99685235875111
 20
13.18180569306099
 30
0.0
 40
0.0500000000000007
100
AcDbArc
 50
270.0
 51
0.0
  0
ARC
  5
24E
330
70
100
AcDbEntity
  8
bakeneko-65-plate v4_VISIBLE
100
AcDbCircle
 10
26.28122735875111
 20
11.27680569306099
 30
0.0
 40
0.0500000000000007
100
AcDbArc
 50
270.0
 51
0.0
  0
ARC
  5
24F
330
70
100
AcDbEntity
  8
bakeneko-65-plate v4_VISIBLE
100
AcDbCircle
 10
29.14060235875112
 20
12.77680569306099
 30
0.0
 40
0.0499999999999989
100
AcDbArc
 50
90.0
 51
180.0
  0
LINE
  5
250
330
70
100
AcDbEntity
  8
bakeneko-65-plate v4_VISIBLE
100
AcDbLine
 10
29.74060235875112
 20
11.32680569306099
 30
0.0
 11
29.14060235875112
 21
11.32680569306099
 31
0.0
  0
ARC
  5
251
330
70
100
AcDbEntity
  8
bakeneko-65-plate v4_VISIBLE
100
AcDbCircle
 10
23.7906023587511
 20
11.27680569306099
 30
0.0
 40
0.0500000000000007
100
AcDbArc
 50
180.0
 51
270.0
  0
ARC
  5
252
330
70
100
AcDbEntity
  8
bakeneko-65-plate v4_VISIBLE
100
AcDbCircle
 10
37.7112273587511
 20
12.57680569306099
 30
0.0
 40
0.0500000000000043
100
AcDbArc
 50
0.0
 51
90.0
  0
ARC
  5
253
330
70
100
AcDbEntity
  8
bakeneko-65-plate v4_VISIBLE
100
AcDbCircle
 10
14.2656023587511
 20
11.27680569306099
 30
0.0
 40
0.0500000000000007
100
AcDbArc
 50
180.0
 51
270.0
  0
ARC
  5
254
330
70
100
AcDbEntity
  8
bakeneko-65-plate v4_VISIBLE
100
AcDbCircle
 10
26.28122735875111
 20
12.57680569306099
 30
0.0
 40
0.0500000000000007
100
AcDbArc
 50
0.0
 51
90.0
  0
LINE
  5
255
330
70
100
AcDbEntity
  8
bakeneko-65-plate v4_VISIBLE
100
AcDbLine
 10
38.3162273587511
 20
13.13180569306099
 30
0.0
 11
39.6162273587511
 21
13.13180569306099
 31
0.0
  0
LINE
  5
256
330
70
100
AcDbEntity
  8
bakeneko-65-plate v4_VISIBLE
100
AcDbLine
 10
36.4112273587511
 20
12.62680569306099
 30
0.0
 11
37.7112273587511
 21
12.62680569306099
 31
0.0
  0
ARC
  5
257
330
70
100
AcDbEntity
  8
bakeneko-65-plate v4_VISIBLE
100
AcDbCircle
 10
18.1849773587511
 20
11.27680569306099
 30
0.0
 40
0.0500000000000007
100
AcDbArc
 50
270.0
 51
0.0
  0
ARC
  5
258
330
70
100
AcDbEntity
  8
bakeneko-65-plate v4_VISIBLE
100
AcDbCircle
 10
15.8037273587511
 20
11.27680569306099
 30
0.0
 40
0.0500000000000007
100
AcDbArc
 50
270.0
 51
0.0
  0
LINE
  5
259
330
70
100
AcDbEntity
  8
bakeneko-65-plate v4_VISIBLE
100
AcDbLine
 10
40.2212273587511
 20
14.53180569306099
 30
0.0
 11
41.5212273587511
 21
14.53180569306099
 31
0.0
  0
LINE
  5
25A
330
70
100
AcDbEntity
  8
bakeneko-65-plate v4_VISIBLE
100
AcDbLine
 10
26.33122735875112
 20
12.57680569306099
 30
0.0
 11
26.33122735875112
 21
11.27680569306099
 31
0.0
  0
LINE
  5
25B
330
70
100
AcDbEntity
  8
bakeneko-65-plate v4_VISIBLE
100
AcDbLine
 10
16.6468523587511
 20
11.22680569306099
 30
0.0
 11
18.1849773587511
 21
11.22680569306099
 31
0.0
  0
LINE
  5
25C
330
70
100
AcDbEntity
  8
bakeneko-65-plate v4_VISIBLE
100
AcDbLine
 10
16.6468523587511
 20
12.62680569306099
 30
0.0
 11
18.1849773587511
 21
12.62680569306099
 31
0.0
  0
LINE
  5
25D
330
70
100
AcDbEntity
  8
bakeneko-65-plate v4_VISIBLE
100
AcDbLine
 10
35.69685235875112
 20
13.13180569306099
 30
0.0
 11
36.99685235875111
 21
13.13180569306099
 31
0.0
  0
ARC
  5
25E
330
70
100
AcDbEntity
  8
bakeneko-65-plate v4_VISIBLE
100
AcDbCircle
 10
39.6162273587511
 20
13.18180569306099
 30
0.0
 40
0.0500000000000007
100
AcDbArc
 50
270.0
 51
0.0
  0
LINE
  5
25F
330
70
100
AcDbEntity
  8
bakeneko-65-plate v4_VISIBLE
100
AcDbLine
 10
23.7906023587511
 20
12.62680569306099
 30
0.0
 11
26.28122735875111
 21
12.62680569306099
 31
0.0
  0
ARC
  5
260
330
70
100
AcDbEntity
  8
bakeneko-65-plate v4_VISIBLE
100
AcDbCircle
 10
16.6468523587511
 20
12.57680569306099
 30
0.0
 40
0.0500000000000007
100
AcDbArc
 50
90.0
 51
180.0
  0
ARC
  5
261
330
70
100
AcDbEntity
  8
bakeneko-65-plate v4_VISIBLE
100
AcDbCircle
 10
11.8843523587511
 20
11.27680569306099
 30
0.0
 40
0.0500000000000007
100
AcDbArc
 50
180.0
 51
270.0
  0
ARC
  5
262
330
70
100
AcDbEntity
  8
bakeneko-65-plate v4_VISIBLE
100
AcDbCircle
 10
11.8843523587511
 20
12.57680569306099
 30
0.0
 40
0.0500000000000007
100
AcDbArc
 50
90.0
 51
180.0
  0
LINE
  5
263
330
70
100
AcDbEntity
  8
bakeneko-65-plate v4_VISIBLE
100
AcDbLine
 10
16.5968523587511
 20
12.57680569306099
 30
0.0
 11
16.5968523587511
 21
11.27680569306099
 31
0.0
  0
LINE
  5
264
330
70
100
AcDbEntity
  8
bakeneko-65-plate v4_VISIBLE
100
AcDbLine
 10
29.79060235875112
 20
11.37680569306099
 30
0.0
 11
29.79060235875112
 21
12.77680569306099
 31
0.0
  0
ARC
  5
265
330
70
100
AcDbEntity
  8
bakeneko-65-plate v4_VISIBLE
100
AcDbCircle
 10
35.69685235875112
 20
13.18180569306099
 30
0.0
 40
0.0499999999999972
100
AcDbArc
 50
180.0
 51
270.0
  0
LINE
  5
266
330
70
100
AcDbEntity
  8
bakeneko-65-plate v4_VISIBLE
100
AcDbLine
 10
23.7906023587511
 20
11.22680569306099
 30
0.0
 11
26.28122735875111
 21
11.22680569306099
 31
0.0
  0
LINE
  5
267
330
70
100
AcDbEntity
  8
bakeneko-65-plate v4_VISIBLE
100
AcDbLine
 10
11.8343523587511
 20
12.57680569306099
 30
0.0
 11
11.8343523587511
 21
11.27680569306099
 31
0.0
  0
ARC
  5
268
330
70
100
AcDbEntity
  8
bakeneko-65-plate v4_VISIBLE
100
AcDbCircle
 10
14.2656023587511
 20
12.57680569306099
 30
0.0
 40
0.0500000000000007
100
AcDbArc
 50
90.0
 51
180.0
  0
LINE
  5
269
330
70
100
AcDbEntity
  8
bakeneko-65-plate v4_VISIBLE
100
AcDbLine
 10
13.47247735875111
 20
12.57680569306099
 30
0.0
 11
13.47247735875111
 21
11.27680569306099
 31
0.0
  0
ARC
  5
26A
330
70
100
AcDbEntity
  8
bakeneko-65-plate v4_VISIBLE
100
AcDbCircle
 10
41.5212273587511
 20
13.18180569306099
 30
0.0
 40
0.0500000000000007
100
AcDbArc
 50
270.0
 51
0.0
  0
LINE
  5
26B
330
70
100
AcDbEntity
  8
bakeneko-65-plate v4_VISIBLE
100
AcDbLine
 10
27.31247735875112
 20
14.48180569306099
 30
0.0
 11
27.31247735875112
 21
13.18180569306099
 31
0.0
  0
LINE
  5
26C
330
70
100
AcDbEntity
  8
bakeneko-65-plate v4_VISIBLE
100
AcDbLine
 10
40.2212273587511
 20
13.13180569306099
 30
0.0
 11
41.5212273587511
 21
13.13180569306099
 31
0.0
  0
ARC
  5
26D
330
70
100
AcDbEntity
  8
bakeneko-65-plate v4_VISIBLE
100
AcDbCircle
 10
18.1849773587511
 20
12.57680569306099
 30
0.0
 40
0.0500000000000007
100
AcDbArc
 50
0.0
 51
90.0
  0
ARC
  5
26E
330
70
100
AcDbEntity
  8
bakeneko-65-plate v4_VISIBLE
100
AcDbCircle
 10
40.2212273587511
 20
13.18180569306099
 30
0.0
 40
0.0499999999999972
100
AcDbArc
 50
180.0
 51
270.0
  0
LINE
  5
26F
330
70
100
AcDbEntity
  8
bakeneko-65-plate v4_VISIBLE
100
AcDbLine
 10
14.2656023587511
 20
12.62680569306099
 30
0.0
 11
15.8037273587511
 21
12.62680569306099
 31
0.0
  0
ARC
  5
270
330
70
100
AcDbEntity
  8
bakeneko-65-plate v4_VISIBLE
100
AcDbCircle
 10
31.1724773587511
 20
14.48180569306099
 30
0.0
 40
0.0500000000000007
100
AcDbArc
 50
90.0
 51
180.0
  0
ARC
  5
271
330
70
100
AcDbEntity
  8
bakeneko-65-plate v4_VISIBLE
100
AcDbCircle
 10
38.3162273587511
 20
13.18180569306099
 30
0.0
 40
0.0499999999999972
100
AcDbArc
 50
180.0
 51
270.0
  0
ARC
  5
272
330
70
100
AcDbEntity
  8
bakeneko-65-plate v4_VISIBLE
100
AcDbCircle
 10
33.07747735875111
 20
14.48180569306099
 30
0.0
 40
0.0500000000000007
100
AcDbArc
 50
90.0
 51
180.0
  0
ARC
  5
273
330
70
100
AcDbEntity
  8
bakeneko-65-plate v4_VISIBLE
100
AcDbCircle
 10
13.42247735875111
 20
11.27680569306099
 30
0.0
 40
0.0500000000000007
100
AcDbArc
 50
270.0
 51
0.0
  0
LINE
  5
274
330
70
100
AcDbEntity
  8
bakeneko-65-plate v4_VISIBLE
100
AcDbLine
 10
14.2156023587511
 20
12.57680569306099
 30
0.0
 11
14.2156023587511
 21
11.27680569306099
 31
0.0
  0
ARC
  5
275
330
70
100
AcDbEntity
  8
bakeneko-65-plate v4_VISIBLE
100
AcDbCircle
 10
13.42247735875111
 20
12.57680569306099
 30
0.0
 40
0.0500000000000007
100
AcDbArc
 50
0.0
 51
90.0
  0
LINE
  5
276
330
70
100
AcDbEntity
  8
bakeneko-65-plate v4_VISIBLE
100
AcDbLine
 10
35.64685235875111
 20
14.48180569306099
 30
0.0
 11
35.64685235875112
 21
13.18180569306099
 31
0.0
  0
ARC
  5
277
330
70
100
AcDbEntity
  8
bakeneko-65-plate v4_VISIBLE
100
AcDbCircle
 10
40.2212273587511
 20
14.48180569306099
 30
0.0
 40
0.0500000000000007
100
AcDbArc
 50
90.0
 51
180.0
  0
LINE
  5
278
330
70
100
AcDbEntity
  8
bakeneko-65-plate v4_VISIBLE
100
AcDbLine
 10
41.5712273587511
 20
14.48180569306099
 30
0.0
 11
41.5712273587511
 21
13.18180569306099
 31
0.0
  0
LINE
  5
279
330
70
100
AcDbEntity
  8
bakeneko-65-plate v4_VISIBLE
100
AcDbLine
 10
39.6662273587511
 20
14.48180569306099
 30
0.0
 11
39.6662273587511
 21
13.18180569306099
 31
0.0
  0
LINE
  5
27A
330
70
100
AcDbEntity
  8
bakeneko-65-plate v4_VISIBLE
100
AcDbLine
 10
40.1712273587511
 20
14.48180569306099
 30
0.0
 11
40.1712273587511
 21
13.18180569306099
 31
0.0
  0
ARC
  5
27B
330
70
100
AcDbEntity
  8
bakeneko-65-plate v4_VISIBLE
100
AcDbCircle
 10
30.5674773587511
 20
13.18180569306099
 30
0.0
 40
0.0500000000000007
100
AcDbArc
 50
270.0
 51
0.0
  0
LINE
  5
27C
330
70
100
AcDbEntity
  8
bakeneko-65-plate v4_VISIBLE
100
AcDbLine
 10
38.3162273587511
 20
14.53180569306099
 30
0.0
 11
39.6162273587511
 21
14.53180569306099
 31
0.0
  0
LINE
  5
27D
330
70
100
AcDbEntity
  8
bakeneko-65-plate v4_VISIBLE
100
AcDbLine
 10
35.69685235875112
 20
14.53180569306099
 30
0.0
 11
36.99685235875111
 21
14.53180569306099
 31
0.0
  0
LINE
  5
27E
330
70
100
AcDbEntity
  8
bakeneko-65-plate v4_VISIBLE
100
AcDbLine
 10
11.8843523587511
 20
12.62680569306099
 30
0.0
 11
13.42247735875111
 21
12.62680569306099
 31
0.0
  0
ARC
  5
27F
330
70
100
AcDbEntity
  8
bakeneko-65-plate v4_VISIBLE
100
AcDbCircle
 10
34.3774773587511
 20
14.48180569306099
 30
0.0
 40
0.0499999999999972
100
AcDbArc
 50
0.0
 51
90.0
  0
ARC
  5
280
330
70
100
AcDbEntity
  8
bakeneko-65-plate v4_VISIBLE
100
AcDbCircle
 10
35.69685235875112
 20
14.48180569306099
 30
0.0
 40
0.0500000000000007
100
AcDbArc
 50
90.0
 51
180.0
  0
LINE
  5
281
330
70
100
AcDbEntity
  8
bakeneko-65-plate v4_VISIBLE
100
AcDbLine
 10
33.07747735875111
 20
14.53180569306099
 30
0.0
 11
34.3774773587511
 21
14.53180569306099
 31
0.0
  0
ARC
  5
282
330
70
100
AcDbEntity
  8
bakeneko-65-plate v4_VISIBLE
100
AcDbCircle
 10
34.3774773587511
 20
13.18180569306099
 30
0.0
 40
0.0500000000000007
100
AcDbArc
 50
270.0
 51
0.0
  0
ARC
  5
283
330
70
100
AcDbEntity
  8
bakeneko-65-plate v4_VISIBLE
100
AcDbCircle
 10
30.5674773587511
 20
14.48180569306099
 30
0.0
 40
0.0500000000000007
100
AcDbArc
 50
0.0
 51
90.0
  0
ARC
  5
284
330
70
100
AcDbEntity
  8
bakeneko-65-plate v4_VISIBLE
100
AcDbCircle
 10
33.07747735875111
 20
13.18180569306099
 30
0.0
 40
0.0499999999999972
100
AcDbArc
 50
180.0
 51
270.0
  0
ARC
  5
285
330
70
100
AcDbEntity
  8
bakeneko-65-plate v4_VISIBLE
100
AcDbCircle
 10
38.3162273587511
 20
14.48180569306099
 30
0.0
 40
0.0499999999999989
100
AcDbArc
 50
90.0
 51
180.0
  0
LINE
  5
286
330
70
100
AcDbEntity
  8
bakeneko-65-plate v4_VISIBLE
100
AcDbLine
 10
14.2656023587511
 20
11.22680569306099
 30
0.0
 11
15.8037273587511
 21
11.22680569306099
 31
0.0
  0
ARC
  5
287
330
70
100
AcDbEntity
  8
bakeneko-65-plate v4_VISIBLE
100
AcDbCircle
 10
32.4724773587511
 20
14.48180569306099
 30
0.0
 40
0.0499999999999972
100
AcDbArc
 50
0.0
 51
90.0
  0
LINE
  5
288
330
70
100
AcDbEntity
  8
bakeneko-65-plate v4_VISIBLE
100
AcDbLine
 10
31.1224773587511
 20
14.48180569306099
 30
0.0
 11
31.1224773587511
 21
13.18180569306099
 31
0.0
  0
ARC
  5
289
330
70
100
AcDbEntity
  8
bakeneko-65-plate v4_VISIBLE
100
AcDbCircle
 10
31.1724773587511
 20
13.18180569306099
 30
0.0
 40
0.0500000000000007
100
AcDbArc
 50
180.0
 51
270.0
  0
LINE
  5
28A
330
70
100
AcDbEntity
  8
bakeneko-65-plate v4_VISIBLE
100
AcDbLine
 10
37.04685235875112
 20
14.48180569306099
 30
0.0
 11
37.04685235875111
 21
13.18180569306099
 31
0.0
  0
ARC
  5
28B
330
70
100
AcDbEntity
  8
bakeneko-65-plate v4_VISIBLE
100
AcDbCircle
 10
39.6162273587511
 20
14.48180569306099
 30
0.0
 40
0.0499999999999972
100
AcDbArc
 50
0.0
 51
90.0
  0
LINE
  5
28C
330
70
100
AcDbEntity
  8
bakeneko-65-plate v4_VISIBLE
100
AcDbLine
 10
11.8843523587511
 20
11.22680569306099
 30
0.0
 11
13.42247735875111
 21
11.22680569306099
 31
0.0
  0
LINE
  5
28D
330
70
100
AcDbEntity
  8
bakeneko-65-plate v4_VISIBLE
100
AcDbLine
 10
33.02747735875111
 20
14.48180569306099
 30
0.0
 11
33.02747735875111
 21
13.18180569306099
 31
0.0
  0
ARC
  5
28E
330
70
100
AcDbEntity
  8
bakeneko-65-plate v4_VISIBLE
100
AcDbCircle
 10
24.8524773587511
 20
14.48180569306099
 30
0.0
 40
0.0500000000000007
100
AcDbArc
 50
0.0
 51
90.0
  0
LINE
  5
28F
330
70
100
AcDbEntity
  8
bakeneko-65-plate v4_VISIBLE
100
AcDbLine
 10
21.6474773587511
 20
14.53180569306099
 30
0.0
 11
22.9474773587511
 21
14.53180569306099
 31
0.0
  0
LINE
  5
290
330
70
100
AcDbEntity
  8
bakeneko-65-plate v4_VISIBLE
100
AcDbLine
 10
31.1724773587511
 20
14.53180569306099
 30
0.0
 11
32.4724773587511
 21
14.53180569306099
 31
0.0
  0
LINE
  5
291
330
70
100
AcDbEntity
  8
bakeneko-65-plate v4_VISIBLE
100
AcDbLine
 10
23.5024773587511
 20
14.48180569306099
 30
0.0
 11
23.5024773587511
 21
13.18180569306099
 31
0.0
  0
LINE
  5
292
330
70
100
AcDbEntity
  8
bakeneko-65-plate v4_VISIBLE
100
AcDbLine
 10
29.2174773587511
 20
14.48180569306099
 30
0.0
 11
29.2174773587511
 21
13.18180569306099
 31
0.0
  0
ARC
  5
293
330
70
100
AcDbEntity
  8
bakeneko-65-plate v4_VISIBLE
100
AcDbCircle
 10
29.2674773587511
 20
13.18180569306099
 30
0.0
 40
0.0500000000000007
100
AcDbArc
 50
180.0
 51
270.0
  0
LINE
  5
294
330
70
100
AcDbEntity
  8
bakeneko-65-plate v4_VISIBLE
100
AcDbLine
 10
19.6924773587511
 20
14.48180569306099
 30
0.0
 11
19.6924773587511
 21
13.18180569306099
 31
0.0
  0
ARC
  5
295
330
70
100
AcDbEntity
  8
bakeneko-65-plate v4_VISIBLE
100
AcDbCircle
 10
21.04247735875111
 20
13.18180569306099
 30
0.0
 40
0.0500000000000007
100
AcDbArc
 50
270.0
 51
0.0
  0
LINE
  5
296
330
70
100
AcDbEntity
  8
bakeneko-65-plate v4_VISIBLE
100
AcDbLine
 10
38.2662273587511
 20
14.48180569306099
 30
0.0
 11
38.2662273587511
 21
13.18180569306099
 31
0.0
  0
ARC
  5
297
330
70
100
AcDbEntity
  8
bakeneko-65-plate v4_VISIBLE
100
AcDbCircle
 10
27.36247735875112
 20
13.18180569306099
 30
0.0
 40
0.0500000000000007
100
AcDbArc
 50
180.0
 51
270.0
  0
LINE
  5
298
330
70
100
AcDbEntity
  8
bakeneko-65-plate v4_VISIBLE
100
AcDbLine
 10
27.36247735875112
 20
13.13180569306099
 30
0.0
 11
28.66247735875111
 21
13.13180569306099
 31
0.0
  0
ARC
  5
299
330
70
100
AcDbEntity
  8
bakeneko-65-plate v4_VISIBLE
100
AcDbCircle
 10
28.66247735875111
 20
14.48180569306099
 30
0.0
 40
0.0500000000000007
100
AcDbArc
 50
0.0
 51
90.0
  0
LINE
  5
29A
330
70
100
AcDbEntity
  8
bakeneko-65-plate v4_VISIBLE
100
AcDbLine
 10
34.4274773587511
 20
14.48180569306099
 30
0.0
 11
34.4274773587511
 21
13.18180569306099
 31
0.0
  0
ARC
  5
29B
330
70
100
AcDbEntity
  8
bakeneko-65-plate v4_VISIBLE
100
AcDbCircle
 10
25.45747735875111
 20
13.18180569306099
 30
0.0
 40
0.0500000000000007
100
AcDbArc
 50
180.0
 51
270.0
  0
LINE
  5
29C
330
70
100
AcDbEntity
  8
bakeneko-65-plate v4_VISIBLE
100
AcDbLine
 10
29.2674773587511
 20
13.13180569306099
 30
0.0
 11
30.5674773587511
 21
13.13180569306099
 31
0.0
  0
ARC
  5
29D
330
70
100
AcDbEntity
  8
bakeneko-65-plate v4_VISIBLE
100
AcDbCircle
 10
28.66247735875111
 20
13.18180569306099
 30
0.0
 40
0.0500000000000007
100
AcDbArc
 50
270.0
 51
0.0
  0
LINE
  5
29E
330
70
100
AcDbEntity
  8
bakeneko-65-plate v4_VISIBLE
100
AcDbLine
 10
21.6474773587511
 20
13.13180569306099
 30
0.0
 11
22.9474773587511
 21
13.13180569306099
 31
0.0
  0
LINE
  5
29F
330
70
100
AcDbEntity
  8
bakeneko-65-plate v4_VISIBLE
100
AcDbLine
 10
23.5524773587511
 20
13.13180569306099
 30
0.0
 11
24.8524773587511
 21
13.13180569306099
 31
0.0
  0
LINE
  5
2A0
330
70
100
AcDbEntity
  8
bakeneko-65-plate v4_VISIBLE
100
AcDbLine
 10
26.80747735875112
 20
14.48180569306099
 30
0.0
 11
26.80747735875112
 21
13.18180569306099
 31
0.0
  0
LINE
  5
2A1
330
70
100
AcDbEntity
  8
bakeneko-65-plate v4_VISIBLE
100
AcDbLine
 10
23.5524773587511
 20
14.53180569306099
 30
0.0
 11
24.8524773587511
 21
14.53180569306099
 31
0.0
  0
ARC
  5
2A2
330
70
100
AcDbEntity
  8
bakeneko-65-plate v4_VISIBLE
100
AcDbCircle
 10
26.75747735875111
 20
13.18180569306099
 30
0.0
 40
0.0500000000000007
100
AcDbArc
 50
270.0
 51
0.0
  0
LINE
  5
2A3
330
70
100
AcDbEntity
  8
bakeneko-65-plate v4_VISIBLE
100
AcDbLine
 10
29.2674773587511
 20
14.53180569306099
 30
0.0
 11
30.5674773587511
 21
14.53180569306099
 31
0.0
  0
ARC
  5
2A4
330
70
100
AcDbEntity
  8
bakeneko-65-plate v4_VISIBLE
100
AcDbCircle
 10
29.2674773587511
 20
14.48180569306099
 30
0.0
 40
0.0500000000000007
100
AcDbArc
 50
90.0
 51
180.0
  0
ARC
  5
2A5
330
70
100
AcDbEntity
  8
bakeneko-65-plate v4_VISIBLE
100
AcDbCircle
 10
21.6474773587511
 20
13.18180569306099
 30
0.0
 40
0.0500000000000007
100
AcDbArc
 50
180.0
 51
270.0
  0
LINE
  5
2A6
330
70
100
AcDbEntity
  8
bakeneko-65-plate v4_VISIBLE
100
AcDbLine
 10
21.5974773587511
 20
14.48180569306099
 30
0.0
 11
21.5974773587511
 21
13.18180569306099
 31
0.0
  0
ARC
  5
2A7
330
70
100
AcDbEntity
  8
bakeneko-65-plate v4_VISIBLE
100
AcDbCircle
 10
19.74247735875111
 20
13.18180569306099
 30
0.0
 40
0.0500000000000007
100
AcDbArc
 50
180.0
 51
270.0
  0
ARC
  5
2A8
330
70
100
AcDbEntity
  8
bakeneko-65-plate v4_VISIBLE
100
AcDbCircle
 10
23.5524773587511
 20
13.18180569306099
 30
0.0
 40
0.0500000000000007
100
AcDbArc
 50
180.0
 51
270.0
  0
LINE
  5
2A9
330
70
100
AcDbEntity
  8
bakeneko-65-plate v4_VISIBLE
100
AcDbLine
 10
25.40747735875111
 20
14.48180569306099
 30
0.0
 11
25.40747735875111
 21
13.18180569306099
 31
0.0
  0
LINE
  5
2AA
330
70
100
AcDbEntity
  8
bakeneko-65-plate v4_VISIBLE
100
AcDbLine
 10
19.74247735875111
 20
13.13180569306099
 30
0.0
 11
21.04247735875111
 21
13.13180569306099
 31
0.0
  0
ARC
  5
2AB
330
70
100
AcDbEntity
  8
bakeneko-65-plate v4_VISIBLE
100
AcDbCircle
 10
22.9474773587511
 20
14.48180569306099
 30
0.0
 40
0.0500000000000007
100
AcDbArc
 50
0.0
 51
90.0
  0
ARC
  5
2AC
330
70
100
AcDbEntity
  8
bakeneko-65-plate v4_VISIBLE
100
AcDbCircle
 10
32.4724773587511
 20
13.18180569306099
 30
0.0
 40
0.0500000000000007
100
AcDbArc
 50
270.0
 51
0.0
  0
ARC
  5
2AD
330
70
100
AcDbEntity
  8
bakeneko-65-plate v4_VISIBLE
100
AcDbCircle
 10
36.99685235875111
 20
14.48180569306099
 30
0.0
 40
0.0499999999999972
100
AcDbArc
 50
0.0
 51
90.0
  0
ARC
  5
2AE
330
70
100
AcDbEntity
  8
bakeneko-65-plate v4_VISIBLE
100
AcDbCircle
 10
22.9474773587511
 20
13.18180569306099
 30
0.0
 40
0.0500000000000007
100
AcDbArc
 50
270.0
 51
0.0
  0
ARC
  5
2AF
330
70
100
AcDbEntity
  8
bakeneko-65-plate v4_VISIBLE
100
AcDbCircle
 10
21.6474773587511
 20
14.48180569306099
 30
0.0
 40
0.0500000000000007
100
AcDbArc
 50
90.0
 51
180.0
  0
ARC
  5
2B0
330
70
100
AcDbEntity
  8
bakeneko-65-plate v4_VISIBLE
100
AcDbCircle
 10
26.75747735875111
 20
14.48180569306099
 30
0.0
 40
0.0500000000000007
100
AcDbArc
 50
0.0
 51
90.0
  0
ARC
  5
2B1
330
70
100
AcDbEntity
  8
bakeneko-65-plate v4_VISIBLE
100
AcDbCircle
 10
25.45747735875111
 20
14.48180569306099
 30
0.0
 40
0.0500000000000007
100
AcDbArc
 50
90.0
 51
180.0
  0
LINE
  5
2B2
330
70
100
AcDbEntity
  8
bakeneko-65-plate v4_VISIBLE
100
AcDbLine
 10
31.1724773587511
 20
13.13180569306099
 30
0.0
 11
32.4724773587511
 21
13.13180569306099
 31
0.0
  0
ARC
  5
2B3
330
70
100
AcDbEntity
  8
bakeneko-65-plate v4_VISIBLE
100
AcDbCircle
 10
24.8524773587511
 20
13.18180569306099
 30
0.0
 40
0.0500000000000007
100
AcDbArc
 50
270.0
 51
0.0
  0
ARC
  5
2B4
330
70
100
AcDbEntity
  8
bakeneko-65-plate v4_VISIBLE
100
AcDbCircle
 10
23.5524773587511
 20
14.48180569306099
 30
0.0
 40
0.0500000000000007
100
AcDbArc
 50
90.0
 51
180.0
  0
LINE
  5
2B5
330
70
100
AcDbEntity
  8
bakeneko-65-plate v4_VISIBLE
100
AcDbLine
 10
33.07747735875111
 20
13.13180569306099
 30
0.0
 11
34.3774773587511
 21
13.13180569306099
 31
0.0
  0
LINE
  5
2B6
330
70
100
AcDbEntity
  8
bakeneko-65-plate v4_VISIBLE
100
AcDbLine
 10
32.5224773587511
 20
14.48180569306099
 30
0.0
 11
32.5224773587511
 21
13.18180569306099
 31
0.0
  0
LINE
  5
2B7
330
70
100
AcDbEntity
  8
bakeneko-65-plate v4_VISIBLE
100
AcDbLine
 10
25.45747735875111
 20
13.13180569306099
 30
0.0
 11
26.75747735875111
 21
13.13180569306099
 31
0.0
  0
LINE
  5
2B8
330
70
100
AcDbEntity
  8
bakeneko-65-plate v4_VISIBLE
100
AcDbLine
 10
22.9974773587511
 20
14.48180569306099
 30
0.0
 11
22.9974773587511
 21
13.18180569306099
 31
0.0
  0
ARC
  5
2B9
330
70
100
AcDbEntity
  8
bakeneko-65-plate v4_VISIBLE
100
AcDbCircle
 10
27.36247735875112
 20
14.48180569306099
 30
0.0
 40
0.0500000000000007
100
AcDbArc
 50
90.0
 51
180.0
  0
LINE
  5
2BA
330
70
100
AcDbEntity
  8
bakeneko-65-plate v4_VISIBLE
100
AcDbLine
 10
24.9024773587511
 20
14.48180569306099
 30
0.0
 11
24.9024773587511
 21
13.18180569306099
 31
0.0
  0
LINE
  5
2BB
330
70
100
AcDbEntity
  8
bakeneko-65-plate v4_VISIBLE
100
AcDbLine
 10
15.0306523587511
 20
14.48180569306099
 30
0.0
 11
15.0306523587511
 21
12.98180569306099
 31
0.0
  0
ARC
  5
2BC
330
70
100
AcDbEntity
  8
bakeneko-65-plate v4_VISIBLE
100
AcDbCircle
 10
14.9806523587511
 20
12.98180569306099
 30
0.0
 40
0.0500000000000007
100
AcDbArc
 50
270.0
 51
0.0
  0
ARC
  5
2BD
330
70
100
AcDbEntity
  8
bakeneko-65-plate v4_VISIBLE
100
AcDbCircle
 10
17.2324773587511
 20
14.48180569306099
 30
0.0
 40
0.0500000000000007
100
AcDbArc
 50
0.0
 51
90.0
  0
LINE
  5
2BE
330
70
100
AcDbEntity
  8
bakeneko-65-plate v4_VISIBLE
100
AcDbLine
 10
30.6174773587511
 20
14.48180569306099
 30
0.0
 11
30.6174773587511
 21
13.18180569306099
 31
0.0
  0
LINE
  5
2BF
330
70
100
AcDbEntity
  8
bakeneko-65-plate v4_VISIBLE
100
AcDbLine
 10
19.74247735875111
 20
14.53180569306099
 30
0.0
 11
21.04247735875111
 21
14.53180569306099
 31
0.0
  0
LINE
  5
2C0
330
70
100
AcDbEntity
  8
bakeneko-65-plate v4_VISIBLE
100
AcDbLine
 10
25.45747735875111
 20
14.53180569306099
 30
0.0
 11
26.75747735875111
 21
14.53180569306099
 31
0.0
  0
LINE
  5
2C1
330
70
100
AcDbEntity
  8
bakeneko-65-plate v4_VISIBLE
100
AcDbLine
 10
27.36247735875112
 20
14.53180569306099
 30
0.0
 11
28.66247735875111
 21
14.53180569306099
 31
0.0
  0
LINE
  5
2C2
330
70
100
AcDbEntity
  8
bakeneko-65-plate v4_VISIBLE
100
AcDbLine
 10
28.71247735875112
 20
14.48180569306099
 30
0.0
 11
28.71247735875112
 21
13.18180569306099
 31
0.0
  0
ARC
  5
2C3
330
70
100
AcDbEntity
  8
bakeneko-65-plate v4_VISIBLE
100
AcDbCircle
 10
19.1374773587511
 20
14.48180569306099
 30
0.0
 40
0.0500000000000007
100
AcDbArc
 50
0.0
 51
90.0
  0
ARC
  5
2C4
330
70
100
AcDbEntity
  8
bakeneko-65-plate v4_VISIBLE
100
AcDbCircle
 10
19.1374773587511
 20
13.18180569306099
 30
0.0
 40
0.0500000000000007
100
AcDbArc
 50
270.0
 51
0.0
  0
LINE
  5
2C5
330
70
100
AcDbEntity
  8
bakeneko-65-plate v4_VISIBLE
100
AcDbLine
 10
17.7874773587511
 20
14.48180569306099
 30
0.0
 11
17.7874773587511
 21
13.18180569306099
 31
0.0
  0
ARC
  5
2C6
330
70
100
AcDbEntity
  8
bakeneko-65-plate v4_VISIBLE
100
AcDbCircle
 10
21.04247735875111
 20
14.48180569306099
 30
0.0
 40
0.0500000000000007
100
AcDbArc
 50
0.0
 51
90.0
  0
LINE
  5
2C7
330
70
100
AcDbEntity
  8
bakeneko-65-plate v4_VISIBLE
100
AcDbLine
 10
15.88247735875111
 20
14.48180569306099
 30
0.0
 11
15.88247735875111
 21
13.18180569306099
 31
0.0
  0
ARC
  5
2C8
330
70
100
AcDbEntity
  8
bakeneko-65-plate v4_VISIBLE
100
AcDbCircle
 10
36.9818023587511
 20
14.98680569306099
 30
0.0
 40
0.0500000000000007
100
AcDbArc
 50
90.0
 51
180.0
  0
LINE
  5
2C9
330
70
100
AcDbEntity
  8
bakeneko-65-plate v4_VISIBLE
100
AcDbLine
 10
15.93247735875111
 20
14.53180569306099
 30
0.0
 11
17.2324773587511
 21
14.53180569306099
 31
0.0
  0
ARC
  5
2CA
330
70
100
AcDbEntity
  8
bakeneko-65-plate v4_VISIBLE
100
AcDbCircle
 10
39.2694023587511
 20
16.58680569306099
 30
0.0
 40
0.0499999999999972
100
AcDbArc
 50
0.0
 51
90.0
  0
ARC
  5
2CB
330
70
100
AcDbEntity
  8
bakeneko-65-plate v4_VISIBLE
100
AcDbCircle
 10
11.99305235875111
 20
12.98180569306099
 30
0.0
 40
0.0500000000000007
100
AcDbArc
 50
180.0
 51
270.0
  0
ARC
  5
2CC
330
70
100
AcDbEntity
  8
bakeneko-65-plate v4_VISIBLE
100
AcDbCircle
 10
11.99305235875111
 20
14.48180569306099
 30
0.0
 40
0.0500000000000007
100
AcDbArc
 50
90.0
 51
180.0
  0
ARC
  5
2CD
330
70
100
AcDbEntity
  8
bakeneko-65-plate v4_VISIBLE
100
AcDbCircle
 10
38.66940235875111
 20
16.58680569306099
 30
0.0
 40
0.0500000000000007
100
AcDbArc
 50
90.0
 51
180.0
  0
LINE
  5
2CE
330
70
100
AcDbEntity
  8
bakeneko-65-plate v4_VISIBLE
100
AcDbLine
 10
17.28247735875111
 20
14.48180569306099
 30
0.0
 11
17.28247735875111
 21
13.18180569306099
 31
0.0
  0
LINE
  5
2CF
330
70
100
AcDbEntity
  8
bakeneko-65-plate v4_VISIBLE
100
AcDbLine
 10
36.88180235875111
 20
16.63680569306099
 30
0.0
 11
36.2818023587511
 21
16.63680569306099
 31
0.0
  0
ARC
  5
2D0
330
70
100
AcDbEntity
  8
bakeneko-65-plate v4_VISIBLE
100
AcDbCircle
 10
36.88180235875111
 20
16.58680569306099
 30
0.0
 40
0.0499999999999972
100
AcDbArc
 50
0.0
 51
90.0
  0
ARC
  5
2D1
330
70
100
AcDbEntity
  8
bakeneko-65-plate v4_VISIBLE
100
AcDbCircle
 10
40.2212273587511
 20
15.08680569306099
 30
0.0
 40
0.0499999999999972
100
AcDbArc
 50
180.0
 51
270.0
  0
LINE
  5
2D2
330
70
100
AcDbEntity
  8
bakeneko-65-plate v4_VISIBLE
100
AcDbLine
 10
11.94305235875111
 20
14.48180569306099
 30
0.0
 11
11.94305235875111
 21
12.98180569306099
 31
0.0
  0
ARC
  5
2D3
330
70
100
AcDbEntity
  8
bakeneko-65-plate v4_VISIBLE
100
AcDbCircle
 10
40.2212273587511
 20
16.38680569306099
 30
0.0
 40
0.0500000000000007
100
AcDbArc
 50
90.0
 51
180.0
  0
LINE
  5
2D4
330
70
100
AcDbEntity
  8
bakeneko-65-plate v4_VISIBLE
100
AcDbLine
 10
11.99305235875111
 20
14.53180569306099
 30
0.0
 11
14.9806523587511
 21
14.53180569306099
 31
0.0
  0
LINE
  5
2D5
330
70
100
AcDbEntity
  8
bakeneko-65-plate v4_VISIBLE
100
AcDbLine
 10
40.1712273587511
 20
16.38680569306099
 30
0.0
 11
40.1712273587511
 21
15.08680569306099
 31
0.0
  0
ARC
  5
2D6
330
70
100
AcDbEntity
  8
bakeneko-65-plate v4_VISIBLE
100
AcDbCircle
 10
17.8374773587511
 20
14.48180569306099
 30
0.0
 40
0.0500000000000007
100
AcDbArc
 50
90.0
 51
180.0
  0
ARC
  5
2D7
330
70
100
AcDbEntity
  8
bakeneko-65-plate v4_VISIBLE
100
AcDbCircle
 10
17.2324773587511
 20
13.18180569306099
 30
0.0
 40
0.0500000000000007
100
AcDbArc
 50
270.0
 51
0.0
  0
LINE
  5
2D8
330
70
100
AcDbEntity
  8
bakeneko-65-plate v4_VISIBLE
100
AcDbLine
 10
15.93247735875111
 20
13.13180569306099
 30
0.0
 11
17.2324773587511
 21
13.13180569306099
 31
0.0
  0
ARC
  5
2D9
330
70
100
AcDbEntity
  8
bakeneko-65-plate v4_VISIBLE
100
AcDbCircle
 10
14.3806523587511
 20
12.98180569306099
 30
0.0
 40
0.0500000000000007
100
AcDbArc
 50
180.0
 51
270.0
  0
ARC
  5
2DA
330
70
100
AcDbEntity
  8
bakeneko-65-plate v4_VISIBLE
100
AcDbCircle
 10
17.8374773587511
 20
13.18180569306099
 30
0.0
 40
0.0500000000000007
100
AcDbArc
 50
180.0
 51
270.0
  0
ARC
  5
2DB
330
70
100
AcDbEntity
  8
bakeneko-65-plate v4_VISIBLE
100
AcDbCircle
 10
14.2806523587511
 20
13.08180569306099
 30
0.0
 40
0.0500000000000007
100
AcDbArc
 50
0.0
 51
90.0
  0
ARC
  5
2DC
330
70
100
AcDbEntity
  8
bakeneko-65-plate v4_VISIBLE
100
AcDbCircle
 10
15.93247735875111
 20
14.48180569306099
 30
0.0
 40
0.0500000000000007
100
AcDbArc
 50
90.0
 51
180.0
  0
LINE
  5
2DD
330
70
100
AcDbEntity
  8
bakeneko-65-plate v4_VISIBLE
100
AcDbLine
 10
12.69305235875111
 20
13.13180569306099
 30
0.0
 11
14.2806523587511
 21
13.13180569306099
 31
0.0
  0
ARC
  5
2DE
330
70
100
AcDbEntity
  8
bakeneko-65-plate v4_VISIBLE
100
AcDbCircle
 10
14.9806523587511
 20
14.48180569306099
 30
0.0
 40
0.0500000000000007
100
AcDbArc
 50
0.0
 51
90.0
  0
ARC
  5
2DF
330
70
100
AcDbEntity
  8
bakeneko-65-plate v4_VISIBLE
100
AcDbCircle
 10
38.66940235875111
 20
14.88680569306099
 30
0.0
 40
0.0499999999999972
100
AcDbArc
 50
180.0
 51
270.0
  0
ARC
  5
2E0
330
70
100
AcDbEntity
  8
bakeneko-65-plate v4_VISIBLE
100
AcDbCircle
 10
36.88180235875111
 20
14.88680569306099
 30
0.0
 40
0.0500000000000007
100
AcDbArc
 50
270.0
 51
0.0
  0
LINE
  5
2E1
330
70
100
AcDbEntity
  8
bakeneko-65-plate v4_VISIBLE
100
AcDbLine
 10
17.8374773587511
 20
14.53180569306099
 30
0.0
 11
19.1374773587511
 21
14.53180569306099
 31
0.0
  0
ARC
  5
2E2
330
70
100
AcDbEntity
  8
bakeneko-65-plate v4_VISIBLE
100
AcDbCircle
 10
19.74247735875111
 20
14.48180569306099
 30
0.0
 40
0.0500000000000007
100
AcDbArc
 50
90.0
 51
180.0
  0
LINE
  5
2E3
330
70
100
AcDbEntity
  8
bakeneko-65-plate v4_VISIBLE
100
AcDbLine
 10
39.3194023587511
 20
14.88680569306099
 30
0.0
 11
39.3194023587511
 21
16.58680569306099
 31
0.0
  0
ARC
  5
2E4
330
70
100
AcDbEntity
  8
bakeneko-65-plate v4_VISIBLE
100
AcDbCircle
 10
39.2694023587511
 20
14.88680569306099
 30
0.0
 40
0.0500000000000007
100
AcDbArc
 50
270.0
 51
0.0
  0
LINE
  5
2E5
330
70
100
AcDbEntity
  8
bakeneko-65-plate v4_VISIBLE
100
AcDbLine
 10
12.64305235875111
 20
13.08180569306099
 30
0.0
 11
12.64305235875111
 21
12.98180569306099
 31
0.0
  0
LINE
  5
2E6
330
70
100
AcDbEntity
  8
bakeneko-65-plate v4_VISIBLE
100
AcDbLine
 10
33.31372735875111
 20
20.44930569306099
 30
0.0
 11
33.31372735875111
 21
20.42430569306099
 31
0.0
  0
ARC
  5
2E7
330
70
100
AcDbEntity
  8
bakeneko-65-plate v4_VISIBLE
100
AcDbCircle
 10
31.36372735875112
 20
20.42430569306099
 30
0.0
 40
0.0499999999999972
100
AcDbArc
 50
180.0
 51
270.0
  0
ARC
  5
2E8
330
70
100
AcDbEntity
  8
bakeneko-65-plate v4_VISIBLE
100
AcDbCircle
 10
31.56372735875111
 20
20.42430569306099
 30
0.0
 40
0.0500000000000007
100
AcDbArc
 50
270.0
 51
0.0
  0
LINE
  5
2E9
330
70
100
AcDbEntity
  8
bakeneko-65-plate v4_VISIBLE
100
AcDbLine
 10
11.5687273587511
 20
20.49930569306099
 30
0.0
 11
14.1037273587511
 21
20.49930569306099
 31
0.0
  0
ARC
  5
2EA
330
70
100
AcDbEntity
  8
bakeneko-65-plate v4_VISIBLE
100
AcDbCircle
 10
38.8075273587511
 20
18.79680569306099
 30
0.0
 40
0.0499999999999972
100
AcDbArc
 50
0.0
 51
90.0
  0
ARC
  5
2EB
330
70
100
AcDbEntity
  8
bakeneko-65-plate v4_VISIBLE
100
AcDbCircle
 10
11.5687273587511
 20
11.19930569306099
 30
0.0
 40
0.2249999999999996
100
AcDbArc
 50
180.0
 51
270.0
  0
ARC
  5
2EC
330
70
100
AcDbEntity
  8
bakeneko-65-plate v4_VISIBLE
100
AcDbCircle
 10
38.90752735875111
 20
18.69680569306099
 30
0.0
 40
0.0499999999999972
100
AcDbArc
 50
180.0
 51
270.0
  0
LINE
  5
2ED
330
70
100
AcDbEntity
  8
bakeneko-65-plate v4_VISIBLE
100
AcDbLine
 10
35.28122735875112
 20
12.87930569306099
 30
0.0
 11
35.9837273587511
 21
12.87930569306099
 31
0.0
  0
ARC
  5
2EE
330
70
100
AcDbEntity
  8
bakeneko-65-plate v4_VISIBLE
100
AcDbCircle
 10
15.9037273587511
 20
20.42430569306099
 30
0.0
 40
0.0500000000000007
100
AcDbArc
 50
180.0
 51
270.0
  0
ARC
  5
2EF
330
70
100
AcDbEntity
  8
bakeneko-65-plate v4_VISIBLE
100
AcDbCircle
 10
37.2199273587511
 20
18.79680569306099
 30
0.0
 40
0.0500000000000007
100
AcDbArc
 50
90.0
 51
180.0
  0
ARC
  5
2F0
330
70
100
AcDbEntity
  8
bakeneko-65-plate v4_VISIBLE
100
AcDbCircle
 10
11.5687273587511
 20
20.27430569306099
 30
0.0
 40
0.2250000000000014
100
AcDbArc
 50
90.0
 51
180.0
  0
LINE
  5
2F1
330
70
100
AcDbEntity
  8
bakeneko-65-plate v4_VISIBLE
100
AcDbLine
 10
33.26372735875111
 20
20.37430569306099
 30
0.0
 11
33.06372735875111
 21
20.37430569306099
 31
0.0
  0
ARC
  5
2F2
330
70
100
AcDbEntity
  8
bakeneko-65-plate v4_VISIBLE
100
AcDbCircle
 10
34.93122735875112
 20
11.19930569306099
 30
0.0
 40
0.2249999999999996
100
AcDbArc
 50
270.0
 51
0.0
  0
LINE
  5
2F3
330
70
100
AcDbEntity
  8
bakeneko-65-plate v4_VISIBLE
100
AcDbLine
 10
30.25000045001507
 20
10.97430569306099
 30
0.0
 11
30.5462273587511
 21
10.97430569306099
 31
0.0
  0
ARC
  5
2F4
330
70
100
AcDbEntity
  8
bakeneko-65-plate v4_VISIBLE
100
AcDbCircle
 10
41.5987273587511
 20
20.27430569306099
 30
0.0
 40
0.2250000000000014
100
AcDbArc
 50
0.0
 51
90.0
  0
LINE
  5
2F5
330
70
100
AcDbEntity
  8
bakeneko-65-plate v4_VISIBLE
100
AcDbLine
 10
35.15622735875112
 20
11.19930569306099
 30
0.0
 11
35.15622735875112
 21
12.75430569306099
 31
0.0
  0
LINE
  5
2F6
330
70
100
AcDbEntity
  8
bakeneko-65-plate v4_VISIBLE
100
AcDbLine
 10
14.5037273587511
 20
20.47430569306099
 30
0.0
 11
15.8037273587511
 21
20.47430569306099
 31
0.0
  0
ARC
  5
2F7
330
70
100
AcDbEntity
  8
bakeneko-65-plate v4_VISIBLE
100
AcDbCircle
 10
14.1037273587511
 20
20.44930569306099
 30
0.0
 40
0.0500000000000007
100
AcDbArc
 50
0.0
 51
90.0
  0
ARC
  5
2F8
330
70
100
AcDbEntity
  8
bakeneko-65-plate v4_VISIBLE
100
AcDbCircle
 10
36.51992735875111
 20
18.69680569306099
 30
0.0
 40
0.0499999999999972
100
AcDbArc
 50
180.0
 51
270.0
  0
ARC
  5
2F9
330
70
100
AcDbEntity
  8
bakeneko-65-plate v4_VISIBLE
100
AcDbCircle
 10
41.5987273587511
 20
11.19930569306099
 30
0.0
 40
0.2249999999999996
100
AcDbArc
 50
270.0
 51
0.0
  0
LINE
  5
2FA
330
70
100
AcDbEntity
  8
bakeneko-65-plate v4_VISIBLE
100
AcDbLine
 10
41.8237273587511
 20
20.27430569306099
 30
0.0
 11
41.8237273587511
 21
11.19930569306099
 31
0.0
  0
LINE
  5
2FB
330
70
100
AcDbEntity
  8
bakeneko-65-plate v4_VISIBLE
100
AcDbLine
 10
37.1699273587511
 20
18.79680569306099
 30
0.0
 11
37.1699273587511
 21
18.69680569306099
 31
0.0
  0
LINE
  5
2FC
330
70
100
AcDbEntity
  8
bakeneko-65-plate v4_VISIBLE
100
AcDbLine
 10
31.31372735875111
 20
20.44930569306099
 30
0.0
 11
31.31372735875112
 21
20.42430569306099
 31
0.0
  0
LINE
  5
2FD
330
70
100
AcDbEntity
  8
bakeneko-65-plate v4_VISIBLE
100
AcDbLine
 10
16.1037273587511
 20
20.37430569306099
 30
0.0
 11
15.9037273587511
 21
20.37430569306099
 31
0.0
  0
ARC
  5
2FE
330
70
100
AcDbEntity
  8
bakeneko-65-plate v4_VISIBLE
100
AcDbCircle
 10
36.4112273587511
 20
18.89680569306099
 30
0.0
 40
0.0499999999999972
100
AcDbArc
 50
180.0
 51
270.0
  0
LINE
  5
2FF
330
70
100
AcDbEntity
  8
bakeneko-65-plate v4_VISIBLE
100
AcDbLine
 10
37.2199273587511
 20
18.84680569306099
 30
0.0
 11
38.8075273587511
 21
18.84680569306099
 31
0.0
  0
ARC
  5
300
330
70
100
AcDbEntity
  8
bakeneko-65-plate v4_VISIBLE
100
AcDbCircle
 10
15.8037273587511
 20
20.42430569306099
 30
0.0
 40
0.0500000000000007
100
AcDbArc
 50
0.0
 51
90.0
  0
LINE
  5
301
330
70
100
AcDbEntity
  8
bakeneko-65-plate v4_VISIBLE
100
AcDbLine
 10
36.4112273587511
 20
18.84680569306099
 30
0.0
 11
36.41992735875112
 21
18.84680569306099
 31
0.0
  0
ARC
  5
302
330
70
100
AcDbEntity
  8
bakeneko-65-plate v4_VISIBLE
100
AcDbCircle
 10
36.41992735875112
 20
18.79680569306099
 30
0.0
 40
0.0499999999999972
100
AcDbArc
 50
0.0
 51
90.0
  0
ARC
  5
303
330
70
100
AcDbEntity
  8
bakeneko-65-plate v4_VISIBLE
100
AcDbCircle
 10
14.5037273587511
 20
20.42430569306099
 30
0.0
 40
0.0500000000000007
100
AcDbArc
 50
90.0
 51
180.0
  0
ARC
  5
304
330
70
100
AcDbEntity
  8
bakeneko-65-plate v4_VISIBLE
100
AcDbCircle
 10
37.1199273587511
 20
18.69680569306099
 30
0.0
 40
0.0500000000000007
100
AcDbArc
 50
270.0
 51
0.0
  0
LINE
  5
305
330
70
100
AcDbEntity
  8
bakeneko-65-plate v4_VISIBLE
100
AcDbLine
 10
38.90752735875111
 20
18.64680569306099
 30
0.0
 11
39.50752735875111
 21
18.64680569306099
 31
0.0
  0
ARC
  5
306
330
70
100
AcDbEntity
  8
bakeneko-65-plate v4_VISIBLE
100
AcDbCircle
 10
31.26372735875112
 20
20.44930569306099
 30
0.0
 40
0.0499999999999972
100
AcDbArc
 50
0.0
 51
90.0
  0
LINE
  5
307
330
70
100
AcDbEntity
  8
bakeneko-65-plate v4_VISIBLE
100
AcDbLine
 10
36.3337273587511
 20
10.97430569306099
 30
0.0
 11
41.5987273587511
 21
10.97430569306099
 31
0.0
  0
LINE
  5
308
330
70
100
AcDbEntity
  8
bakeneko-65-plate v4_VISIBLE
100
AcDbLine
 10
16.1537273587511
 20
20.44930569306099
 30
0.0
 11
16.1537273587511
 21
20.42430569306099
 31
0.0
  0
ARC
  5
309
330
70
100
AcDbEntity
  8
bakeneko-65-plate v4_VISIBLE
100
AcDbCircle
 10
19.1406023587511
 20
12.77680569306099
 30
0.0
 40
0.0500000000000007
100
AcDbArc
 50
90.0
 51
180.0
  0
LINE
  5
30A
330
70
100
AcDbEntity
  8
bakeneko-65-plate v4_VISIBLE
100
AcDbLine
 10
20.2662273587511
 20
11.37680569306099
 30
0.0
 11
20.2662273587511
 21
12.77680569306099
 31
0.0
  0
LINE
  5
30B
330
70
100
AcDbEntity
  8
bakeneko-65-plate v4_VISIBLE
100
AcDbLine
 10
14.2037273587511
 20
20.37430569306099
 30
0.0
 11
14.4037273587511
 21
20.37430569306099
 31
0.0
  0
ARC
  5
30C
330
70
100
AcDbEntity
  8
bakeneko-65-plate v4_VISIBLE
100
AcDbCircle
 10
33.07747735875111
 20
12.57680569306099
 30
0.0
 40
0.0500000000000007
100
AcDbArc
 50
90.0
 51
180.0
  0
LINE
  5
30D
330
70
100
AcDbEntity
  8
bakeneko-65-plate v4_VISIBLE
100
AcDbLine
 10
39.5575273587511
 20
18.79680569306099
 30
0.0
 11
39.5575273587511
 21
18.69680569306099
 31
0.0
  0
LINE
  5
30E
330
70
100
AcDbEntity
  8
bakeneko-65-plate v4_VISIBLE
100
AcDbLine
 10
39.66622735875104
 20
20.27180569306112
 30
0.0
 11
39.6662273587511
 21
18.89680569306099
 31
0.0
  0
ARC
  5
30F
330
70
100
AcDbEntity
  8
bakeneko-65-plate v4_VISIBLE
100
AcDbCircle
 10
16.2037273587511
 20
20.44930569306099
 30
0.0
 40
0.0500000000000007
100
AcDbArc
 50
90.0
 51
180.0
  0
LINE
  5
310
330
70
100
AcDbEntity
  8
bakeneko-65-plate v4_VISIBLE
100
AcDbLine
 10
39.6075273587511
 20
18.84680569306099
 30
0.0
 11
39.6162273587511
 21
18.84680569306099
 31
0.0
  0
ARC
  5
311
330
70
100
AcDbEntity
  8
bakeneko-65-plate v4_VISIBLE
100
AcDbCircle
 10
11.8843523587511
 20
15.08680569306099
 30
0.0
 40
0.0500000000000007
100
AcDbArc
 50
180.0
 51
270.0
  0
LINE
  5
312
330
70
100
AcDbEntity
  8
bakeneko-65-plate v4_VISIBLE
100
AcDbLine
 10
30.9962273587511
 20
12.67680569306099
 30
0.0
 11
30.9962273587511
 21
12.77680569306099
 31
0.0
  0
ARC
  5
313
330
70
100
AcDbEntity
  8
bakeneko-65-plate v4_VISIBLE
100
AcDbCircle
 10
39.6162273587511
 20
18.89680569306099
 30
0.0
 40
0.0500000000000007
100
AcDbArc
 50
270.0
 51
0.0
  0
LINE
  5
314
330
70
100
AcDbEntity
  8
bakeneko-65-plate v4_VISIBLE
100
AcDbLine
 10
36.3612273587511
 20
20.271805693061
 30
0.0
 11
36.3612273587511
 21
18.89680569306099
 31
0.0
  0
LINE
  5
315
330
70
100
AcDbEntity
  8
bakeneko-65-plate v4_VISIBLE
100
AcDbLine
 10
33.07747735875111
 20
11.22680569306099
 30
0.0
 11
34.61560235875111
 21
11.22680569306099
 31
0.0
  0
LINE
  5
316
330
70
100
AcDbEntity
  8
bakeneko-65-plate v4_VISIBLE
100
AcDbLine
 10
36.46992735875111
 20
18.79680569306099
 30
0.0
 11
36.46992735875111
 21
18.69680569306099
 31
0.0
  0
ARC
  5
317
330
70
100
AcDbEntity
  8
bakeneko-65-plate v4_VISIBLE
100
AcDbCircle
 10
31.0462273587511
 20
12.77680569306099
 30
0.0
 40
0.0499999999999989
100
AcDbArc
 50
90.0
 51
180.0
  0
LINE
  5
318
330
70
100
AcDbEntity
  8
bakeneko-65-plate v4_VISIBLE
100
AcDbLine
 10
32.28435235875112
 20
12.57680569306099
 30
0.0
 11
32.28435235875112
 21
11.27680569306099
 31
0.0
  0
LINE
  5
319
330
70
100
AcDbEntity
  8
bakeneko-65-plate v4_VISIBLE
100
AcDbLine
 10
38.8575273587511
 20
18.79680569306099
 30
0.0
 11
38.85752735875111
 21
18.69680569306099
 31
0.0
  0
ARC
  5
31A
330
70
100
AcDbEntity
  8
bakeneko-65-plate v4_VISIBLE
100
AcDbCircle
 10
14.4037273587511
 20
20.42430569306099
 30
0.0
 40
0.0500000000000007
100
AcDbArc
 50
270.0
 51
0.0
  0
ARC
  5
31B
330
70
100
AcDbEntity
  8
bakeneko-65-plate v4_VISIBLE
100
AcDbCircle
 10
20.2162273587511
 20
12.77680569306099
 30
0.0
 40
0.0500000000000007
100
AcDbArc
 50
0.0
 51
90.0
  0
LINE
  5
31C
330
70
100
AcDbEntity
  8
bakeneko-65-plate v4_VISIBLE
100
AcDbLine
 10
36.51992735875111
 20
18.64680569306099
 30
0.0
 11
37.1199273587511
 21
18.64680569306099
 31
0.0
  0
ARC
  5
31D
330
70
100
AcDbEntity
  8
bakeneko-65-plate v4_VISIBLE
100
AcDbCircle
 10
16.1037273587511
 20
20.42430569306099
 30
0.0
 40
0.0500000000000007
100
AcDbArc
 50
270.0
 51
0.0
  0
LINE
  5
31E
330
70
100
AcDbEntity
  8
bakeneko-65-plate v4_VISIBLE
100
AcDbLine
 10
33.07747735875111
 20
12.62680569306099
 30
0.0
 11
34.61560235875111
 21
12.62680569306099
 31
0.0
  0
LINE
  5
31F
330
70
100
AcDbEntity
  8
bakeneko-65-plate v4_VISIBLE
100
AcDbLine
 10
34.66560235875112
 20
12.57680569306099
 30
0.0
 11
34.66560235875112
 21
11.27680569306099
 31
0.0
  0
ARC
  5
320
330
70
100
AcDbEntity
  8
bakeneko-65-plate v4_VISIBLE
100
AcDbCircle
 10
19.1406023587511
 20
11.37680569306099
 30
0.0
 40
0.0500000000000007
100
AcDbArc
 50
180.0
 51
270.0
  0
ENDSEC
  0
SECTION
  2
OBJECTS
  0
DICTIONARY
  5
C
330
0
100
AcDbDictionary
281
     1
  3
ACAD_COLOR
350
63
  3
ACAD_DETAILVIEWSTYLE
350
6A
  3
ACAD_GROUP
350
D
  3
ACAD_LAYOUT
350
62
  3
ACAD_MATERIAL
350
10
  3
ACAD_MLEADERSTYLE
350
66
  3
ACAD_MLINESTYLE
350
5F
  3
ACAD_PLOTSETTINGS
350
61
  3
ACAD_PLOTSTYLENAME
350
E
  3
ACAD_SCALELIST
350
42
  3
ACAD_SECTIONVIEWSTYLE
350
68
  3
ACAD_TABLESTYLE
350
64
  3
ACAD_VISUALSTYLE
350
29
  3
ACDB_RECOMPOSE_DATA
350
329
  3
AcDbVariableDictionary
350
321
  0
DICTIONARY
  5
63
102
{ACAD_REACTORS
330
C
102
}
330
C
100
AcDbDictionary
281
     1
  0
DICTIONARY
  5
6A
102
{ACAD_REACTORS
330
C
102
}
330
C
100
AcDbDictionary
281
     1
  3
Imperial24
350
6B
  0
DICTIONARY
  5
D
102
{ACAD_REACTORS
330
C
102
}
330
C
100
AcDbDictionary
281
     1
  0
DICTIONARY
  5
62
102
{ACAD_REACTORS
330
C
102
}
330
C
100
AcDbDictionary
281
     1
  3
Layout1
350
6F
  3
Layout2
350
77
  3
Model
350
73
  0
DICTIONARY
  5
10
102
{ACAD_REACTORS
330
C
102
}
330
C
100
AcDbDictionary
281
     1
  3
ByBlock
350
19
  3
ByLayer
350
11
  3
Global
350
21
  0
DICTIONARY
  5
66
102
{ACAD_REACTORS
330
C
102
}
330
C
100
AcDbDictionary
281
     1
  3
Standard
350
67
  0
DICTIONARY
  5
5F
102
{ACAD_REACTORS
330
C
102
}
330
C
100
AcDbDictionary
281
     1
  3
Standard
350
60
  0
DICTIONARY
  5
61
102
{ACAD_REACTORS
330
C
102
}
330
C
100
AcDbDictionary
281
     1
  0
ACDBDICTIONARYWDFLT
  5
E
102
{ACAD_REACTORS
330
C
102
}
330
C
100
AcDbDictionary
281
     1
  3
Normal
350
F
100
AcDbDictionaryWithDefault
340
F
  0
DICTIONARY
  5
42
102
{ACAD_REACTORS
330
C
102
}
330
C
100
AcDbDictionary
281
     1
  3
A0
350
43
  3
A1
350
44
  3
A2
350
45
  3
A3
350
46
  3
A4
350
47
  3
A5
350
48
  3
A6
350
49
  3
A7
350
4A
  3
A8
350
4B
  3
A9
350
4C
  3
B0
350
4D
  3
B1
350
4E
  3
B2
350
4F
  3
B3
350
50
  3
B4
350
51
  3
B5
350
52
  3
B6
350
53
  0
DICTIONARY
  5
68
102
{ACAD_REACTORS
330
C
102
}
330
C
100
AcDbDictionary
281
     1
  3
Imperial24
350
69
  0
DICTIONARY
  5
64
102
{ACAD_REACTORS
330
C
102
}
330
C
100
AcDbDictionary
281
     1
  3
Standard
350
65
  0
DICTIONARY
  5
29
102
{ACAD_REACTORS
330
C
102
}
330
C
100
AcDbDictionary
281
     1
  3
2dWireframe
350
2F
  3
Basic
350
2E
  3
Brighten
350
35
  3
ColorChange
350
39
  3
Conceptual
350
32
  3
Dim
350
34
  3
EdgeColorOff
350
41
  3
Facepattern
350
38
  3
Flat
350
2A
  3
FlatWithEdges
350
2B
  3
Gouraud
350
2C
  3
GouraudWithEdges
350
2D
  3
Hidden
350
31
  3
JitterOff
350
3F
  3
Linepattern
350
37
  3
OverhangOff
350
40
  3
Realistic
350
33
  3
Shaded
350
3E
  3
Shaded with edges
350
3D
  3
Shades of Gray
350
3A
  3
Sketchy
350
3B
  3
Thicken
350
36
  3
Wireframe
350
30
  3
X-Ray
350
3C
  0
XRECORD
  5
329
102
{ACAD_REACTORS
330
C
102
}
330
C
100
AcDbXrecord
280
     1
 90
        1
330
65
  0
DICTIONARY
  5
321
102
{ACAD_REACTORS
330
C
102
}
330
C
100
AcDbDictionary
281
     1
  3
CANNOSCALE
350
326
  3
CMLEADERSTYLE
350
323
  3
CTABLESTYLE
350
322
  3
CVIEWDETAILSTYLE
350
324
  3
CVIEWSECTIONSTYLE
350
325
  0
ACDBDETAILVIEWSTYLE
  5
6B
102
{ACAD_XDICTIONARY
360
32C
102
}
102
{ACAD_REACTORS
330
6A
102
}
330
6A
100
AcDbModelDocViewStyle
 70
     0
  3
Imperial24
290
     0
100
AcDbDetailViewStyle
 70
     0
 71
     0
 90
        3
 71
     1
340
55
 62
   256
 40
0.24
340
0
 62
   256
 40
0.24
300

 40
0.36
280
     3
 71
     2
340
5D
 90
       25
 62
   256
 71
     3
340
55
 62
   256
 40
0.24
 90
        1
 40
0.75
 90
        1
300
%<\AcVar ViewType \f "%tc1">% %<\AcVar ViewDetailId>%\PSCALE %<\AcVar ViewScale \f "%sn">%
 71
     4
340
5D
 90
       25
 62
   256
340
5D
 90
       25
 62
   256
280
     0
  0
LAYOUT
  5
6F
102
{ACAD_REACTORS
330
62
102
}
330
62
100
AcDbPlotSettings
  1

  2

  4

  6

 40
0.0
 41
0.0
 42
0.0
 43
0.0
 44
0.0
 45
0.0
 46
0.0
 47
0.0
 48
0.0
 49
0.0
140
0.0
141
0.0
142
1.0
143
1.0
 70
   688
 72
     0
 73
     0
 74
     5
  7

 75
    16
147
1.0
 76
     0
 77
     2
 78
   300
148
0.0
149
0.0
100
AcDbLayout
  1
Layout1
 70
     1
 71
     1
 10
0.0
 20
0.0
 11
12.0
 21
9.0
 12
0.0
 22
0.0
 32
0.0
 14
0.0
 24
0.0
 34
0.0
 15
0.0
 25
0.0
 35
0.0
146
0.0
 13
0.0
 23
0.0
 33
0.0
 16
1.0
 26
0.0
 36
0.0
 17
0.0
 27
1.0
 37
0.0
 76
     0
330
6C
  0
LAYOUT
  5
77
102
{ACAD_REACTORS
330
62
102
}
330
62
100
AcDbPlotSettings
  1

  2

  4

  6

 40
0.0
 41
0.0
 42
0.0
 43
0.0
 44
0.0
 45
0.0
 46
0.0
 47
0.0
 48
0.0
 49
0.0
140
0.0
141
0.0
142
1.0
143
1.0
 70
   688
 72
     0
 73
     0
 74
     5
  7

 75
    16
147
1.0
 76
     0
 77
     2
 78
   300
148
0.0
149
0.0
100
AcDbLayout
  1
Layout2
 70
     1
 71
     2
 10
0.0
 20
0.0
 11
12.0
 21
9.0
 12
0.0
 22
0.0
 32
0.0
 14
0.0
 24
0.0
 34
0.0
 15
0.0
 25
0.0
 35
0.0
146
0.0
 13
0.0
 23
0.0
 33
0.0
 16
1.0
 26
0.0
 36
0.0
 17
0.0
 27
1.0
 37
0.0
 76
     0
330
74
  0
LAYOUT
  5
73
102
{ACAD_REACTORS
330
62
102
}
330
62
100
AcDbPlotSettings
  1

  2

  4

  6

 40
0.0
 41
0.0
 42
0.0
 43
0.0
 44
0.0
 45
0.0
 46
0.0
 47
0.0
 48
0.0
 49
0.0
140
0.0
141
0.0
142
1.0
143
1.0
 70
  1712
 72
     0
 73
     0
 74
     0
  7

 75
     0
147
1.0
 76
     0
 77
     2
 78
   300
148
0.0
149
0.0
100
AcDbLayout
  1
Model
 70
     1
 71
     0
 10
0.0
 20
0.0
 11
12.0
 21
9.0
 12
0.0
 22
0.0
 32
0.0
 14
0.0
 24
0.0
 34
0.0
 15
0.0
 25
0.0
 35
0.0
146
0.0
 13
0.0
 23
0.0
 33
0.0
 16
1.0
 26
0.0
 36
0.0
 17
0.0
 27
1.0
 37
0.0
 76
     0
330
70
  0
MATERIAL
  5
19
102
{ACAD_XDICTIONARY
360
1A
102
}
102
{ACAD_REACTORS
330
10
102
}
330
10
100
AcDbMaterial
  1
ByBlock
 72
     0
 43
0.0208333333333333
 43
0.0
 43
0.0
 43
0.0
 43
0.0
 43
0.0208333333333333
 43
0.0
 43
0.0
 43
0.0
 43
0.0
 43
1.0
 43
0.0
 43
0.0
 43
0.0
 43
0.0
 43
1.0
 77
     0
 47
0.0208333333333333
 47
0.0
 47
0.0
 47
0.0
 47
0.0
 47
0.0208333333333333
 47
0.0
 47
0.0
 47
0.0
 47
0.0
 47
1.0
 47
0.0
 47
0.0
 47
0.0
 47
0.0
 47
1.0
171
     0
 49
0.0208333333333333
 49
0.0
 49
0.0
 49
0.0
 49
0.0
 49
0.0208333333333333
 49
0.0
 49
0.0
 49
0.0
 49
0.0
 49
1.0
 49
0.0
 49
0.0
 49
0.0
 49
0.0
 49
1.0
175
     0
142
0.0208333333333333
142
0.0
142
0.0
142
0.0
142
0.0
142
0.0208333333333333
142
0.0
142
0.0
142
0.0
142
0.0
142
1.0
142
0.0
142
0.0
142
0.0
142
0.0
142
1.0
179
     0
144
0.0208333333333333
144
0.0
144
0.0
144
0.0
144
0.0
144
0.0208333333333333
144
0.0
144
0.0
144
0.0
144
0.0
144
1.0
144
0.0
144
0.0
144
0.0
144
0.0
144
1.0
147
0.0208333333333333
147
0.0
147
0.0
147
0.0
147
0.0
147
0.0208333333333333
147
0.0
147
0.0
147
0.0
147
0.0
147
1.0
147
0.0
147
0.0
147
0.0
147
0.0
147
1.0
  0
MATERIAL
  5
11
102
{ACAD_XDICTIONARY
360
12
102
}
102
{ACAD_REACTORS
330
10
102
}
330
10
100
AcDbMaterial
  1
ByLayer
 72
     0
 43
0.0208333333333333
 43
0.0
 43
0.0
 43
0.0
 43
0.0
 43
0.0208333333333333
 43
0.0
 43
0.0
 43
0.0
 43
0.0
 43
1.0
 43
0.0
 43
0.0
 43
0.0
 43
0.0
 43
1.0
 77
     0
 47
0.0208333333333333
 47
0.0
 47
0.0
 47
0.0
 47
0.0
 47
0.0208333333333333
 47
0.0
 47
0.0
 47
0.0
 47
0.0
 47
1.0
 47
0.0
 47
0.0
 47
0.0
 47
0.0
 47
1.0
171
     0
 49
0.0208333333333333
 49
0.0
 49
0.0
 49
0.0
 49
0.0
 49
0.0208333333333333
 49
0.0
 49
0.0
 49
0.0
 49
0.0
 49
1.0
 49
0.0
 49
0.0
 49
0.0
 49
0.0
 49
1.0
175
     0
142
0.0208333333333333
142
0.0
142
0.0
142
0.0
142
0.0
142
0.0208333333333333
142
0.0
142
0.0
142
0.0
142
0.0
142
1.0
142
0.0
142
0.0
142
0.0
142
0.0
142
1.0
179
     0
144
0.0208333333333333
144
0.0
144
0.0
144
0.0
144
0.0
144
0.0208333333333333
144
0.0
144
0.0
144
0.0
144
0.0
144
1.0
144
0.0
144
0.0
144
0.0
144
0.0
144
1.0
147
0.0208333333333333
147
0.0
147
0.0
147
0.0
147
0.0
147
0.0208333333333333
147
0.0
147
0.0
147
0.0
147
0.0
147
1.0
147
0.0
147
0.0
147
0.0
147
0.0
147
1.0
  0
MATERIAL
  5
21
102
{ACAD_XDICTIONARY
360
22
102
}
102
{ACAD_REACTORS
330
10
102
}
330
10
100
AcDbMaterial
  1
Global
 72
     0
 43
0.0208333333333333
 43
0.0
 43
0.0
 43
0.0
 43
0.0
 43
0.0208333333333333
 43
0.0
 43
0.0
 43
0.0
 43
0.0
 43
1.0
 43
0.0
 43
0.0
 43
0.0
 43
0.0
 43
1.0
 77
     0
 47
0.0208333333333333
 47
0.0
 47
0.0
 47
0.0
 47
0.0
 47
0.0208333333333333
 47
0.0
 47
0.0
 47
0.0
 47
0.0
 47
1.0
 47
0.0
 47
0.0
 47
0.0
 47
0.0
 47
1.0
171
     0
 49
0.0208333333333333
 49
0.0
 49
0.0
 49
0.0
 49
0.0
 49
0.0208333333333333
 49
0.0
 49
0.0
 49
0.0
 49
0.0
 49
1.0
 49
0.0
 49
0.0
 49
0.0
 49
0.0
 49
1.0
175
     0
142
0.0208333333333333
142
0.0
142
0.0
142
0.0
142
0.0
142
0.0208333333333333
142
0.0
142
0.0
142
0.0
142
0.0
142
1.0
142
0.0
142
0.0
142
0.0
142
0.0
142
1.0
179
     0
144
0.0208333333333333
144
0.0
144
0.0
144
0.0
144
0.0
144
0.0208333333333333
144
0.0
144
0.0
144
0.0
144
0.0
144
1.0
144
0.0
144
0.0
144
0.0
144
0.0
144
1.0
147
0.0208333333333333
147
0.0
147
0.0
147
0.0
147
0.0
147
0.0208333333333333
147
0.0
147
0.0
147
0.0
147
0.0
147
1.0
147
0.0
147
0.0
147
0.0
147
0.0
147
1.0
  0
MLEADERSTYLE
  5
67
102
{ACAD_REACTORS
330
66
102
}
330
66
100
AcDbMLeaderStyle
179
     2
170
     2
171
     1
172
     0
 90
        2
 40
0.0
 41
0.0
173
     1
 91
-1056964608
340
5B
 92
       -2
290
     1
 42
0.09
291
     1
 43
0.36
  3
Standard
 44
0.18
300

342
55
174
     1
178
     6
175
     1
176
     0
 93
-1056964608
 45
0.18
292
     0
297
     0
 46
0.18
 94
-1056964608
 47
1.0
 49
1.0
140
1.0
293
     1
141
0.0
294
     1
177
     0
142
1.0
295
     0
296
     0
143
0.125
271
     0
272
     9
273
     9
298
     1
  0
MLINESTYLE
  5
60
102
{ACAD_REACTORS
330
5F
102
}
330
5F
100
AcDbMlineStyle
  2
STANDARD
 70
     0
  3

 62
   256
 51
90.0
 52
90.0
 71
     2
 49
0.5
 62
   256
  6
BYLAYER
 49
-0.5
 62
   256
  6
BYLAYER
  0
ACDBPLACEHOLDER
  5
F
102
{ACAD_REACTORS
330
E
102
}
330
E
  0
SCALE
  5
43
102
{ACAD_REACTORS
330
42
102
}
330
42
100
AcDbScale
 70
     0
300
1:1
140
1.0
141
1.0
290
     1
  0
SCALE
  5
44
102
{ACAD_REACTORS
330
42
102
}
330
42
100
AcDbScale
 70
     0
300
1/128" = 1'-0"
140
0.0078125
141
12.0
290
     0
  0
SCALE
  5
45
102
{ACAD_REACTORS
330
42
102
}
330
42
100
AcDbScale
 70
     0
300
1/64" = 1'-0"
140
0.015625
141
12.0
290
     0
  0
SCALE
  5
46
102
{ACAD_REACTORS
330
42
102
}
330
42
100
AcDbScale
 70
     0
300
1/32" = 1'-0"
140
0.03125
141
12.0
290
     0
  0
SCALE
  5
47
102
{ACAD_REACTORS
330
42
102
}
330
42
100
AcDbScale
 70
     0
300
1/16" = 1'-0"
140
0.0625
141
12.0
290
     0
  0
SCALE
  5
48
102
{ACAD_REACTORS
330
42
102
}
330
42
100
AcDbScale
 70
     0
300
3/32" = 1'-0"
140
0.09375
141
12.0
290
     0
  0
SCALE
  5
49
102
{ACAD_REACTORS
330
42
102
}
330
42
100
AcDbScale
 70
     0
300
1/8" = 1'-0"
140
0.125
141
12.0
290
     0
  0
SCALE
  5
4A
102
{ACAD_REACTORS
330
42
102
}
330
42
100
AcDbScale
 70
     0
300
3/16" = 1'-0"
140
0.1875
141
12.0
290
     0
  0
SCALE
  5
4B
102
{ACAD_REACTORS
330
42
102
}
330
42
100
AcDbScale
 70
     0
300
1/4" = 1'-0"
140
0.25
141
12.0
290
     0
  0
SCALE
  5
4C
102
{ACAD_REACTORS
330
42
102
}
330
42
100
AcDbScale
 70
     0
300
3/8" = 1'-0"
140
0.375
141
12.0
290
     0
  0
SCALE
  5
4D
102
{ACAD_REACTORS
330
42
102
}
330
42
100
AcDbScale
 70
     0
300
1/2" = 1'-0"
140
0.5
141
12.0
290
     0
  0
SCALE
  5
4E
102
{ACAD_REACTORS
330
42
102
}
330
42
100
AcDbScale
 70
     0
300
3/4" = 1'-0"
140
0.75
141
12.0
290
     0
  0
SCALE
  5
4F
102
{ACAD_REACTORS
330
42
102
}
330
42
100
AcDbScale
 70
     0
300
1" = 1'-0"
140
1.0
141
12.0
290
     0
  0
SCALE
  5
50
102
{ACAD_REACTORS
330
42
102
}
330
42
100
AcDbScale
 70
     0
300
1-1/2" = 1'-0"
140
1.5
141
12.0
290
     0
  0
SCALE
  5
51
102
{ACAD_REACTORS
330
42
102
}
330
42
100
AcDbScale
 70
     0
300
3" = 1'-0"
140
3.0
141
12.0
290
     0
  0
SCALE
  5
52
102
{ACAD_REACTORS
330
42
102
}
330
42
100
AcDbScale
 70
     0
300
6" = 1'-0"
140
6.0
141
12.0
290
     0
  0
SCALE
  5
53
102
{ACAD_REACTORS
330
42
102
}
330
42
100
AcDbScale
 70
     0
300
1'-0" = 1'-0"
140
12.0
141
12.0
290
     0
  0
ACDBSECTIONVIEWSTYLE
  5
69
102
{ACAD_XDICTIONARY
360
32A
102
}
102
{ACAD_REACTORS
330
68
102
}
330
68
100
AcDbModelDocViewStyle
 70
     0
  3
Imperial24
290
     0
100
AcDbSectionViewStyle
 70
     0
 71
     0
 90
       78
 71
     1
340
55
 62
   256
 40
0.24
340
0
340
0
 62
   256
 40
0.24
300
I, O, Q, S, X, Z
 40
0.48
 90
        3
 40
0.18
 90
        1
 71
     2
340
5D
 90
       25
 62
   256
340
5D
 90
       50
 62
   256
 40
0.24
 40
0.0
 40
0.24
 71
     3
340
55
 62
   256
 40
0.24
 90
        1
 40
0.75
 90
        1
300
%<\AcVar ViewType \f "%tc1">% %<\AcVar ViewSectionStartId>%-%<\AcVar ViewSectionEndId>%\PSCALE %<\AcVar ViewScale \f "%sn">%
 71
     4
 62
   256
 62
   257
300
ANSI31
 40
1.0
 90
        0
290
     0
290
     0
 90
        6
 40
0.0
 40
1.570796326794896
 40
0.2617993877991494
 40
1.308996938995747
 40
-0.2617993877991494
 40
1.832595714594046
  0
TABLESTYLE
  5
65
102
{ACAD_XDICTIONARY
360
327
102
}
102
{ACAD_REACTORS
330
64
102
}
330
64
100
AcDbTableStyle
280
     0
  3
Standard
 70
     0
 71
     0
 40
0.06
 41
0.06
280
     0
281
     0
  7
Standard
140
0.18
170
     2
 62
     0
 63
     7
283
     0
 90
      512
 91
        0
  1

274
    -2
284
     1
 64
     0
275
    -2
285
     1
 65
     0
276
    -2
286
     1
 66
     0
277
    -2
287
     1
 67
     0
278
    -2
288
     1
 68
     0
279
    -2
289
     1
 69
     0
  7
Standard
140
0.25
170
     5
 62
     0
 63
     7
283
     0
 90
      512
 91
        0
  1

274
    -2
284
     1
 64
     0
275
    -2
285
     1
 65
     0
276
    -2
286
     1
 66
     0
277
    -2
287
     1
 67
     0
278
    -2
288
     1
 68
     0
279
    -2
289
     1
 69
     0
  7
Standard
140
0.18
170
     5
 62
     0
 63
     7
283
     0
 90
      512
 91
        0
  1

274
    -2
284
     1
 64
     0
275
    -2
285
     1
 65
     0
276
    -2
286
     1
 66
     0
277
    -2
287
     1
 67
     0
278
    -2
288
     1
 68
     0
279
    -2
289
     1
 69
     0
  0
VISUALSTYLE
  5
2F
102
{ACAD_REACTORS
330
29
102
}
330
29
100
AcDbVisualStyle
  2
2dWireframe
 70
     4
177
     3
291
     0
 70
    58
 90
        0
176
     1
 90
        2
176
     1
 90
        0
176
     1
 90
        0
176
     1
 40
0.6
176
     1
 40
30.0
176
     1
 62
     7
420
 16777215
176
     1
 90
        1
176
     1
 90
        4
176
     1
 62
     7
176
     1
 62
   257
176
     1
 90
        1
176
     1
 90
        1
176
     1
 40
1.0
176
     1
 90
        0
176
     1
 62
   257
176
     1
 40
1.0
176
     1
 90
        1
176
     1
 90
        6
176
     1
 90
        2
176
     1
 62
     7
176
     1
 90
        5
176
     1
 90
        0
176
     1
 90
        0
176
     1
290
     0
176
     1
 90
        1
176
     1
 40
0.0
176
     1
 90
        0
176
     1
290
     1
176
     1
290
     1
176
     1
290
     0
176
     1
290
     0
176
     1
290
     0
176
     1
290
     0
176
     1
290
     0
176
     1
290
     0
176
     1
290
     0
176
     1
 90
       50
176
     1
 40
0.0
176
     1
 40
1.0
176
     1
 90
        0
176
     1
 62
    18
420
        0
176
     1
 90
       50
176
     1
 90
        3
176
     1
 62
     5
420
      255
176
     1
290
     0
176
     1
 90
       50
176
     1
 90
       50
176
     1
 90
       50
176
     1
290
     0
176
     1
 90
       50
176
     1
 62
   256
176
     0
 40
1.0
176
     0
 90
        2
176
     1
  1
strokes_ogs.tif
176
     1
290
     0
176
     1
 40
1.0
176
     1
 40
1.0
176
     1
1001
ACAD
1000
AcDbSavedByObjectVersion
1070
     0
  0
VISUALSTYLE
  5
2E
102
{ACAD_REACTORS
330
29
102
}
330
29
100
AcDbVisualStyle
  2
Basic
 70
     7
177
     3
291
     1
 70
    58
 90
        1
176
     1
 90
        0
176
     1
 90
        1
176
     1
 90
        0
176
     1
 40
0.6
176
     1
 40
30.0
176
     1
 62
     7
420
 16777215
176
     1
 90
        0
176
     1
 90
        4
176
     1
 62
     7
176
     1
 62
   257
176
     1
 90
        1
176
     1
 90
        1
176
     1
 40
1.0
176
     1
 90
        8
176
     1
 62
     7
176
     1
 40
1.0
176
     1
 90
        1
176
     1
 90
        6
176
     1
 90
        2
176
     1
 62
     7
176
     1
 90
        5
176
     1
 90
        0
176
     1
 90
        0
176
     1
290
     0
176
     1
 90
        1
176
     1
 40
0.0
176
     1
 90
        0
176
     1
290
     0
176
     1
290
     1
176
     1
290
     1
176
     1
290
     0
176
     1
290
     0
176
     1
290
     0
176
     1
290
     0
176
     1
290
     0
176
     1
290
     0
176
     1
 90
       50
176
     1
 40
0.0
176
     1
 40
1.0
176
     1
 90
        0
176
     1
 62
    18
420
        0
176
     1
 90
       50
176
     1
 90
        3
176
     1
 62
     5
420
      255
176
     1
290
     0
176
     1
 90
       50
176
     1
 90
       50
176
     1
 90
       50
176
     1
290
     0
176
     1
 90
       50
176
     1
 62
   256
176
     0
 40
1.0
176
     0
 90
        2
176
     1
  1
strokes_ogs.tif
176
     1
290
     0
176
     1
 40
1.0
176
     1
 40
1.0
176
     1
1001
ACAD
1000
AcDbSavedByObjectVersion
1070
     0
  0
VISUALSTYLE
  5
35
102
{ACAD_REACTORS
330
29
102
}
330
29
100
AcDbVisualStyle
  2
Brighten
 70
    12
177
     3
291
     1
 70
    58
 90
        2
176
     1
 90
        2
176
     1
 90
        0
176
     1
 90
        0
176
     1
 40
0.6
176
     1
 40
30.0
176
     1
 62
     7
420
 16777215
176
     1
 90
        1
176
     1
 90
        4
176
     1
 62
     7
176
     1
 62
   257
176
     1
 90
        1
176
     1
 90
        1
176
     1
 40
1.0
176
     1
 90
        8
176
     1
 62
     7
176
     1
 40
1.0
176
     1
 90
        1
176
     1
 90
        6
176
     1
 90
        2
176
     1
 62
     7
176
     1
 90
        5
176
     1
 90
        0
176
     1
 90
        0
176
     1
290
     0
176
     1
 90
        1
176
     1
 40
50.0
176
     1
 90
        0
176
     1
290
     0
176
     1
290
     1
176
     1
290
     1
176
     1
290
     0
176
     1
290
     0
176
     1
290
     0
176
     1
290
     0
176
     1
290
     0
176
     1
290
     0
176
     1
 90
       50
176
     1
 40
0.0
176
     1
 40
1.0
176
     1
 90
        0
176
     1
 62
    18
420
        0
176
     1
 90
       50
176
     1
 90
        3
176
     1
 62
     5
420
      255
176
     1
290
     0
176
     1
 90
       50
176
     1
 90
       50
176
     1
 90
       50
176
     1
290
     0
176
     1
 90
       50
176
     1
 62
   256
176
     0
 40
1.0
176
     0
 90
        2
176
     1
  1
strokes_ogs.tif
176
     1
290
     0
176
     1
 40
1.0
176
     1
 40
1.0
176
     1
1001
ACAD
1000
AcDbSavedByObjectVersion
1070
     0
  0
VISUALSTYLE
  5
39
102
{ACAD_REACTORS
330
29
102
}
330
29
100
AcDbVisualStyle
  2
ColorChange
 70
    16
177
     3
291
     1
 70
    58
 90
        2
176
     1
 90
        2
176
     1
 90
        3
176
     1
 90
        0
176
     1
 40
0.6
176
     1
 40
30.0
176
     1
 62
     8
420
  8421504
176
     1
 90
        1
176
     1
 90
        4
176
     1
 62
     7
176
     1
 62
   257
176
     1
 90
        1
176
     1
 90
        1
176
     1
 40
1.0
176
     1
 90
        8
176
     1
 62
     8
420
  8421504
176
     1
 40
1.0
176
     1
 90
        1
176
     1
 90
        6
176
     1
 90
        2
176
     1
 62
     7
176
     1
 90
        5
176
     1
 90
        0
176
     1
 90
        0
176
     1
290
     0
176
     1
 90
        1
176
     1
 40
0.0
176
     1
 90
        0
176
     1
290
     0
176
     1
290
     1
176
     1
290
     1
176
     1
290
     0
176
     1
290
     0
176
     1
290
     0
176
     1
290
     0
176
     1
290
     0
176
     1
290
     0
176
     1
 90
       50
176
     1
 40
0.0
176
     1
 40
1.0
176
     1
 90
        0
176
     1
 62
    18
420
        0
176
     1
 90
       50
176
     1
 90
        3
176
     1
 62
     5
420
      255
176
     1
290
     0
176
     1
 90
       50
176
     1
 90
       50
176
     1
 90
       50
176
     1
290
     0
176
     1
 90
       50
176
     1
 62
   256
176
     0
 40
1.0
176
     0
 90
        2
176
     1
  1
strokes_ogs.tif
176
     1
290
     0
176
     1
 40
1.0
176
     1
 40
1.0
176
     1
1001
ACAD
1000
AcDbSavedByObjectVersion
1070
     0
  0
VISUALSTYLE
  5
32
102
{ACAD_REACTORS
330
29
102
}
330
29
100
AcDbVisualStyle
  2
Conceptual
 70
     9
177
     3
291
     0
 70
    58
 90
        3
176
     1
 90
        2
176
     1
 90
        0
176
     1
 90
        0
176
     1
 40
0.6
176
     1
 40
30.0
176
     1
 62
     7
420
 16777215
176
     1
 90
        2
176
     1
 90
        2
176
     1
 62
     7
176
     1
 62
   257
176
     1
 90
        1
176
     1
 90
        1
176
     1
 40
179.0
176
     1
 90
        8
176
     1
 62
     7
176
     1
 40
1.0
176
     1
 90
        1
176
     1
 90
        6
176
     1
 90
        2
176
     1
 62
     7
176
     1
 90
        3
176
     1
 90
        0
176
     1
 90
        0
176
     1
290
     0
176
     1
 90
        1
176
     1
 40
0.0
176
     1
 90
        0
176
     1
290
     0
176
     1
290
     1
176
     1
290
     1
176
     1
290
     0
176
     1
290
     0
176
     1
290
     0
176
     1
290
     0
176
     1
290
     0
176
     1
290
     0
176
     1
 90
       50
176
     1
 40
0.0
176
     1
 40
1.0
176
     1
 90
        0
176
     1
 62
    18
420
        0
176
     1
 90
       50
176
     1
 90
        3
176
     1
 62
     5
420
      255
176
     1
290
     0
176
     1
 90
       50
176
     1
 90
       50
176
     1
 90
       50
176
     1
290
     0
176
     1
 90
       50
176
     1
 62
   256
176
     0
 40
1.0
176
     0
 90
        2
176
     1
  1
strokes_ogs.tif
176
     1
290
     0
176
     1
 40
1.0
176
     1
 40
1.0
176
     1
1001
ACAD
1000
AcDbSavedByObjectVersion
1070
     0
  0
VISUALSTYLE
  5
34
102
{ACAD_REACTORS
330
29
102
}
330
29
100
AcDbVisualStyle
  2
Dim
 70
    11
177
     3
291
     1
 70
    58
 90
        2
176
     1
 90
        2
176
     1
 90
        0
176
     1
 90
        0
176
     1
 40
0.6
176
     1
 40
30.0
176
     1
 62
     7
420
 16777215
176
     1
 90
        1
176
     1
 90
        4
176
     1
 62
     7
176
     1
 62
   257
176
     1
 90
        1
176
     1
 90
        1
176
     1
 40
1.0
176
     1
 90
        8
176
     1
 62
     7
176
     1
 40
1.0
176
     1
 90
        1
176
     1
 90
        6
176
     1
 90
        2
176
     1
 62
     7
176
     1
 90
        5
176
     1
 90
        0
176
     1
 90
        0
176
     1
290
     0
176
     1
 90
        1
176
     1
 40
-50.0
176
     1
 90
        0
176
     1
290
     0
176
     1
290
     1
176
     1
290
     1
176
     1
290
     0
176
     1
290
     0
176
     1
290
     0
176
     1
290
     0
176
     1
290
     0
176
     1
290
     0
176
     1
 90
       50
176
     1
 40
0.0
176
     1
 40
1.0
176
     1
 90
        0
176
     1
 62
    18
420
        0
176
     1
 90
       50
176
     1
 90
        3
176
     1
 62
     5
420
      255
176
     1
290
     0
176
     1
 90
       50
176
     1
 90
       50
176
     1
 90
       50
176
     1
290
     0
176
     1
 90
       50
176
     1
 62
   256
176
     0
 40
1.0
176
     0
 90
        2
176
     1
  1
strokes_ogs.tif
176
     1
290
     0
176
     1
 40
1.0
176
     1
 40
1.0
176
     1
1001
ACAD
1000
AcDbSavedByObjectVersion
1070
     0
  0
VISUALSTYLE
  5
41
102
{ACAD_REACTORS
330
29
102
}
330
29
100
AcDbVisualStyle
  2
EdgeColorOff
 70
    22
177
     3
291
     1
 70
    58
 90
        2
176
     0
 90
        2
176
     0
 90
        0
176
     0
 90
        0
176
     0
 40
0.6
176
     0
 40
30.0
176
     0
 62
     7
420
 16777215
176
     0
 90
        1
176
     0
 90
        4
176
     0
 62
     7
176
     0
 62
   257
176
     0
 90
        1
176
     0
 90
        1
176
     0
 40
1.0
176
     0
 90
        8
176
     2
 62
     7
176
     0
 40
1.0
176
     0
 90
        1
176
     0
 90
        6
176
     0
 90
        2
176
     0
 62
     7
176
     0
 90
        5
176
     0
 90
        0
176
     0
 90
        0
176
     0
290
     0
176
     0
 90
        1
176
     0
 40
0.0
176
     0
 90
        0
176
     0
290
     0
176
     0
290
     1
176
     0
290
     1
176
     0
290
     0
176
     0
290
     0
176
     0
290
     0
176
     0
290
     0
176
     0
290
     0
176
     0
290
     0
176
     0
 90
       50
176
     0
 40
0.0
176
     0
 40
1.0
176
     0
 90
        0
176
     0
 62
    18
420
        0
176
     0
 90
       50
176
     0
 90
        3
176
     0
 62
     5
420
      255
176
     0
290
     0
176
     0
 90
       50
176
     0
 90
       50
176
     0
 90
       50
176
     0
290
     0
176
     0
 90
       50
176
     0
 62
   256
176
     0
 40
1.0
176
     0
 90
        2
176
     0
  1
strokes_ogs.tif
176
     0
290
     0
176
     0
 40
1.0
176
     0
 40
1.0
176
     0
1001
ACAD
1000
AcDbSavedByObjectVersion
1070
     0
  0
VISUALSTYLE
  5
38
102
{ACAD_REACTORS
330
29
102
}
330
29
100
AcDbVisualStyle
  2
Facepattern
 70
    15
177
     3
291
     1
 70
    58
 90
        2
176
     1
 90
        2
176
     1
 90
        0
176
     1
 90
        0
176
     1
 40
0.6
176
     1
 40
30.0
176
     1
 62
     7
420
 16777215
176
     1
 90
        1
176
     1
 90
        4
176
     1
 62
     7
176
     1
 62
   257
176
     1
 90
        1
176
     1
 90
        1
176
     1
 40
1.0
176
     1
 90
        8
176
     1
 62
     7
176
     1
 40
1.0
176
     1
 90
        1
176
     1
 90
        6
176
     1
 90
        2
176
     1
 62
     7
176
     1
 90
        5
176
     1
 90
        0
176
     1
 90
        0
176
     1
290
     0
176
     1
 90
        1
176
     1
 40
0.0
176
     1
 90
        0
176
     1
290
     0
176
     1
290
     1
176
     1
290
     1
176
     1
290
     0
176
     1
290
     0
176
     1
290
     0
176
     1
290
     0
176
     1
290
     0
176
     1
290
     0
176
     1
 90
       50
176
     1
 40
0.0
176
     1
 40
1.0
176
     1
 90
        0
176
     1
 62
    18
420
        0
176
     1
 90
       50
176
     1
 90
        3
176
     1
 62
     5
420
      255
176
     1
290
     0
176
     1
 90
       50
176
     1
 90
       50
176
     1
 90
       50
176
     1
290
     0
176
     1
 90
       50
176
     1
 62
   256
176
     0
 40
1.0
176
     0
 90
        2
176
     1
  1
strokes_ogs.tif
176
     1
290
     0
176
     1
 40
1.0
176
     1
 40
1.0
176
     1
1001
ACAD
1000
AcDbSavedByObjectVersion
1070
     0
  0
VISUALSTYLE
  5
2A
102
{ACAD_REACTORS
330
29
102
}
330
29
100
AcDbVisualStyle
  2
Flat
 70
     0
177
     3
291
     1
 70
    58
 90
        2
176
     1
 90
        1
176
     1
 90
        1
176
     1
 90
        2
176
     1
 40
0.6
176
     1
 40
30.0
176
     1
 62
     7
420
 16777215
176
     1
 90
        0
176
     1
 90
        0
176
     1
 62
     7
176
     1
 62
   257
176
     1
 90
        1
176
     1
 90
        1
176
     1
 40
1.0
176
     1
 90
        8
176
     1
 62
     7
176
     1
 40
1.0
176
     1
 90
        1
176
     1
 90
        6
176
     1
 90
        2
176
     1
 62
     7
176
     1
 90
        5
176
     1
 90
        0
176
     1
 90
        0
176
     1
290
     0
176
     1
 90
       13
176
     1
 40
0.0
176
     1
 90
        0
176
     1
290
     0
176
     1
290
     1
176
     1
290
     1
176
     1
290
     0
176
     1
290
     0
176
     1
290
     0
176
     1
290
     0
176
     1
290
     0
176
     1
290
     0
176
     1
 90
       50
176
     1
 40
0.0
176
     1
 40
1.0
176
     1
 90
        0
176
     1
 62
    18
420
        0
176
     1
 90
       50
176
     1
 90
        3
176
     1
 62
     5
420
      255
176
     1
290
     0
176
     1
 90
       50
176
     1
 90
       50
176
     1
 90
       50
176
     1
290
     0
176
     1
 90
       50
176
     1
 62
   256
176
     0
 40
1.0
176
     0
 90
        2
176
     1
  1
strokes_ogs.tif
176
     1
290
     0
176
     1
 40
1.0
176
     1
 40
1.0
176
     1
1001
ACAD
1000
AcDbSavedByObjectVersion
1070
     0
  0
VISUALSTYLE
  5
2B
102
{ACAD_REACTORS
330
29
102
}
330
29
100
AcDbVisualStyle
  2
FlatWithEdges
 70
     1
177
     3
291
     1
 70
    58
 90
        2
176
     1
 90
        1
176
     1
 90
        1
176
     1
 90
        2
176
     1
 40
0.6
176
     1
 40
30.0
176
     1
 62
     7
420
 16777215
176
     1
 90
        1
176
     1
 90
        0
176
     1
 62
     7
176
     1
 62
   257
176
     1
 90
        1
176
     1
 90
        1
176
     1
 40
1.0
176
     1
 90
        0
176
     1
 62
   257
176
     1
 40
1.0
176
     1
 90
        1
176
     1
 90
        6
176
     1
 90
        2
176
     1
 62
     7
176
     1
 90
        5
176
     1
 90
        0
176
     1
 90
        0
176
     1
290
     0
176
     1
 90
       13
176
     1
 40
0.0
176
     1
 90
        0
176
     1
290
     0
176
     1
290
     1
176
     1
290
     1
176
     1
290
     0
176
     1
290
     0
176
     1
290
     0
176
     1
290
     0
176
     1
290
     0
176
     1
290
     0
176
     1
 90
       50
176
     1
 40
0.0
176
     1
 40
1.0
176
     1
 90
        0
176
     1
 62
    18
420
        0
176
     1
 90
       50
176
     1
 90
        3
176
     1
 62
     5
420
      255
176
     1
290
     0
176
     1
 90
       50
176
     1
 90
       50
176
     1
 90
       50
176
     1
290
     0
176
     1
 90
       50
176
     1
 62
   256
176
     0
 40
1.0
176
     0
 90
        2
176
     1
  1
strokes_ogs.tif
176
     1
290
     0
176
     1
 40
1.0
176
     1
 40
1.0
176
     1
1001
ACAD
1000
AcDbSavedByObjectVersion
1070
     0
  0
VISUALSTYLE
  5
2C
102
{ACAD_REACTORS
330
29
102
}
330
29
100
AcDbVisualStyle
  2
Gouraud
 70
     2
177
     3
291
     1
 70
    58
 90
        2
176
     1
 90
        2
176
     1
 90
        1
176
     1
 90
        2
176
     1
 40
0.6
176
     1
 40
30.0
176
     1
 62
     7
420
 16777215
176
     1
 90
        0
176
     1
 90
        0
176
     1
 62
     7
176
     1
 62
   257
176
     1
 90
        1
176
     1
 90
        1
176
     1
 40
1.0
176
     1
 90
        0
176
     1
 62
     7
176
     1
 40
1.0
176
     1
 90
        1
176
     1
 90
        6
176
     1
 90
        2
176
     1
 62
     7
176
     1
 90
        5
176
     1
 90
        0
176
     1
 90
        0
176
     1
290
     0
176
     1
 90
       13
176
     1
 40
0.0
176
     1
 90
        0
176
     1
290
     0
176
     1
290
     1
176
     1
290
     1
176
     1
290
     0
176
     1
290
     0
176
     1
290
     0
176
     1
290
     0
176
     1
290
     0
176
     1
290
     0
176
     1
 90
       50
176
     1
 40
0.0
176
     1
 40
1.0
176
     1
 90
        0
176
     1
 62
    18
420
        0
176
     1
 90
       50
176
     1
 90
        3
176
     1
 62
     5
420
      255
176
     1
290
     0
176
     1
 90
       50
176
     1
 90
       50
176
     1
 90
       50
176
     1
290
     0
176
     1
 90
       50
176
     1
 62
   256
176
     0
 40
1.0
176
     0
 90
        2
176
     1
  1
strokes_ogs.tif
176
     1
290
     0
176
     1
 40
1.0
176
     1
 40
1.0
176
     1
1001
ACAD
1000
AcDbSavedByObjectVersion
1070
     0
  0
VISUALSTYLE
  5
2D
102
{ACAD_REACTORS
330
29
102
}
330
29
100
AcDbVisualStyle
  2
GouraudWithEdges
 70
     3
177
     3
291
     1
 70
    58
 90
        2
176
     1
 90
        2
176
     1
 90
        1
176
     1
 90
        2
176
     1
 40
0.6
176
     1
 40
30.0
176
     1
 62
     7
420
 16777215
176
     1
 90
        1
176
     1
 90
        0
176
     1
 62
     7
176
     1
 62
   257
176
     1
 90
        1
176
     1
 90
        1
176
     1
 40
1.0
176
     1
 90
        0
176
     1
 62
   257
176
     1
 40
1.0
176
     1
 90
        1
176
     1
 90
        6
176
     1
 90
        2
176
     1
 62
     7
176
     1
 90
        5
176
     1
 90
        0
176
     1
 90
        0
176
     1
290
     0
176
     1
 90
       13
176
     1
 40
0.0
176
     1
 90
        0
176
     1
290
     0
176
     1
290
     1
176
     1
290
     1
176
     1
290
     0
176
     1
290
     0
176
     1
290
     0
176
     1
290
     0
176
     1
290
     0
176
     1
290
     0
176
     1
 90
       50
176
     1
 40
0.0
176
     1
 40
1.0
176
     1
 90
        0
176
     1
 62
    18
420
        0
176
     1
 90
       50
176
     1
 90
        3
176
     1
 62
     5
420
      255
176
     1
290
     0
176
     1
 90
       50
176
     1
 90
       50
176
     1
 90
       50
176
     1
290
     0
176
     1
 90
       50
176
     1
 62
   256
176
     0
 40
1.0
176
     0
 90
        2
176
     1
  1
strokes_ogs.tif
176
     1
290
     0
176
     1
 40
1.0
176
     1
 40
1.0
176
     1
1001
ACAD
1000
AcDbSavedByObjectVersion
1070
     0
  0
VISUALSTYLE
  5
31
102
{ACAD_REACTORS
330
29
102
}
330
29
100
AcDbVisualStyle
  2
Hidden
 70
     6
177
     3
291
     0
 70
    58
 90
        1
176
     1
 90
        2
176
     1
 90
        2
176
     1
 90
        0
176
     1
 40
0.6
176
     1
 40
30.0
176
     1
 62
     7
420
 16777215
176
     1
 90
        2
176
     1
 90
        2
176
     1
 62
     7
176
     1
 62
   257
176
     1
 90
        2
176
     1
 90
        1
176
     1
 40
40.0
176
     1
 90
        0
176
     1
 62
   257
176
     1
 40
1.0
176
     1
 90
        1
176
     1
 90
        6
176
     1
 90
        2
176
     1
 62
     7
176
     1
 90
        3
176
     1
 90
        0
176
     1
 90
        0
176
     1
290
     0
176
     1
 90
        1
176
     1
 40
0.0
176
     1
 90
        0
176
     1
290
     0
176
     1
290
     1
176
     1
290
     1
176
     1
290
     0
176
     1
290
     0
176
     1
290
     0
176
     1
290
     0
176
     1
290
     0
176
     1
290
     0
176
     1
 90
       50
176
     1
 40
0.0
176
     1
 40
1.0
176
     1
 90
        0
176
     1
 62
    18
420
        0
176
     1
 90
       50
176
     1
 90
        3
176
     1
 62
     5
420
      255
176
     1
290
     0
176
     1
 90
       50
176
     1
 90
       50
176
     1
 90
       50
176
     1
290
     0
176
     1
 90
       50
176
     1
 62
   256
176
     0
 40
1.0
176
     0
 90
        2
176
     1
  1
strokes_ogs.tif
176
     1
290
     0
176
     1
 40
1.0
176
     1
 40
1.0
176
     1
1001
ACAD
1000
AcDbSavedByObjectVersion
1070
     0
  0
VISUALSTYLE
  5
3F
102
{ACAD_REACTORS
330
29
102
}
330
29
100
AcDbVisualStyle
  2
JitterOff
 70
    20
177
     3
291
     1
 70
    58
 90
        2
176
     0
 90
        2
176
     0
 90
        0
176
     0
 90
        0
176
     0
 40
0.6
176
     0
 40
30.0
176
     0
 62
     7
420
 16777215
176
     0
 90
        1
176
     0
 90
        4
176
     0
 62
     7
176
     0
 62
   257
176
     0
 90
        1
176
     0
 90
        1
176
     0
 40
1.0
176
     0
 90
       10
176
     2
 62
     7
176
     0
 40
1.0
176
     0
 90
        1
176
     0
 90
        6
176
     0
 90
        2
176
     0
 62
     7
176
     0
 90
        5
176
     0
 90
        0
176
     0
 90
        0
176
     0
290
     0
176
     0
 90
        1
176
     0
 40
0.0
176
     0
 90
        0
176
     0
290
     0
176
     0
290
     1
176
     0
290
     1
176
     0
290
     0
176
     0
290
     0
176
     0
290
     0
176
     0
290
     0
176
     0
290
     0
176
     0
290
     0
176
     0
 90
       50
176
     0
 40
0.0
176
     0
 40
1.0
176
     0
 90
        0
176
     0
 62
    18
420
        0
176
     0
 90
       50
176
     0
 90
        3
176
     0
 62
     5
420
      255
176
     0
290
     0
176
     0
 90
       50
176
     0
 90
       50
176
     0
 90
       50
176
     0
290
     0
176
     0
 90
       50
176
     0
 62
   256
176
     0
 40
1.0
176
     0
 90
        2
176
     0
  1
strokes_ogs.tif
176
     0
290
     0
176
     0
 40
1.0
176
     0
 40
1.0
176
     0
1001
ACAD
1000
AcDbSavedByObjectVersion
1070
     0
  0
VISUALSTYLE
  5
37
102
{ACAD_REACTORS
330
29
102
}
330
29
100
AcDbVisualStyle
  2
Linepattern
 70
    14
177
     3
291
     1
 70
    58
 90
        2
176
     1
 90
        2
176
     1
 90
        0
176
     1
 90
        0
176
     1
 40
0.6
176
     1
 40
30.0
176
     1
 62
     7
420
 16777215
176
     1
 90
        1
176
     1
 90
        4
176
     1
 62
     7
176
     1
 62
   257
176
     1
 90
        7
176
     1
 90
        7
176
     1
 40
1.0
176
     1
 90
        8
176
     1
 62
     7
176
     1
 40
1.0
176
     1
 90
        1
176
     1
 90
        6
176
     1
 90
        2
176
     1
 62
     7
176
     1
 90
        5
176
     1
 90
        0
176
     1
 90
        0
176
     1
290
     0
176
     1
 90
        1
176
     1
 40
0.0
176
     1
 90
        0
176
     1
290
     0
176
     1
290
     1
176
     1
290
     1
176
     1
290
     0
176
     1
290
     0
176
     1
290
     0
176
     1
290
     0
176
     1
290
     0
176
     1
290
     0
176
     1
 90
       50
176
     1
 40
0.0
176
     1
 40
1.0
176
     1
 90
        0
176
     1
 62
    18
420
        0
176
     1
 90
       50
176
     1
 90
        3
176
     1
 62
     5
420
      255
176
     1
290
     0
176
     1
 90
       50
176
     1
 90
       50
176
     1
 90
       50
176
     1
290
     0
176
     1
 90
       50
176
     1
 62
   256
176
     0
 40
1.0
176
     0
 90
        2
176
     1
  1
strokes_ogs.tif
176
     1
290
     0
176
     1
 40
1.0
176
     1
 40
1.0
176
     1
1001
ACAD
1000
AcDbSavedByObjectVersion
1070
     0
  0
VISUALSTYLE
  5
40
102
{ACAD_REACTORS
330
29
102
}
330
29
100
AcDbVisualStyle
  2
OverhangOff
 70
    21
177
     3
291
     1
 70
    58
 90
        2
176
     0
 90
        2
176
     0
 90
        0
176
     0
 90
        0
176
     0
 40
0.6
176
     0
 40
30.0
176
     0
 62
     7
420
 16777215
176
     0
 90
        1
176
     0
 90
        4
176
     0
 62
     7
176
     0
 62
   257
176
     0
 90
        1
176
     0
 90
        1
176
     0
 40
1.0
176
     0
 90
        9
176
     2
 62
     7
176
     0
 40
1.0
176
     0
 90
        1
176
     0
 90
        6
176
     0
 90
        2
176
     0
 62
     7
176
     0
 90
        5
176
     0
 90
        0
176
     0
 90
        0
176
     0
290
     0
176
     0
 90
        1
176
     0
 40
0.0
176
     0
 90
        0
176
     0
290
     0
176
     0
290
     1
176
     0
290
     1
176
     0
290
     0
176
     0
290
     0
176
     0
290
     0
176
     0
290
     0
176
     0
290
     0
176
     0
290
     0
176
     0
 90
       50
176
     0
 40
0.0
176
     0
 40
1.0
176
     0
 90
        0
176
     0
 62
    18
420
        0
176
     0
 90
       50
176
     0
 90
        3
176
     0
 62
     5
420
      255
176
     0
290
     0
176
     0
 90
       50
176
     0
 90
       50
176
     0
 90
       50
176
     0
290
     0
176
     0
 90
       50
176
     0
 62
   256
176
     0
 40
1.0
176
     0
 90
        2
176
     0
  1
strokes_ogs.tif
176
     0
290
     0
176
     0
 40
1.0
176
     0
 40
1.0
176
     0
1001
ACAD
1000
AcDbSavedByObjectVersion
1070
     0
  0
VISUALSTYLE
  5
33
102
{ACAD_REACTORS
330
29
102
}
330
29
100
AcDbVisualStyle
  2
Realistic
 70
     8
177
     3
291
     0
 70
    58
 90
        2
176
     1
 90
        3
176
     1
 90
        0
176
     1
 90
        2
176
     1
 40
0.6
176
     1
 40
30.0
176
     1
 62
     7
420
 16777215
176
     1
 90
        0
176
     1
 90
        0
176
     1
 62
     7
176
     1
 62
   257
176
     1
 90
        1
176
     1
 90
        1
176
     1
 40
1.0
176
     1
 90
        8
176
     1
 62
   257
176
     1
 40
1.0
176
     1
 90
        1
176
     1
 90
        6
176
     1
 90
        2
176
     1
 62
     7
176
     1
 90
        3
176
     1
 90
        0
176
     1
 90
        0
176
     1
290
     0
176
     1
 90
       13
176
     1
 40
0.0
176
     1
 90
        0
176
     1
290
     0
176
     1
290
     1
176
     1
290
     1
176
     1
290
     0
176
     1
290
     0
176
     1
290
     0
176
     1
290
     0
176
     1
290
     0
176
     1
290
     0
176
     1
 90
       50
176
     1
 40
0.0
176
     1
 40
1.0
176
     1
 90
        0
176
     1
 62
    18
420
        0
176
     1
 90
       50
176
     1
 90
        3
176
     1
 62
     5
420
      255
176
     1
290
     0
176
     1
 90
       50
176
     1
 90
       50
176
     1
 90
       50
176
     1
290
     0
176
     1
 90
       50
176
     1
 62
   256
176
     0
 40
1.0
176
     0
 90
        2
176
     1
  1
strokes_ogs.tif
176
     1
290
     0
176
     1
 40
1.0
176
     1
 40
1.0
176
     1
1001
ACAD
1000
AcDbSavedByObjectVersion
1070
     0
  0
VISUALSTYLE
  5
3E
102
{ACAD_REACTORS
330
29
102
}
330
29
100
AcDbVisualStyle
  2
Shaded
 70
    27
177
     3
291
     0
 70
    58
 90
        2
176
     1
 90
        2
176
     1
 90
        1
176
     1
 90
        2
176
     1
 40
0.6
176
     1
 40
30.0
176
     1
 62
     7
420
 16777215
176
     1
 90
        0
176
     1
 90
        4
176
     1
 62
     7
176
     1
 62
   257
176
     1
 90
        1
176
     1
 90
        1
176
     1
 40
1.0
176
     1
 90
        8
176
     1
 62
   257
176
     1
 40
1.0
176
     1
 90
        1
176
     1
 90
        6
176
     1
 90
        2
176
     1
 62
     8
420
  7895160
176
     1
 90
        3
176
     1
 90
        0
176
     1
 90
        0
176
     1
290
     0
176
     1
 90
        5
176
     1
 40
0.0
176
     1
 90
        0
176
     1
290
     0
176
     1
290
     1
176
     1
290
     1
176
     1
290
     0
176
     1
290
     0
176
     1
290
     0
176
     1
290
     0
176
     1
290
     0
176
     1
290
     0
176
     1
 90
       50
176
     1
 40
0.0
176
     1
 40
1.0
176
     1
 90
        0
176
     1
 62
    18
420
        0
176
     1
 90
       50
176
     1
 90
        3
176
     1
 62
     5
420
      255
176
     1
290
     0
176
     1
 90
       50
176
     1
 90
       50
176
     1
 90
       50
176
     1
290
     0
176
     1
 90
       50
176
     1
 62
   256
176
     0
 40
1.0
176
     0
 90
        2
176
     1
  1
strokes_ogs.tif
176
     1
290
     0
176
     1
 40
1.0
176
     1
 40
1.0
176
     1
1001
ACAD
1000
AcDbSavedByObjectVersion
1070
     0
  0
VISUALSTYLE
  5
3D
102
{ACAD_REACTORS
330
29
102
}
330
29
100
AcDbVisualStyle
  2
Shaded with edges
 70
    26
177
     3
291
     0
 70
    58
 90
        2
176
     1
 90
        2
176
     1
 90
        1
176
     1
 90
        2
176
     1
 40
0.6
176
     1
 40
30.0
176
     1
 62
     7
420
 16777215
176
     1
 90
        1
176
     1
 90
        2
176
     1
 62
     7
176
     1
 62
   257
176
     1
 90
        2
176
     1
 90
        1
176
     1
 40
1.0
176
     1
 90
        8
176
     1
 62
   257
176
     1
 40
1.0
176
     1
 90
        1
176
     1
 90
        6
176
     1
 90
        2
176
     1
 62
     7
176
     1
 90
        3
176
     1
 90
        0
176
     1
 90
        0
176
     1
290
     0
176
     1
 90
        5
176
     1
 40
0.0
176
     1
 90
        0
176
     1
290
     0
176
     1
290
     1
176
     1
290
     1
176
     1
290
     0
176
     1
290
     0
176
     1
290
     0
176
     1
290
     0
176
     1
290
     0
176
     1
290
     0
176
     1
 90
       50
176
     1
 40
0.0
176
     1
 40
1.0
176
     1
 90
        0
176
     1
 62
    18
420
        0
176
     1
 90
       50
176
     1
 90
        3
176
     1
 62
     5
420
      255
176
     1
290
     0
176
     1
 90
       50
176
     1
 90
       50
176
     1
 90
       50
176
     1
290
     0
176
     1
 90
       50
176
     1
 62
   256
176
     0
 40
1.0
176
     0
 90
        2
176
     1
  1
strokes_ogs.tif
176
     1
290
     0
176
     1
 40
1.0
176
     1
 40
1.0
176
     1
1001
ACAD
1000
AcDbSavedByObjectVersion
1070
     0
  0
VISUALSTYLE
  5
3A
102
{ACAD_REACTORS
330
29
102
}
330
29
100
AcDbVisualStyle
  2
Shades of Gray
 70
    23
177
     3
291
     0
 70
    58
 90
        2
176
     1
 90
        2
176
     1
 90
        3
176
     1
 90
        0
176
     1
 40
0.6
176
     1
 40
30.0
176
     1
 62
     7
420
 16777215
176
     1
 90
        2
176
     1
 90
        2
176
     1
 62
     7
176
     1
 62
     7
176
     1
 90
        1
176
     1
 90
        1
176
     1
 40
40.0
176
     1
 90
        8
176
     1
 62
     7
176
     1
 40
1.0
176
     1
 90
        1
176
     1
 90
        6
176
     1
 90
        2
176
     1
 62
     7
176
     1
 90
        3
176
     1
 90
        0
176
     1
 90
        0
176
     1
290
     0
176
     1
 90
        1
176
     1
 40
0.0
176
     1
 90
        0
176
     1
290
     0
176
     1
290
     1
176
     1
290
     1
176
     1
290
     0
176
     1
290
     0
176
     1
290
     0
176
     1
290
     0
176
     1
290
     0
176
     1
290
     0
176
     1
 90
       50
176
     1
 40
0.0
176
     1
 40
1.0
176
     1
 90
        0
176
     1
 62
    18
420
        0
176
     1
 90
       50
176
     1
 90
        3
176
     1
 62
     5
420
      255
176
     1
290
     0
176
     1
 90
       50
176
     1
 90
       50
176
     1
 90
       50
176
     1
290
     0
176
     1
 90
       50
176
     1
 62
   256
176
     0
 40
1.0
176
     0
 90
        2
176
     1
  1
strokes_ogs.tif
176
     1
290
     0
176
     1
 40
1.0
176
     1
 40
1.0
176
     1
1001
ACAD
1000
AcDbSavedByObjectVersion
1070
     0
  0
VISUALSTYLE
  5
3B
102
{ACAD_REACTORS
330
29
102
}
330
29
100
AcDbVisualStyle
  2
Sketchy
 70
    24
177
     3
291
     0
 70
    58
 90
        1
176
     1
 90
        2
176
     1
 90
        2
176
     1
 90
        0
176
     1
 40
0.6
176
     1
 40
30.0
176
     1
 62
     7
420
 16777215
176
     1
 90
        2
176
     1
 90
        2
176
     1
 62
     7
176
     1
 62
     7
176
     1
 90
        1
176
     1
 90
        1
176
     1
 40
40.0
176
     1
 90
       11
176
     1
 62
     7
176
     1
 40
1.0
176
     1
 90
        1
176
     1
 90
        6
176
     1
 90
        2
176
     1
 62
     7
176
     1
 90
        6
176
     1
 90
        0
176
     1
 90
        0
176
     1
290
     0
176
     1
 90
        1
176
     1
 40
0.0
176
     1
 90
        0
176
     1
290
     0
176
     1
290
     1
176
     1
290
     1
176
     1
290
     0
176
     1
290
     0
176
     1
290
     0
176
     1
290
     0
176
     1
290
     0
176
     1
290
     0
176
     1
 90
       50
176
     1
 40
0.0
176
     1
 40
1.0
176
     1
 90
        0
176
     1
 62
    18
420
        0
176
     1
 90
       50
176
     1
 90
        3
176
     1
 62
     5
420
      255
176
     1
290
     0
176
     1
 90
       50
176
     1
 90
       50
176
     1
 90
       50
176
     1
290
     0
176
     1
 90
       50
176
     1
 62
   256
176
     0
 40
1.0
176
     0
 90
        2
176
     1
  1
strokes_ogs.tif
176
     1
290
     0
176
     1
 40
1.0
176
     1
 40
1.0
176
     1
1001
ACAD
1000
AcDbSavedByObjectVersion
1070
     0
  0
VISUALSTYLE
  5
36
102
{ACAD_REACTORS
330
29
102
}
330
29
100
AcDbVisualStyle
  2
Thicken
 70
    13
177
     3
291
     1
 70
    58
 90
        2
176
     1
 90
        2
176
     1
 90
        0
176
     1
 90
        0
176
     1
 40
0.6
176
     1
 40
30.0
176
     1
 62
     7
420
 16777215
176
     1
 90
        1
176
     1
 90
        4
176
     1
 62
     7
176
     1
 62
   257
176
     1
 90
        1
176
     1
 90
        1
176
     1
 40
1.0
176
     1
 90
       12
176
     1
 62
     7
176
     1
 40
1.0
176
     1
 90
        1
176
     1
 90
        6
176
     1
 90
        2
176
     1
 62
     7
176
     1
 90
        5
176
     1
 90
        0
176
     1
 90
        0
176
     1
290
     0
176
     1
 90
        1
176
     1
 40
0.0
176
     1
 90
        0
176
     1
290
     0
176
     1
290
     1
176
     1
290
     1
176
     1
290
     0
176
     1
290
     0
176
     1
290
     0
176
     1
290
     0
176
     1
290
     0
176
     1
290
     0
176
     1
 90
       50
176
     1
 40
0.0
176
     1
 40
1.0
176
     1
 90
        0
176
     1
 62
    18
420
        0
176
     1
 90
       50
176
     1
 90
        3
176
     1
 62
     5
420
      255
176
     1
290
     0
176
     1
 90
       50
176
     1
 90
       50
176
     1
 90
       50
176
     1
290
     0
176
     1
 90
       50
176
     1
 62
   256
176
     0
 40
1.0
176
     0
 90
        2
176
     1
  1
strokes_ogs.tif
176
     1
290
     0
176
     1
 40
1.0
176
     1
 40
1.0
176
     1
1001
ACAD
1000
AcDbSavedByObjectVersion
1070
     0
  0
VISUALSTYLE
  5
30
102
{ACAD_REACTORS
330
29
102
}
330
29
100
AcDbVisualStyle
  2
Wireframe
 70
     5
177
     3
291
     0
 70
    58
 90
        0
176
     1
 90
        2
176
     1
 90
        0
176
     1
 90
        0
176
     1
 40
0.6
176
     1
 40
30.0
176
     1
 62
     7
420
 16777215
176
     1
 90
        1
176
     1
 90
        4
176
     1
 62
     7
176
     1
 62
   257
176
     1
 90
        1
176
     1
 90
        1
176
     1
 40
1.0
176
     1
 90
        0
176
     1
 62
   257
176
     1
 40
1.0
176
     1
 90
        1
176
     1
 90
        6
176
     1
 90
        2
176
     1
 62
     7
176
     1
 90
        3
176
     1
 90
        0
176
     1
 90
        0
176
     1
290
     0
176
     1
 90
        1
176
     1
 40
0.0
176
     1
 90
        0
176
     1
290
     0
176
     1
290
     1
176
     1
290
     1
176
     1
290
     0
176
     1
290
     0
176
     1
290
     0
176
     1
290
     0
176
     1
290
     0
176
     1
290
     0
176
     1
 90
       50
176
     1
 40
0.0
176
     1
 40
1.0
176
     1
 90
        0
176
     1
 62
    18
420
        0
176
     1
 90
       50
176
     1
 90
        3
176
     1
 62
     5
420
      255
176
     1
290
     0
176
     1
 90
       50
176
     1
 90
       50
176
     1
 90
       50
176
     1
290
     0
176
     1
 90
       50
176
     1
 62
   256
176
     0
 40
1.0
176
     0
 90
        2
176
     1
  1
strokes_ogs.tif
176
     1
290
     0
176
     1
 40
1.0
176
     1
 40
1.0
176
     1
1001
ACAD
1000
AcDbSavedByObjectVersion
1070
     0
  0
VISUALSTYLE
  5
3C
102
{ACAD_REACTORS
330
29
102
}
330
29
100
AcDbVisualStyle
  2
X-Ray
 70
    25
177
     3
291
     0
 70
    58
 90
        2
176
     1
 90
        2
176
     1
 90
        1
176
     1
 90
        1
176
     1
 40
0.5
176
     1
 40
30.0
176
     1
 62
     7
420
 16777215
176
     1
 90
        1
176
     1
 90
        0
176
     1
 62
     7
176
     1
 62
   257
176
     1
 90
        1
176
     1
 90
        1
176
     1
 40
1.0
176
     1
 90
        8
176
     1
 62
     7
176
     1
 40
1.0
176
     1
 90
        1
176
     1
 90
        6
176
     1
 90
        2
176
     1
 62
     7
176
     1
 90
        3
176
     1
 90
        0
176
     1
 90
        0
176
     1
290
     0
176
     1
 90
       13
176
     1
 40
0.0
176
     1
 90
        0
176
     1
290
     0
176
     1
290
     1
176
     1
290
     1
176
     1
290
     0
176
     1
290
     0
176
     1
290
     0
176
     1
290
     0
176
     1
290
     0
176
     1
290
     0
176
     1
 90
       50
176
     1
 40
0.0
176
     1
 40
1.0
176
     1
 90
        0
176
     1
 62
    18
420
        0
176
     1
 90
       50
176
     1
 90
        3
176
     1
 62
     5
420
      255
176
     1
290
     0
176
     1
 90
       50
176
     1
 90
       50
176
     1
 90
       50
176
     1
290
     0
176
     1
 90
       50
176
     1
 62
   256
176
     0
 40
1.0
176
     0
 90
        2
176
     1
  1
strokes_ogs.tif
176
     1
290
     0
176
     1
 40
1.0
176
     1
 40
1.0
176
     1
1001
ACAD
1000
AcDbSavedByObjectVersion
1070
     0
  0
DICTIONARYVAR
  5
326
102
{ACAD_REACTORS
330
321
102
}
330
321
100
DictionaryVariables
280
     0
  1
1:1
  0
DICTIONARYVAR
  5
323
102
{ACAD_REACTORS
330
321
102
}
330
321
100
DictionaryVariables
280
     0
  1
STANDARD
  0
DICTIONARYVAR
  5
322
102
{ACAD_REACTORS
330
321
102
}
330
321
100
DictionaryVariables
280
     0
  1
STANDARD
  0
DICTIONARYVAR
  5
324
102
{ACAD_REACTORS
330
321
102
}
330
321
100
DictionaryVariables
280
     0
  1
Imperial24
  0
DICTIONARYVAR
  5
325
102
{ACAD_REACTORS
330
321
102
}
330
321
100
DictionaryVariables
280
     0
  1
Imperial24
  0
DICTIONARY
  5
32C
330
6B
100
AcDbDictionary
280
     1
281
     1
  3
ACAD_XREC_ROUNDTRIP
360
32D
  0
DICTIONARY
  5
1A
330
19
100
AcDbDictionary
280
     1
281
     1
  3
BUMPTILE
360
1C
  3
DIFFUSETILE
360
1B
  3
OPACITYTILE
360
1F
  3
REFLECTIONTILE
360
1E
  3
REFRACTIONTILE
360
20
  3
SPECULARTILE
360
1D
  0
DICTIONARY
  5
12
330
11
100
AcDbDictionary
280
     1
281
     1
  3
BUMPTILE
360
14
  3
DIFFUSETILE
360
13
  3
OPACITYTILE
360
17
  3
REFLECTIONTILE
360
16
  3
REFRACTIONTILE
360
18
  3
SPECULARTILE
360
15
  0
DICTIONARY
  5
22
330
21
100
AcDbDictionary
280
     1
281
     1
  3
BUMPTILE
360
24
  3
DIFFUSETILE
360
23
  3
OPACITYTILE
360
27
  3
REFLECTIONTILE
360
26
  3
REFRACTIONTILE
360
28
  3
SPECULARTILE
360
25
  0
DICTIONARY
  5
32A
330
69
100
AcDbDictionary
280
     1
281
     1
  3
ACAD_XREC_ROUNDTRIP
360
32B
  0
DICTIONARY
  5
327
330
65
100
AcDbDictionary
280
     1
281
     1
  3
ACAD_ROUNDTRIP_2008_TABLESTYLE_CELLSTYLEMAP
360
328
  0
XRECORD
  5
32D
102
{ACAD_REACTORS
330
32C
102
}
330
32C
100
AcDbXrecord
280
     1
102
DISPLAYNAME
  1
Imperial24
102
FLAGS
 90
        0
  0
XRECORD
  5
1C
102
{ACAD_REACTORS
330
1A
102
}
330
1A
100
AcDbXrecord
280
     1
270
     1
271
     1
  0
XRECORD
  5
1B
102
{ACAD_REACTORS
330
1A
102
}
330
1A
100
AcDbXrecord
280
     1
270
     1
271
     1
  0
XRECORD
  5
1F
102
{ACAD_REACTORS
330
1A
102
}
330
1A
100
AcDbXrecord
280
     1
270
     1
271
     1
  0
XRECORD
  5
1E
102
{ACAD_REACTORS
330
1A
102
}
330
1A
100
AcDbXrecord
280
     1
270
     1
271
     1
  0
XRECORD
  5
20
102
{ACAD_REACTORS
330
1A
102
}
330
1A
100
AcDbXrecord
280
     1
270
     1
271
     1
  0
XRECORD
  5
1D
102
{ACAD_REACTORS
330
1A
102
}
330
1A
100
AcDbXrecord
280
     1
270
     1
271
     1
  0
XRECORD
  5
14
102
{ACAD_REACTORS
330
12
102
}
330
12
100
AcDbXrecord
280
     1
270
     1
271
     1
  0
XRECORD
  5
13
102
{ACAD_REACTORS
330
12
102
}
330
12
100
AcDbXrecord
280
     1
270
     1
271
     1
  0
XRECORD
  5
17
102
{ACAD_REACTORS
330
12
102
}
330
12
100
AcDbXrecord
280
     1
270
     1
271
     1
  0
XRECORD
  5
16
102
{ACAD_REACTORS
330
12
102
}
330
12
100
AcDbXrecord
280
     1
270
     1
271
     1
  0
XRECORD
  5
18
102
{ACAD_REACTORS
330
12
102
}
330
12
100
AcDbXrecord
280
     1
270
     1
271
     1
  0
XRECORD
  5
15
102
{ACAD_REACTORS
330
12
102
}
330
12
100
AcDbXrecord
280
     1
270
     1
271
     1
  0
XRECORD
  5
24
102
{ACAD_REACTORS
330
22
102
}
330
22
100
AcDbXrecord
280
     1
270
     1
271
     1
  0
XRECORD
  5
23
102
{ACAD_REACTORS
330
22
102
}
330
22
100
AcDbXrecord
280
     1
270
     1
271
     1
  0
XRECORD
  5
27
102
{ACAD_REACTORS
330
22
102
}
330
22
100
AcDbXrecord
280
     1
270
     1
271
     1
  0
XRECORD
  5
26
102
{ACAD_REACTORS
330
22
102
}
330
22
100
AcDbXrecord
280
     1
270
     1
271
     1
  0
XRECORD
  5
28
102
{ACAD_REACTORS
330
22
102
}
330
22
100
AcDbXrecord
280
     1
270
     1
271
     1
  0
XRECORD
  5
25
102
{ACAD_REACTORS
330
22
102
}
330
22
100
AcDbXrecord
280
     1
270
     1
271
     1
  0
XRECORD
  5
32B
102
{ACAD_REACTORS
330
32A
102
}
330
32A
100
AcDbXrecord
280
     1
102
DISPLAYNAME
  1
Imperial24
102
FLAGS
 90
        0
  0
CELLSTYLEMAP
  5
328
102
{ACAD_REACTORS
330
327
102
}
330
327
100
AcDbCellStyleMap
 90
        3
300
CELLSTYLE
  1
TABLEFORMAT_BEGIN
 90
        5
170
     1
 91
        0
 92
    32768
 62
   257
 93
        1
300
CONTENTFORMAT
  1
CONTENTFORMAT_BEGIN
 90
        0
 91
        0
 92
      512
 93
        0
300

 40
0.0
140
1.0
 94
        5
 62
     0
340
55
144
0.25
309
CONTENTFORMAT_END
171
     0
 94
        0
309
TABLEFORMAT_END
  1
CELLSTYLE_BEGIN
 90
        1
 91
        1
300
_TITLE
309
CELLSTYLE_END
300
CELLSTYLE
  1
TABLEFORMAT_BEGIN
 90
        5
170
     1
 91
        0
 92
        0
 62
   257
 93
        1
300
CONTENTFORMAT
  1
CONTENTFORMAT_BEGIN
 90
        0
 91
        0
 92
      512
 93
        0
300

 40
0.0
140
1.0
 94
        5
 62
     0
340
55
144
0.18
309
CONTENTFORMAT_END
171
     0
 94
        0
309
TABLEFORMAT_END
  1
CELLSTYLE_BEGIN
 90
        2
 91
        1
300
_HEADER
309
CELLSTYLE_END
300
CELLSTYLE
  1
TABLEFORMAT_BEGIN
 90
        5
170
     1
 91
        0
 92
        0
 62
   257
 93
        1
300
CONTENTFORMAT
  1
CONTENTFORMAT_BEGIN
 90
        0
 91
        0
 92
      512
 93
        0
300

 40
0.0
140
1.0
 94
        2
 62
     0
340
55
144
0.18
309
CONTENTFORMAT_END
171
     0
 94
        0
309
TABLEFORMAT_END
  1
CELLSTYLE_BEGIN
 90
        3
 91
        2
300
_DATA
309
CELLSTYLE_END
  0
ENDSEC
  0
EOF
